<?xml version="1.0" encoding="UTF-8"?><svg id="_層_1" xmlns="http://www.w3.org/2000/svg" viewBox="0 0 170.08 85.04"><defs><style>.cls-1{fill:#c1c1c1;font-family:Roboto-Regular, Roboto;font-size:4px;isolation:isolate;}.cls-2{stroke:#c1c1c1;stroke-width:.5px;}.cls-2,.cls-3{fill:none;}.cls-3{stroke:#124e78;stroke-width:1.5px;}</style></defs><g id="_層_2"><g><line class="cls-2" x1="169.15" y1="75.98" x2="10.85" y2="75.98"/><line class="cls-2" x1="169.15" y1="41.58" x2="10.85" y2="41.58"/><line class="cls-2" x1="169.15" y1="7.08" x2="10.85" y2="7.08"/><line class="cls-2" x1="11.15" y1="75.98" x2="11.15" y2="74.48"/><line class="cls-2" x1="26.95" y1="75.98" x2="26.95" y2="74.48"/><line class="cls-2" x1="42.85" y1="75.98" x2="42.85" y2="74.48"/><line class="cls-2" x1="58.65" y1="75.98" x2="58.65" y2="74.48"/><line class="cls-2" x1="74.45" y1="75.98" x2="74.45" y2="74.48"/><line class="cls-2" x1="90.35" y1="75.98" x2="90.35" y2="74.48"/><line class="cls-2" x1="106.15" y1="75.98" x2="106.15" y2="74.48"/><line class="cls-2" x1="121.95" y1="75.98" x2="121.95" y2="74.48"/><line class="cls-2" x1="137.85" y1="75.98" x2="137.85" y2="74.48"/><line class="cls-2" x1="153.65" y1="75.98" x2="153.65" y2="74.48"/><line class="cls-2" x1="168.85" y1="75.98" x2="168.85" y2="74.48"/><text class="cls-1" transform="translate(14.47 80.46)"><tspan x="0" y="0">2013</tspan></text><text class="cls-1" transform="translate(1.93 77.29)"><tspan x="0" y="0">-50%</tspan></text><text class="cls-1" transform="translate(5.28 42.96)"><tspan x="0" y="0">0%</tspan></text><text class="cls-1" transform="translate(.77 8.63)"><tspan x="0" y="0">+50%</tspan></text><text class="cls-1" transform="translate(30.34 80.46)"><tspan x="0" y="0">2014</tspan></text><text class="cls-1" transform="translate(46.21 80.46)"><tspan x="0" y="0">2015</tspan></text><text class="cls-1" transform="translate(62.08 80.46)"><tspan x="0" y="0">2016</tspan></text><text class="cls-1" transform="translate(77.95 80.46)"><tspan x="0" y="0">2017</tspan></text><text class="cls-1" transform="translate(93.82 80.46)"><tspan x="0" y="0">2018</tspan></text><text class="cls-1" transform="translate(109.69 80.46)"><tspan x="0" y="0">2019</tspan></text><text class="cls-1" transform="translate(125.56 80.46)"><tspan x="0" y="0">2020</tspan></text><text class="cls-1" transform="translate(141.44 80.46)"><tspan x="0" y="0">2021</tspan></text><text class="cls-1" transform="translate(157.31 80.46)"><tspan x="0" y="0">2022</tspan></text></g></g><g id="_層_5"><path class="cls-3" d="M10.95,53.08c.4,.5,.9,1,1.3,1.9s.9,3.3,1.3,3.3c4,0,7.9-14.7,11.9-14.7,.4,0,.9,.7,1.3,1.3s.9,2.4,1.3,2.4,.9-.5,1.3-.7c4-2.1,7.9-3.2,11.9-3.2,.4,0,.9,3.1,1.3,5.4,.4,2.4,.9,8.7,1.3,8.7s.9-1.3,1.3-2c4-5.9,7.9-14.8,11.9-14.8,.4,0,.9,6.2,1.3,6.2s.9-.6,1.3-1.1,.9-1.5,1.3-2.2c4-6.3,7.9-3.6,11.9-10.9,.4-.8,.9-4.1,1.3-5.9,.4-1.9,.9-5.2,1.3-5.2s.9,7.2,1.3,7.6c4,3.6,7.9,1.8,11.9,5.4,.4,.4,.9,12.4,1.3,12.4s.9-4.8,1.3-4.8,.9,.2,1.3,.2c4,0,7.9-4.6,11.9-4.6,.4,0,.9,2.1,1.3,3.9,.4,1.8,.9,6.8,1.3,6.8s.9-.8,1.3-1.3c4-4,7.9-10,11.9-19.8,.4-1.1,.9-3.4,1.3-3.4s.9,17.1,1.3,17.1,.9-5.3,1.3-5.5c4-1.5,7.9-2.3,11.9-2.3,.4,0,.9,5.8,1.3,5.8s.9-2.6,1.3-2.8c.4-.2,.9-.2,1.3-.3,4-1.2,7.9-3.3,11.9-9.8,.4-.7,.9-5.5,1.3-5.5s.9,7.7,1.3,9.6c.4,2,.9,2.9,1.3,2.9,4,0,7.9-6.8,11.9-13.5" pointer-events="none"/></g></svg>