<?xml version="1.0" encoding="UTF-8"?><svg id="_層_1" xmlns="http://www.w3.org/2000/svg" viewBox="0 0 170.08 85.04"><defs><style>.cls-1{fill:#c1c1c1;font-family:Roboto-Regular, Roboto;font-size:4px;isolation:isolate;}.cls-2{stroke:#c1c1c1;stroke-width:.5px;}.cls-2,.cls-3{fill:none;}.cls-3{stroke:#124e78;stroke-width:1.5px;}</style></defs><g id="_層_2"><g><line class="cls-2" x1="169.15" y1="76.9" x2="10.85" y2="76.9"/><line class="cls-2" x1="169.15" y1="42.4" x2="10.85" y2="42.4"/><line class="cls-2" x1="169.15" y1="8" x2="10.85" y2="8"/><line class="cls-2" x1="11.15" y1="76.9" x2="11.15" y2="75.4"/><line class="cls-2" x1="26.95" y1="76.9" x2="26.95" y2="75.4"/><line class="cls-2" x1="42.85" y1="76.9" x2="42.85" y2="75.4"/><line class="cls-2" x1="58.65" y1="76.9" x2="58.65" y2="75.4"/><line class="cls-2" x1="74.45" y1="76.9" x2="74.45" y2="75.4"/><line class="cls-2" x1="90.35" y1="76.9" x2="90.35" y2="75.4"/><line class="cls-2" x1="106.15" y1="76.9" x2="106.15" y2="75.4"/><line class="cls-2" x1="121.95" y1="76.9" x2="121.95" y2="75.4"/><line class="cls-2" x1="137.85" y1="76.9" x2="137.85" y2="75.4"/><line class="cls-2" x1="153.65" y1="76.9" x2="153.65" y2="75.4"/><line class="cls-2" x1="168.85" y1="76.9" x2="168.85" y2="75.4"/><text class="cls-1" transform="translate(14.47 81.35)"><tspan x="0" y="0">2013</tspan></text><text class="cls-1" transform="translate(1.93 78.19)"><tspan x="0" y="0">-50%</tspan></text><text class="cls-1" transform="translate(5.28 43.86)"><tspan x="0" y="0">0%</tspan></text><text class="cls-1" transform="translate(.77 9.52)"><tspan x="0" y="0">+50%</tspan></text><text class="cls-1" transform="translate(30.34 81.35)"><tspan x="0" y="0">2014</tspan></text><text class="cls-1" transform="translate(46.21 81.35)"><tspan x="0" y="0">2015</tspan></text><text class="cls-1" transform="translate(62.08 81.35)"><tspan x="0" y="0">2016</tspan></text><text class="cls-1" transform="translate(77.95 81.35)"><tspan x="0" y="0">2017</tspan></text><text class="cls-1" transform="translate(93.82 81.35)"><tspan x="0" y="0">2018</tspan></text><text class="cls-1" transform="translate(109.69 81.35)"><tspan x="0" y="0">2019</tspan></text><text class="cls-1" transform="translate(125.56 81.35)"><tspan x="0" y="0">2020</tspan></text><text class="cls-1" transform="translate(141.44 81.35)"><tspan x="0" y="0">2021</tspan></text><text class="cls-1" transform="translate(157.31 81.35)"><tspan x="0" y="0">2022</tspan></text></g></g><g id="_層_5"><path class="cls-3" d="M11.05,55.5c.4,2.6,.9,5.2,1.3,7,.4,1.9,.9,4.1,1.3,4.1s.9-7.5,1.3-7.5,.9,1.5,1.3,2.9c.4,1.5,.9,5.9,1.3,5.9s.9-3.5,1.3-3.5,.9,.4,1.3,.4,.9-27.1,1.3-27.1,.9,18,1.3,20.7c.4,2.8,.9,4.1,1.3,4.1s.9-4.8,1.3-4.9c.4-.1,.9-.2,1.3-.2s.9,.6,1.3,.6,.9-8.1,1.3-8.1,.9,5.8,1.3,8.4c.4,2.6,.9,7,1.3,7s.9-1.3,1.3-1.3,.9,1.6,1.3,1.6,.9-8.2,1.3-8.2,.9,8.9,1.3,8.9,.9-6,1.3-6,.9,5.5,1.3,5.5,.9-8.7,1.3-11.3,.9-4.2,1.3-4.2,.9,9.1,1.3,9.1,.9-1.3,1.3-1.3,.9,.7,1.3,2.1c.4,1.4,.9,6.5,1.3,6.5s.9-12.1,1.3-12.1,.9,9.4,1.3,9.4,.9-13.7,1.3-18,.9-7.9,1.3-7.9,.9,1.2,1.3,3.6c.4,2.4,.9,12.8,1.3,12.8s.9,0,1.3-.1,.9-1.9,1.3-5.7,.9-38,1.3-38,.9,6.2,1.3,10.5,.9,8.4,1.3,15.3,.9,24.7,1.3,25.9,.9,1.8,1.3,1.8,.9-5.4,1.3-5.4,.9,2.4,1.3,2.4,.9-1.5,1.3-4.4,.9-50,1.3-50,.9,21.3,1.3,28.2,.9,9,1.3,13.4,.9,12.4,1.3,13.1c.4,.7,.9,1,1.3,1s.9-2,1.3-2,.9,.3,1.3,.7,.9,1.8,1.3,1.8,.9-23,1.3-23,.9,16.1,1.3,16.1,.9-2.7,1.3-2.7,.9,5.8,1.3,5.8,.9-3.6,1.3-3.6,.9,.4,1.3,.4,.9-1.2,1.3-1.8,.9-.6,1.3-1.8,.9-9.8,1.3-9.8,.9,1.2,1.3,3.5,.9,10.5,1.3,13.9,.9,5.7,1.3,6.5,.9,1.2,1.3,1.2,.9-16.1,1.3-16.1,.9,5.1,1.3,5.1,.9-10.3,1.3-10.3,.9,12.3,1.3,15.1,.9,4.3,1.3,4.3,.9-2.7,1.3-3.4c.4-.8,.9-.8,1.3-1.1s.9-.3,1.3-.8,.9-6,1.3-6,.9,6.5,1.3,6.5,.9-1.5,1.3-3.4,.9-7.8,1.3-7.8,.9,1,1.3,1,.9-5.6,1.3-5.6,.9,2.2,1.3,4.9,.9,11.2,1.3,11.2,.9-.2,1.3-.7,.9-10.1,1.3-12.5,.9-1.8,1.3-3.6c.4-1.7,.9-6.8,1.3-6.8s.9,5.8,1.3,9,.9,7.7,1.3,9.9,.9,3.5,1.3,3.5,.9-12.2,1.3-12.2,.9,13.9,1.3,13.9,.9-5,1.3-5,.9,4,1.3,4,.9-3.6,1.3-5.3,.9-3.7,1.3-4.8,.9-.5,1.3-1.6,.9-15.7,1.3-15.7,.9,7.7,1.3,10.5c.4,2.8,.9,3.8,1.3,6,.4,2.2,.9,5.4,1.3,7.2,.4,1.8,.9,3.8,1.3,3.8s.9-20.7,1.3-20.7,.9,5.6,1.3,5.6,.9-32.3,1.3-32.3,.9,34.7,1.3,37.7c.4,3,.9,4.4,1.3,4.4s.9-1.7,1.3-2.4,.9-1.1,1.3-2.2c.4-1.1,.9-1.4,1.3-4.2,.4-2.8,.9-13.3,1.3-13.3s.9,.5,1.3,1.4c.4,.9,.9,1.4,1.3,4.1,.4,2.8,.9,12.9,1.3,12.9s.9-1.2,1.3-1.2,.9,7.3,1.3,7.3,.9-.5,1.3-1.5,.9-5.2,1.3-5.2,.9,4.9,1.3,4.9,.9-2.4,1.3-6.6c.4-4.3,.9-11.6,1.3-18.9" pointer-events="none"/></g></svg>