<?xml version="1.0" encoding="UTF-8"?><svg id="_層_1" xmlns="http://www.w3.org/2000/svg" viewBox="0 0 170.08 85.04"><defs><style>.cls-1{fill:#c1c1c1;font-family:Roboto-Regular, Roboto;font-size:4px;isolation:isolate;}.cls-2{stroke:#c1c1c1;stroke-width:.5px;}.cls-2,.cls-3{fill:none;}.cls-3{stroke:#124e78;stroke-width:1.5px;}</style></defs><g id="_層_2"><g><line class="cls-2" x1="169.34" y1="77.14" x2="11.14" y2="77.14"/><line class="cls-2" x1="169.34" y1="42.64" x2="11.14" y2="42.64"/><line class="cls-2" x1="169.34" y1="8.24" x2="11.14" y2="8.24"/><line class="cls-2" x1="11.44" y1="77.14" x2="11.44" y2="75.64"/><line class="cls-2" x1="27.24" y1="77.14" x2="27.24" y2="75.64"/><line class="cls-2" x1="43.04" y1="77.14" x2="43.04" y2="75.64"/><line class="cls-2" x1="58.94" y1="77.14" x2="58.94" y2="75.64"/><line class="cls-2" x1="74.74" y1="77.14" x2="74.74" y2="75.64"/><line class="cls-2" x1="90.54" y1="77.14" x2="90.54" y2="75.64"/><line class="cls-2" x1="106.44" y1="77.14" x2="106.44" y2="75.64"/><line class="cls-2" x1="122.24" y1="77.14" x2="122.24" y2="75.64"/><line class="cls-2" x1="138.04" y1="77.14" x2="138.04" y2="75.64"/><line class="cls-2" x1="153.94" y1="77.14" x2="153.94" y2="75.64"/><line class="cls-2" x1="169.14" y1="77.14" x2="169.14" y2="75.64"/><text class="cls-1" transform="translate(14.73 81.58)"><tspan x="0" y="0">2013</tspan></text><text class="cls-1" transform="translate(2.19 78.41)"><tspan x="0" y="0">-50%</tspan></text><text class="cls-1" transform="translate(5.54 44.08)"><tspan x="0" y="0">0%</tspan></text><text class="cls-1" transform="translate(1.03 9.75)"><tspan x="0" y="0">+50%</tspan></text><text class="cls-1" transform="translate(30.6 81.58)"><tspan x="0" y="0">2014</tspan></text><text class="cls-1" transform="translate(46.47 81.58)"><tspan x="0" y="0">2015</tspan></text><text class="cls-1" transform="translate(62.35 81.58)"><tspan x="0" y="0">2016</tspan></text><text class="cls-1" transform="translate(78.22 81.58)"><tspan x="0" y="0">2017</tspan></text><text class="cls-1" transform="translate(94.09 81.58)"><tspan x="0" y="0">2018</tspan></text><text class="cls-1" transform="translate(109.96 81.58)"><tspan x="0" y="0">2019</tspan></text><text class="cls-1" transform="translate(125.83 81.58)"><tspan x="0" y="0">2020</tspan></text><text class="cls-1" transform="translate(141.7 81.58)"><tspan x="0" y="0">2021</tspan></text><text class="cls-1" transform="translate(157.57 81.58)"><tspan x="0" y="0">2022</tspan></text></g></g><g id="_層_5"><path class="cls-3" d="M11.34,56.54c.4-1,.9-2,1.3-2,1.8,0,3.5,.7,5.3,2,.4,.3,.9,13.4,1.3,13.4s.9-.9,1.3-2.6c.4-1.8,.9-7.8,1.3-8.5,.4-.7,.9-.4,1.3-1.1,.4-.7,.9-4.4,1.3-5.1,.4-.7,.9-.5,1.3-1.1,.4-.5,.9-1.4,1.3-2,.4-.6,.9-1.4,1.3-1.4,1.8,0,3.5,1.8,5.3,5.5,.4,.9,.9,11,1.3,11s.9-1.2,1.3-2.2c.4-1,.9-2.9,1.3-3.9,.4-1,.9-.6,1.3-1.9,.4-1.3,.9-6.9,1.3-6.9s.9,.8,1.3,.8,.9-3.9,1.3-5.4c.4-1.5,.9-3.7,1.3-3.7,1.8,0,3.5,5.8,5.3,16.6,.4,2.7,.9,9.1,1.3,9.1s.9-6.2,1.3-8.8c.4-2.6,.9-5.4,1.3-7.1,.4-1.6,.9-2,1.3-2.7,.4-.7,.9-1,1.3-1.5,.4-.5,.9-.5,1.3-1.4s.9-3.1,1.3-5.3,.9-7.9,1.3-7.9c1.8,0,3.5,3.5,5.3,10.6,.4,1.8,.9,15.8,1.3,15.8s.9-7.6,1.3-7.6,.9,3.4,1.3,3.4,.9-3.2,1.3-4.2,.9-.7,1.3-2,.9-4.1,1.3-5.5c.4-1.4,.9-2.8,1.3-2.8s.9,3.4,1.3,4.9c1.8,5.9,3.5,3.2,5.3,9.6,.4,1.6,.9,9.6,1.3,10,.4,.3,.9,.5,1.3,.5s.9-1.5,1.3-1.5,.9,1.8,1.3,1.8,.9-5.6,1.3-5.9c.4-.3,.9-.5,1.3-.5s.9,4.3,1.3,4.3,.9-10.1,1.3-10.1c1.8,0,3.5,2.4,5.3,7.2,.4,1.2,.9,7.3,1.3,7.3s.9-.2,1.3-.6,.9-2.9,1.3-2.9,.9,1.6,1.3,1.6,.9-.4,1.3-.4,.9,2,1.3,2,.9-3,1.3-5.1c.4-2.1,.9-7.6,1.3-7.6,1.8,0,3.5,1.9,5.3,5.7,.4,.9,.9,7.9,1.3,7.9s.9-1.7,1.3-2.8c.4-1.1,.9-3.5,1.3-3.5s.9,.4,1.3,1.3c.4,.9,.9,4.7,1.3,4.7s.9-1.7,1.3-3.7c.4-2,.9-8.1,1.3-8.3,.4-.2,.9-.1,1.3-.2,1.3-.5,2.6-4.1,4-4.1,.4,0,.9,13.2,1.3,16,.4,2.8,.9,4.2,1.3,4.2s.9-.5,1.3-1.4c.4-.9,.9-4.8,1.3-4.8s.9,4.2,1.3,5.1c.4,.9,.9,1.3,1.3,1.3s.9-2.1,1.3-3.2c.4-1.1,.9-1.7,1.3-3.2s.9-4.6,1.3-6.1c1.3-4.2,2.6-6.3,4-6.3,.4,0,.9,11.2,1.3,11.2s.9-1.4,1.3-1.9c.4-.5,.9-1,1.3-1.1h1.3c.4,0,.9,.8,1.3,1.1,.4,.3,.9,.5,1.3,.5s.9-5.4,1.3-5.6c.4-.2,.9-.1,1.3-.3,.4-.2,.9-3.8,1.3-5.4,1.3-4.8,2.6-8.9,4-8.9,.4,0,.9,6.7,1.3,9.8,.4,3,.9,6.5,1.3,8.4,.4,1.8,.9,2.1,1.3,2.7,.4,.7,.9,1.4,1.3,1.4s.9-6.2,1.3-6.2,.9,.1,1.3,.2c.4,.1,.9,.3,1.3,.5" pointer-events="none"/></g></svg>