<?xml version="1.0" encoding="UTF-8"?><svg id="_層_1" xmlns="http://www.w3.org/2000/svg" viewBox="0 0 170.08 85.04"><defs><style>.cls-1{fill:#c1c1c1;font-family:Roboto-Regular, Roboto;font-size:4px;isolation:isolate;}.cls-2{stroke:#c1c1c1;stroke-width:.5px;}.cls-2,.cls-3{fill:none;}.cls-3{stroke:#124e78;stroke-width:1.5px;}</style></defs><g id="_層_2"><g><line class="cls-2" x1="168.85" y1="76.1" x2="10.65" y2="76.1"/><line class="cls-2" x1="168.85" y1="41.7" x2="10.65" y2="41.7"/><line class="cls-2" x1="168.85" y1="7.2" x2="10.65" y2="7.2"/><line class="cls-2" x1="10.85" y1="76.1" x2="10.85" y2="74.6"/><line class="cls-2" x1="26.75" y1="76.1" x2="26.75" y2="74.6"/><line class="cls-2" x1="42.55" y1="76.1" x2="42.55" y2="74.6"/><line class="cls-2" x1="58.35" y1="76.1" x2="58.35" y2="74.6"/><line class="cls-2" x1="74.25" y1="76.1" x2="74.25" y2="74.6"/><line class="cls-2" x1="90.05" y1="76.1" x2="90.05" y2="74.6"/><line class="cls-2" x1="105.85" y1="76.1" x2="105.85" y2="74.6"/><line class="cls-2" x1="121.75" y1="76.1" x2="121.75" y2="74.6"/><line class="cls-2" x1="137.55" y1="76.1" x2="137.55" y2="74.6"/><line class="cls-2" x1="153.35" y1="76.1" x2="153.35" y2="74.6"/><line class="cls-2" x1="168.55" y1="76.1" x2="168.55" y2="74.6"/><text class="cls-1" transform="translate(14.2 80.57)"><tspan x="0" y="0">2013</tspan></text><text class="cls-1" transform="translate(1.66 77.4)"><tspan x="0" y="0">-50%</tspan></text><text class="cls-1" transform="translate(5.01 43.07)"><tspan x="0" y="0">0%</tspan></text><text class="cls-1" transform="translate(.5 8.74)"><tspan x="0" y="0">+50%</tspan></text><text class="cls-1" transform="translate(30.07 80.57)"><tspan x="0" y="0">2014</tspan></text><text class="cls-1" transform="translate(45.94 80.57)"><tspan x="0" y="0">2015</tspan></text><text class="cls-1" transform="translate(61.82 80.57)"><tspan x="0" y="0">2016</tspan></text><text class="cls-1" transform="translate(77.69 80.57)"><tspan x="0" y="0">2017</tspan></text><text class="cls-1" transform="translate(93.56 80.57)"><tspan x="0" y="0">2018</tspan></text><text class="cls-1" transform="translate(109.43 80.57)"><tspan x="0" y="0">2019</tspan></text><text class="cls-1" transform="translate(125.3 80.57)"><tspan x="0" y="0">2020</tspan></text><text class="cls-1" transform="translate(141.17 80.57)"><tspan x="0" y="0">2021</tspan></text><text class="cls-1" transform="translate(157.04 80.57)"><tspan x="0" y="0">2022</tspan></text></g></g><g id="_層_5"><path class="cls-3" d="M11.15,65.1c.4,3.2,.9,6.4,1.3,7.7,.4,1.4,.9,2.1,1.3,2.1s.9-17,1.3-17,.9,2.2,1.3,2.2,.9-.9,1.3-1.3,.9-.4,1.3-1.1c.4-.7,.9-1.2,1.3-3.6,.4-2.4,.9-30.8,1.3-30.8s.9,28.3,1.3,33.8c.4,5.5,.9,8.3,1.3,8.3s.9-3,1.3-3,.9,5.2,1.3,5.2,.9-.2,1.3-.2,.9,.6,1.3,1c.4,.4,.9,1.6,1.3,1.6s.9-10.7,1.3-14c.4-3.2,.9-5.5,1.3-5.5s.9,5.9,1.3,5.9,.9-14.8,1.3-14.8,.9,11.4,1.3,11.4,.9-.2,1.3-.2,.9,13,1.3,13,.9-16.5,1.3-16.5,.9,8.9,1.3,12.3c.4,3.3,.9,7.7,1.3,7.7s.9-2.8,1.3-4.1c.4-1.3,.9-3.6,1.3-3.6h1.3c.4,0,.9-20,1.3-20s.9,16.2,1.3,16.2,.9-18.7,1.3-25c.4-6.3,.9-12.7,1.3-12.7s.9,11.8,1.3,17.6c.4,5.8,.9,14.4,1.3,17.2,.4,2.8,.9,4.2,1.3,4.2s.9-3,1.3-9.1c.4-6.1,.9-31.5,1.3-31.5s.9,15.2,1.3,19.7c.4,4.5,.9,4.2,1.3,7.6,.4,3.3,.9,12.4,1.3,12.4s.9-5.4,1.3-8.3c.4-2.9,.9-9,1.3-9s.9,11,1.3,11,.9-6.2,1.3-13.9c.4-7.7,.9-32.1,1.3-32.1s.9,33.8,1.3,40.1c.4,6.3,.9,6.2,1.3,9.5s.9,10.1,1.3,10.1,.9-9.2,1.3-9.2,.9,3.9,1.3,5.1,.9,1.8,1.3,1.8,.9-1,1.3-2.9,.9-35.1,1.3-35.1,.9,23.4,1.3,23.4,.9-8.1,1.3-8.1,.9,8.8,1.3,8.8,.9-6.3,1.3-6.3,.9,7.3,1.3,8.1,.9,1.1,1.3,1.1,.9-.1,1.3-.1,.9,.9,1.3,2.7c.4,1.8,.9,10.9,1.3,10.9s.9-.1,1.3-.1,.9-.1,1.3-.4,.9-4.8,1.3-8.8,.9-15.2,1.3-15.2,.9,7.7,1.3,7.7,.9-21.2,1.3-21.2,.9,26.8,1.3,30,.9,4.8,1.3,4.8,.9-2.1,1.3-2.5,.9-.2,1.3-.6,.9-3.3,1.3-5.2,.9-6.1,1.3-6.1,.9,7.2,1.3,7.2,.9-1.7,1.3-3,.9-2.7,1.3-5,.9-6.1,1.3-8.7c.4-2.6,.9-7,1.3-7s.9,.6,1.3,1.8,.9,19.2,1.3,21.2,.9,3,1.3,3,.9-9,1.3-9,.9,4.8,1.3,4.8,.9-2.9,1.3-2.9,.9,10,1.3,10,.9-4.6,1.3-4.6,.9,1.1,1.3,1.1,.9-24.3,1.3-24.3,.9,20.4,1.3,20.4,.9-16.9,1.3-16.9,.9,9.2,1.3,11.4c.4,2.2,.9,3.3,1.3,3.3s.9-6.5,1.3-6.5,.9,3.5,1.3,3.5,.9-8.5,1.3-8.5,.9,17.8,1.3,18.9,.9,1.7,1.3,1.7,.9-2,1.3-2,.9,.4,1.3,.4,.9-34.6,1.3-34.6,.9,11.6,1.3,11.6,.9-20.6,1.3-20.6,.9,21.9,1.3,21.9,.9-2.9,1.3-2.9,.9,8.2,1.3,10.8c.4,2.6,.9,3.7,1.3,5s.9,2.9,1.3,2.9,.9-20.3,1.3-20.3,.9,3.4,1.3,5.5c.4,2.1,.9,6.9,1.3,6.9s.9-3.1,1.3-5.8,.9-10.6,1.3-10.6,.9,8.9,1.3,8.9,.9-.6,1.3-1.8,.9-7.4,1.3-7.4,.9,14.8,1.3,14.8,.9-.3,1.3-.8,.9-11,1.3-21.4" pointer-events="none"/></g></svg>