<?xml version="1.0" encoding="UTF-8"?><svg id="_層_1" xmlns="http://www.w3.org/2000/svg" viewBox="0 0 170.08 85.04"><defs><style>.cls-1{fill:#c1c1c1;font-family:Roboto-Regular, Roboto;font-size:4px;isolation:isolate;}.cls-2{stroke:#c1c1c1;stroke-width:.5px;}.cls-2,.cls-3{fill:none;}.cls-3{stroke:#124e78;stroke-width:1.5px;}</style></defs><g id="_層_2"><g><line class="cls-2" x1="168.56" y1="75.98" x2="10.36" y2="75.98"/><line class="cls-2" x1="168.56" y1="41.58" x2="10.36" y2="41.58"/><line class="cls-2" x1="168.56" y1="7.08" x2="10.36" y2="7.08"/><line class="cls-2" x1="10.66" y1="75.98" x2="10.66" y2="74.48"/><line class="cls-2" x1="26.46" y1="75.98" x2="26.46" y2="74.48"/><line class="cls-2" x1="42.26" y1="75.98" x2="42.26" y2="74.48"/><line class="cls-2" x1="58.16" y1="75.98" x2="58.16" y2="74.48"/><line class="cls-2" x1="73.96" y1="75.98" x2="73.96" y2="74.48"/><line class="cls-2" x1="89.76" y1="75.98" x2="89.76" y2="74.48"/><line class="cls-2" x1="105.66" y1="75.98" x2="105.66" y2="74.48"/><line class="cls-2" x1="121.46" y1="75.98" x2="121.46" y2="74.48"/><line class="cls-2" x1="137.26" y1="75.98" x2="137.26" y2="74.48"/><line class="cls-2" x1="153.16" y1="75.98" x2="153.16" y2="74.48"/><line class="cls-2" x1="168.36" y1="75.98" x2="168.36" y2="74.48"/><text class="cls-1" transform="translate(13.94 80.46)"><tspan x="0" y="0">2013</tspan></text><text class="cls-1" transform="translate(1.4 77.29)"><tspan x="0" y="0">-50%</tspan></text><text class="cls-1" transform="translate(4.75 42.96)"><tspan x="0" y="0">0%</tspan></text><text class="cls-1" transform="translate(.23 8.63)"><tspan x="0" y="0">+50%</tspan></text><text class="cls-1" transform="translate(29.81 80.46)"><tspan x="0" y="0">2014</tspan></text><text class="cls-1" transform="translate(45.68 80.46)"><tspan x="0" y="0">2015</tspan></text><text class="cls-1" transform="translate(61.55 80.46)"><tspan x="0" y="0">2016</tspan></text><text class="cls-1" transform="translate(77.42 80.46)"><tspan x="0" y="0">2017</tspan></text><text class="cls-1" transform="translate(93.29 80.46)"><tspan x="0" y="0">2018</tspan></text><text class="cls-1" transform="translate(109.16 80.46)"><tspan x="0" y="0">2019</tspan></text><text class="cls-1" transform="translate(125.03 80.46)"><tspan x="0" y="0">2020</tspan></text><text class="cls-1" transform="translate(140.91 80.46)"><tspan x="0" y="0">2021</tspan></text><text class="cls-1" transform="translate(156.78 80.46)"><tspan x="0" y="0">2022</tspan></text></g></g><g id="_層_5"><path class="cls-3" d="M10.86,53.48c.4,3.9,.9,7.8,1.3,10.7,.4,2.9,.9,6.6,1.3,6.6s.9-4.2,1.3-6.3,.9-4.3,1.3-6.3,.9-4.9,1.3-5.7,.9-.6,1.3-1.2,.9-.9,1.3-2.6c.4-1.8,.9-23.3,1.3-23.3s.9,16.3,1.3,22c.4,5.6,.9,10.1,1.3,11.9,.4,1.8,.9,1.9,1.3,2.7s.9,1.6,1.3,2.3,.9,1.6,1.3,2.2c.4,.7,.9,1.4,1.3,1.7,.4,.4,.9,.6,1.3,.6s.9-2.2,1.3-6.5c.4-4.3,.9-19.4,1.3-19.5s.9-.2,1.3-.2,.9,1.1,1.3,1.1,.9-3.7,1.3-5.5c.4-1.9,.9-5.7,1.3-5.7s.9,20,1.3,20.9c.4,.9,.9,.4,1.3,1.3,.4,.9,.9,3.5,1.3,5.6,.4,2.1,.9,6.8,1.3,6.8h1.3c.4,0,.9-2.6,1.3-4,.4-1.5,.9-2.3,1.3-4.7s.9-8,1.3-10.1c.4-2.1,.9-1.9,1.3-3.2s.9-1.5,1.3-4.5c.4-3,.9-12.6,1.3-13.7,.4-1.2,.9-1.8,1.3-1.8s.9,12.9,1.3,17.5c.4,4.5,.9,9.2,1.3,9.7s.9,.8,1.3,.8,.9-16.4,1.3-16.4,.9,9.5,1.3,10.9,.9,1.1,1.3,2c.4,.9,.9,3.2,1.3,3.2s.9-6.2,1.3-9,.9-8,1.3-8,.9,3.6,1.3,3.6,.9-1.7,1.3-4.7,.9-13.2,1.3-13.2,.9,10.7,1.3,15.1c.4,4.4,.9,8,1.3,11.4,.4,3.3,.9,6.8,1.3,8.7s.9,2,1.3,2.8,.9,1.9,1.3,1.9,.9-.2,1.3-.5,.9-2.6,1.3-6.7c.4-4.1,.9-17.8,1.3-17.8s.9,.6,1.3,.6,.9-.5,1.3-.5,.9,.8,1.3,.8,.9-7.1,1.3-7.1,.9,.7,1.3,2.2,.9,7.3,1.3,10,.9,4.5,1.3,6,.9,1.3,1.3,3.1,.9,6.7,1.3,7.7c.4,1.1,.9,1.6,1.3,1.6s.9-.3,1.3-1,.9-6.9,1.3-9.7,.9-6.8,1.3-7.2c.4-.3,.9-.2,1.3-.5s.9-11.3,1.3-11.3,.9,6,1.3,9c.4,3.1,.9,6.8,1.3,9.4,.4,2.6,.9,5.4,1.3,6.4s.9,1.5,1.3,1.5,.9-.2,1.3-.6c.4-.4,.9-1.5,1.3-3s.9-4.6,1.3-6.2c.4-1.6,.9-1.5,1.3-3.3s.9-5.1,1.3-7.6,.9-5.7,1.3-7.4,.9-1.6,1.3-2.5c.4-1,.9-3.3,1.3-3.3s.9,2.8,1.3,4.8,.9,4.5,1.3,7.2c.4,2.6,.9,6.2,1.3,8.5s.9,5.5,1.3,5.5,.9-1.4,1.3-1.4,.9,6.6,1.3,6.7c.4,.1,.9,.2,1.3,.2s.9-.7,1.3-2.2c.4-1.4,.9-15.7,1.3-15.7s.9,.6,1.3,.6,.9-5.8,1.3-6.2c.4-.4,.9-.2,1.3-.7s.9-7,1.3-7,.9,3.8,1.3,6.5c.4,2.7,.9,9.9,1.3,9.9s.9-3,1.3-3,.9,7.1,1.3,9.7c.4,2.5,.9,5.4,1.3,5.4s.9-2.1,1.3-3.2c.4-1.1,.9-1.1,1.3-3.4,.4-2.3,.9-10.3,1.3-12.4,.4-2.1,.9-1.1,1.3-3.2,.4-2.1,.9-16.6,1.3-17,.4-.4,.9-.3,1.3-.6,.4-.3,.9-.4,1.3-1.3,.4-.8,.9-6.3,1.3-6.3s.9,19,1.3,25.6c.4,6.5,.9,13.6,1.3,13.6s.9-3.1,1.3-4.3c.4-1.3,.9-2.9,1.3-3.2,.4-.3,.9-.1,1.3-.4,.4-.3,.9-.4,1.3-1.3,.4-.9,.9-5.4,1.3-7.7,.4-2.2,.9-4.2,1.3-5.6,.4-1.4,.9-1.1,1.3-2.6,.4-1.5,.9-6.6,1.3-6.6s.9,2.3,1.3,4.5c.4,2.1,.9,8.4,1.3,8.4s.9-.1,1.3-.2" pointer-events="none"/></g></svg>