<?xml version="1.0" encoding="UTF-8"?><svg id="_層_1" xmlns="http://www.w3.org/2000/svg" viewBox="0 0 170.08 85.04"><defs><style>.cls-1{fill:#c1c1c1;font-family:Roboto-Regular, Roboto;font-size:4px;isolation:isolate;}.cls-2{stroke:#c1c1c1;stroke-width:.5px;}.cls-2,.cls-3{fill:none;}.cls-3{stroke:#124e78;stroke-width:1.5px;}</style></defs><g id="_層_2"><g><line class="cls-2" x1="169.15" y1="76.1" x2="10.85" y2="76.1"/><line class="cls-2" x1="169.15" y1="41.7" x2="10.85" y2="41.7"/><line class="cls-2" x1="169.15" y1="7.2" x2="10.85" y2="7.2"/><line class="cls-2" x1="11.15" y1="76.1" x2="11.15" y2="74.6"/><line class="cls-2" x1="26.95" y1="76.1" x2="26.95" y2="74.6"/><line class="cls-2" x1="42.85" y1="76.1" x2="42.85" y2="74.6"/><line class="cls-2" x1="58.65" y1="76.1" x2="58.65" y2="74.6"/><line class="cls-2" x1="74.45" y1="76.1" x2="74.45" y2="74.6"/><line class="cls-2" x1="90.35" y1="76.1" x2="90.35" y2="74.6"/><line class="cls-2" x1="106.15" y1="76.1" x2="106.15" y2="74.6"/><line class="cls-2" x1="121.95" y1="76.1" x2="121.95" y2="74.6"/><line class="cls-2" x1="137.85" y1="76.1" x2="137.85" y2="74.6"/><line class="cls-2" x1="153.65" y1="76.1" x2="153.65" y2="74.6"/><line class="cls-2" x1="168.85" y1="76.1" x2="168.85" y2="74.6"/><text class="cls-1" transform="translate(14.47 80.58)"><tspan x="0" y="0">2013</tspan></text><text class="cls-1" transform="translate(1.93 77.42)"><tspan x="0" y="0">-50%</tspan></text><text class="cls-1" transform="translate(5.28 43.09)"><tspan x="0" y="0">0%</tspan></text><text class="cls-1" transform="translate(.77 8.76)"><tspan x="0" y="0">+50%</tspan></text><text class="cls-1" transform="translate(30.34 80.58)"><tspan x="0" y="0">2014</tspan></text><text class="cls-1" transform="translate(46.21 80.58)"><tspan x="0" y="0">2015</tspan></text><text class="cls-1" transform="translate(62.08 80.58)"><tspan x="0" y="0">2016</tspan></text><text class="cls-1" transform="translate(77.95 80.58)"><tspan x="0" y="0">2017</tspan></text><text class="cls-1" transform="translate(93.82 80.58)"><tspan x="0" y="0">2018</tspan></text><text class="cls-1" transform="translate(109.69 80.58)"><tspan x="0" y="0">2019</tspan></text><text class="cls-1" transform="translate(125.56 80.58)"><tspan x="0" y="0">2020</tspan></text><text class="cls-1" transform="translate(141.44 80.58)"><tspan x="0" y="0">2021</tspan></text><text class="cls-1" transform="translate(157.31 80.58)"><tspan x="0" y="0">2022</tspan></text></g></g><g id="_層_5"><path class="cls-3" d="M10.95,66.6c.4,.6,.9,1.2,1.3,2.6s.9,5.6,1.3,5.6,.9-8.7,1.3-11.2c.4-2.6,.9-4.1,1.3-4.1s.9,2.5,1.3,2.5,.9-3.9,1.3-5.3c.4-1.4,.9-1.1,1.3-3.2s.9-13.6,1.3-13.6,.9,2.2,1.3,6.6c.4,4.4,.9,19.4,1.3,20.9s.9,2.3,1.3,2.3,.9-.8,1.3-2.5c.4-1.7,.9-12.7,1.3-12.7s.9,5.7,1.3,7.9,.9,4.4,1.3,5c.4,.7,.9,1,1.3,1s.9-4.6,1.3-7.3,.9-7.1,1.3-9.2,.9-3.5,1.3-3.5,.9,5.2,1.3,5.2,.9-5.3,1.3-5.3,.9,11.1,1.3,11.1,.9-.2,1.3-.6,.9-1.7,1.3-1.7,.9,.8,1.3,2.5,.9,8.2,1.3,8.2,.9-5.9,1.3-5.9h1.3c.4,0,.9-10.7,1.3-11s.9-.2,1.3-.5,.9-5.4,1.3-8,.9-5.9,1.3-7.9,.9-3.7,1.3-3.7,.9,19.8,1.3,24.1,.9,6.3,1.3,6.3,.9-1.4,1.3-4.2,.9-35.1,1.3-35.1,.9,18.3,1.3,22.2,.9,3.7,1.3,5.7,.9,5.9,1.3,6.4,.9,.8,1.3,.8,.9-8.3,1.3-10.9,.9-2.1,1.3-4.8,.9-6.3,1.3-11.2,.9-18.1,1.3-18.1,.9,8.6,1.3,16.2,.9,27,1.3,29.2c.4,2.2,.9,2.5,1.3,3.3s.9,1.3,1.3,1.3,.9-1.5,1.3-2.8,.9-4.6,1.3-5,.9-.2,1.3-.5c.4-.4,.9-12.1,1.3-15.9,.4-3.8,.9-6.9,1.3-6.9s.9,7.4,1.3,7.4,.9-.2,1.3-.6c.4-.4,.9-2.8,1.3-2.8s.9,4.1,1.3,6.8,.9,9.7,1.3,9.7,.9-1.5,1.3-4.4,.9-18.3,1.3-18.3,.9,17.1,1.3,22.6,.9,10.4,1.3,10.4,.9-.5,1.3-1.5,.9-5.4,1.3-9.6,.9-15.5,1.3-15.5,.9,1.5,1.3,1.5,.9-10.5,1.3-10.5,.9,5.9,1.3,11c.4,5.1,.9,16.4,1.3,19.9s.9,5.3,1.3,5.3,.9-4.7,1.3-6.2,.9-1.9,1.3-2.5,.9-1,1.3-1.6,.9-.9,1.3-2,.9-2.3,1.3-4.8,.9-9.6,1.3-10.2c.4-.7,.9-.3,1.3-1s.9-2.1,1.3-4.3,.9-8.9,1.3-8.9,.9,13,1.3,19c.4,5.9,.9,16.7,1.3,16.7s.9-.5,1.3-.8c.4-.4,.9-.4,1.3-1.3s.9-7.1,1.3-7.1,.9,6.8,1.3,6.8,.9-.2,1.3-.5c.4-.4,.9-1.4,1.3-4.2s.9-14.4,1.3-14.4,.9,5,1.3,5,.9-3.7,1.3-3.7,.9,1,1.3,1,.9-2.7,1.3-2.7,.9,.5,1.3,1.6,.9,8.6,1.3,8.6,.9-6.9,1.3-7.8c.4-.9,.9-1.3,1.3-1.3s.9,19.1,1.3,19.1,.9-.5,1.3-1.4c.4-.9,.9-1.4,1.3-4.1,.4-2.8,.9-38.3,1.3-38.3s.9,13.3,1.3,13.3,.9-21.1,1.3-21.1,.9,13.2,1.3,17.9c.4,4.6,.9,7.8,1.3,10s.9,1.1,1.3,3.2c.4,2.1,.9,9.3,1.3,11.8,.4,2.5,.9,3.8,1.3,3.8s.9-12.9,1.3-12.9,.9,6.4,1.3,6.4,.9-9.7,1.3-9.7,.9,6.8,1.3,6.8,.9-6.9,1.3-7.4c.4-.5,.9-.2,1.3-.7,.4-.5,.9-6.1,1.3-9.5s.9-11.2,1.3-11.2,.9,6.9,1.3,11.2c.4,4.4,.9,15,1.3,15s.9-3.9,1.3-7.8" pointer-events="none"/></g></svg>