<?xml version="1.0" encoding="UTF-8"?><svg id="_層_1" xmlns="http://www.w3.org/2000/svg" viewBox="0 0 170.08 85.04"><defs><style>.cls-1{fill:#c1c1c1;font-family:Roboto-Regular, Roboto;font-size:4px;isolation:isolate;}.cls-2{stroke:#c1c1c1;stroke-width:.5px;}.cls-2,.cls-3{fill:none;}.cls-3{stroke:#124e78;stroke-width:1.5px;}</style></defs><g id="_層_2"><g><line class="cls-2" x1="168.85" y1="77.37" x2="10.65" y2="77.37"/><line class="cls-2" x1="168.85" y1="42.97" x2="10.65" y2="42.97"/><line class="cls-2" x1="168.85" y1="8.47" x2="10.65" y2="8.47"/><line class="cls-2" x1="10.85" y1="77.37" x2="10.85" y2="75.87"/><line class="cls-2" x1="26.75" y1="77.37" x2="26.75" y2="75.87"/><line class="cls-2" x1="42.55" y1="77.37" x2="42.55" y2="75.87"/><line class="cls-2" x1="58.35" y1="77.37" x2="58.35" y2="75.87"/><line class="cls-2" x1="74.25" y1="77.37" x2="74.25" y2="75.87"/><line class="cls-2" x1="90.05" y1="77.37" x2="90.05" y2="75.87"/><line class="cls-2" x1="105.85" y1="77.37" x2="105.85" y2="75.87"/><line class="cls-2" x1="121.75" y1="77.37" x2="121.75" y2="75.87"/><line class="cls-2" x1="137.55" y1="77.37" x2="137.55" y2="75.87"/><line class="cls-2" x1="153.35" y1="77.37" x2="153.35" y2="75.87"/><line class="cls-2" x1="168.55" y1="77.37" x2="168.55" y2="75.87"/><text class="cls-1" transform="translate(14.2 81.83)"><tspan x="0" y="0">2013</tspan></text><text class="cls-1" transform="translate(1.66 78.66)"><tspan x="0" y="0">-50%</tspan></text><text class="cls-1" transform="translate(5.01 44.33)"><tspan x="0" y="0">0%</tspan></text><text class="cls-1" transform="translate(.5 10)"><tspan x="0" y="0">+50%</tspan></text><text class="cls-1" transform="translate(30.07 81.83)"><tspan x="0" y="0">2014</tspan></text><text class="cls-1" transform="translate(45.94 81.83)"><tspan x="0" y="0">2015</tspan></text><text class="cls-1" transform="translate(61.82 81.83)"><tspan x="0" y="0">2016</tspan></text><text class="cls-1" transform="translate(77.69 81.83)"><tspan x="0" y="0">2017</tspan></text><text class="cls-1" transform="translate(93.56 81.83)"><tspan x="0" y="0">2018</tspan></text><text class="cls-1" transform="translate(109.43 81.83)"><tspan x="0" y="0">2019</tspan></text><text class="cls-1" transform="translate(125.3 81.83)"><tspan x="0" y="0">2020</tspan></text><text class="cls-1" transform="translate(141.17 81.83)"><tspan x="0" y="0">2021</tspan></text><text class="cls-1" transform="translate(157.04 81.83)"><tspan x="0" y="0">2022</tspan></text></g></g><g id="_層_5"><path class="cls-3" d="M11.15,67.97c.4,1.5,.9,3.1,1.3,4.3,.4,1.2,.9,2.9,1.3,2.9s.9-1.8,1.3-4.4c.4-2.7,.9-5.8,1.3-11.5,.4-5.7,.9-23,1.3-23s.9,.3,1.3,.8c.4,.5,.9,19.6,1.3,19.6s.9-31.2,1.3-31.2,.9,2.3,1.3,6.9c.4,4.6,.9,17,1.3,23,.4,6,.9,9.9,1.3,13.2,.4,3.3,.9,6.5,1.3,6.5s.9-1.5,1.3-2.6c.4-1,.9-2.5,1.3-3.7,.4-1.2,.9-3.3,1.3-3.4,.4,0,.9,0,1.3-.1,.4,0,.9-8.1,1.3-10.7,.4-2.7,.9-3.5,1.3-5.2,.4-1.7,.9-1.7,1.3-5,.4-3.3,.9-33.1,1.3-33.1s.9,7.7,1.3,15.8c.4,8.1,.9,30.1,1.3,32.6,.4,2.4,.9,2.3,1.3,3.6,.4,1.4,.9,3.2,1.3,4.6,.4,1.4,.9,3.7,1.3,3.8,.4,.1,.9,.1,1.3,.1s.9-4.9,1.3-6.4c.4-1.5,.9-.8,1.3-2.4,.4-1.6,.9-15.3,1.3-15.3s.9,3,1.3,3,.9-10.1,1.3-16c.4-5.9,.9-19.5,1.3-19.5s.9,2.3,1.3,6.8c.4,4.6,.9,18.5,1.3,24.4,.4,5.9,.9,8.2,1.3,10.9,.4,2.8,.9,5.7,1.3,5.7s.9-21.3,1.3-21.3,.9,11.7,1.3,11.7,.9-11.6,1.3-11.6,.9,6,1.3,8.5c.4,2.4,.9,6.2,1.3,6.2s.9-6.2,1.3-9.1c.4-2.9,.9-6.6,1.3-8.3s.9-.9,1.3-2.6,.9-37.3,1.3-37.3,.9,28,1.3,37,.9,12.1,1.3,17.1,.9,12.6,1.3,13.1,.9,.4,1.3,.7,.9,1.3,1.3,1.3,.9-1.6,1.3-3c.4-1.3,.9-1.7,1.3-5s.9-5,1.3-15.1,.9-50.1,1.3-50.1,.9,.5,1.3,.5,.9-6,1.3-6,.9,1.7,1.3,5.1,.9,35.8,1.3,46.2,.9,13.4,1.3,16.2c.4,2.8,.9,4.2,1.3,4.2s.9-5.9,1.3-5.9,.9,7.9,1.3,7.9,.9-.1,1.3-.3,.9-.2,1.3-.7,.9-6.8,1.3-9.2c.4-2.5,.9-5.5,1.3-5.5s.9,.5,1.3,.5,.9-17.7,1.3-17.7,.9,7.6,1.3,12.4,.9,13.4,1.3,16.2c.4,2.8,.9,4.2,1.3,4.2s.9-.4,1.3-1.1,.9-9.9,1.3-9.9,.9,2,1.3,2.1c.4,0,.9,.1,1.3,.1s.9-1.6,1.3-3,.9-2.7,1.3-5.5,.9-6.5,1.3-11.5,.9-12.2,1.3-18.5,.9-19.2,1.3-19.2,.9,10.4,1.3,19.9,.9,35.5,1.3,37.2,.9,1.5,1.3,2.6c.4,1,.9,3.5,1.3,3.5s.9-4.1,1.3-4.1,.9,4.1,1.3,4.1,.9-1.8,1.3-1.8,.9,.1,1.3,.1,.9-18.7,1.3-21.3c.4-2.6,.9-3.9,1.3-3.9s.9,5,1.3,5,.9-2.8,1.3-2.8,.9,6.3,1.3,9,.9,6.4,1.3,7.2,.9,1.2,1.3,1.2,.9-8.3,1.3-8.3,.9,5.9,1.3,8.1,.9,5.1,1.3,5.1,.9-1.7,1.3-2.9c.4-1.2,.9-1.4,1.3-4.2,.4-2.8,.9-20.4,1.3-23.7s.9-2.3,1.3-5,.9-7.7,1.3-11.2,.9-10,1.3-10,.9,14.7,1.3,20.9c.4,6.2,.9,11.6,1.3,16.2s.9,8.5,1.3,11.5,.9,6.4,1.3,6.4,.9-4.6,1.3-7.1c.4-2.4,.9-5.7,1.3-7.6s.9-3.8,1.3-3.8,.9,1.9,1.3,1.9,.9-.2,1.3-.7,.9-3.2,1.3-4.3c.4-1.2,.9-.9,1.3-2.6s.9-29.2,1.3-29.2,.9,12.9,1.3,19,.9,17.6,1.3,17.6,.9-.3,1.3-.6" pointer-events="none"/></g></svg>