<?xml version="1.0" encoding="UTF-8"?><svg id="_層_1" xmlns="http://www.w3.org/2000/svg" viewBox="0 0 170.08 85.04"><defs><style>.cls-1{fill:#c1c1c1;font-family:Roboto-Regular, Roboto;font-size:4px;isolation:isolate;}.cls-2{stroke:#c1c1c1;stroke-width:.5px;}.cls-2,.cls-3{fill:none;}.cls-3{stroke:#124e78;stroke-width:1.5px;}</style></defs><g id="_層_2"><g><line class="cls-2" x1="169.34" y1="77.14" x2="11.14" y2="77.14"/><line class="cls-2" x1="169.34" y1="42.64" x2="11.14" y2="42.64"/><line class="cls-2" x1="169.34" y1="8.24" x2="11.14" y2="8.24"/><line class="cls-2" x1="11.44" y1="77.14" x2="11.44" y2="75.64"/><line class="cls-2" x1="27.24" y1="77.14" x2="27.24" y2="75.64"/><line class="cls-2" x1="43.04" y1="77.14" x2="43.04" y2="75.64"/><line class="cls-2" x1="58.94" y1="77.14" x2="58.94" y2="75.64"/><line class="cls-2" x1="74.74" y1="77.14" x2="74.74" y2="75.64"/><line class="cls-2" x1="90.54" y1="77.14" x2="90.54" y2="75.64"/><line class="cls-2" x1="106.44" y1="77.14" x2="106.44" y2="75.64"/><line class="cls-2" x1="122.24" y1="77.14" x2="122.24" y2="75.64"/><line class="cls-2" x1="138.04" y1="77.14" x2="138.04" y2="75.64"/><line class="cls-2" x1="153.94" y1="77.14" x2="153.94" y2="75.64"/><line class="cls-2" x1="169.14" y1="77.14" x2="169.14" y2="75.64"/><text class="cls-1" transform="translate(14.73 81.58)"><tspan x="0" y="0">2013</tspan></text><text class="cls-1" transform="translate(2.19 78.42)"><tspan x="0" y="0">-50%</tspan></text><text class="cls-1" transform="translate(5.54 44.09)"><tspan x="0" y="0">0%</tspan></text><text class="cls-1" transform="translate(1.03 9.76)"><tspan x="0" y="0">+50%</tspan></text><text class="cls-1" transform="translate(30.6 81.58)"><tspan x="0" y="0">2014</tspan></text><text class="cls-1" transform="translate(46.47 81.58)"><tspan x="0" y="0">2015</tspan></text><text class="cls-1" transform="translate(62.35 81.58)"><tspan x="0" y="0">2016</tspan></text><text class="cls-1" transform="translate(78.22 81.58)"><tspan x="0" y="0">2017</tspan></text><text class="cls-1" transform="translate(94.09 81.58)"><tspan x="0" y="0">2018</tspan></text><text class="cls-1" transform="translate(109.96 81.58)"><tspan x="0" y="0">2019</tspan></text><text class="cls-1" transform="translate(125.83 81.58)"><tspan x="0" y="0">2020</tspan></text><text class="cls-1" transform="translate(141.7 81.58)"><tspan x="0" y="0">2021</tspan></text><text class="cls-1" transform="translate(157.57 81.58)"><tspan x="0" y="0">2022</tspan></text></g></g><g id="_層_5"><path class="cls-3" d="M11.44,46.64c.4-.1,.9-.3,1.3-.4,1.3-.5,2.6-2.3,4-2.3,.4,0,.9,4.5,1.3,6.1,.4,1.5,.9,2.4,1.3,3.2,.4,.8,.9,1.4,1.3,1.4s.9-3.1,1.3-4.3c.9-2.3,1.8-1.2,2.6-3.6,.4-1.2,.9-5.1,1.3-5.1s.9,1.8,1.3,2.9c.4,1.1,.9,4,1.3,4,1.3,0,2.6-14.5,4-14.5,.4,0,.9,10.1,1.3,14.1,.4,4,.9,10,1.3,10s.9-.4,1.3-1.1c.4-.8,.9-4.5,1.3-6.1,.9-3.3,1.8-2.5,2.6-5.1,.4-1.3,.9-4.6,1.3-4.6s.9,6.2,1.3,6.2,.9-.1,1.3-.2c1.3-.5,2.6-9,4-9,.4,0,.9,4,1.3,6.7,.4,2.6,.9,8.2,1.3,9.2,.4,.9,.9,1.4,1.3,1.4s.9-5.1,1.3-5.2c.9-.2,1.8-.1,2.6-.2,.4-.1,.9-6,1.3-8.1s.9-3.6,1.3-4,.9-.5,1.3-.6c1.3-.3,2.6-.5,4-.5,.4,0,.9,3.6,1.3,6.5,.4,2.8,.9,10.5,1.3,10.5s.9-2.4,1.3-3.3c.4-.9,.9-1.3,1.3-1.9,.9-1.2,1.8-1.2,2.6-3.7,.4-1.2,.9-8,1.3-9.7s.9-2.5,1.3-2.5,.9,1.4,1.3,1.8c1.3,1.2,2.6,.6,4,1.8,.4,.4,.9,.5,1.3,1.5,.4,1,.9,9.5,1.3,13,.4,3.5,.9,6.1,1.3,7.9s.9,3.1,1.3,3.1c.9,0,1.8-3.3,2.6-10,.4-3.3,.9-12.7,1.3-12.7s.9,7.1,1.3,7.6c.4,.5,.9,.8,1.3,.8,1.3,0,2.6-4.2,4-4.2,.4,0,.9,.6,1.3,1.9,.4,1.3,.9,9.9,1.3,12.4,.4,2.5,.9,3.7,1.3,3.7s.9-1.4,1.3-2.3c.9-1.9,1.8-3.1,2.6-7.4,.4-2.1,.9-5.3,1.3-7.8,.4-2.5,.9-7.2,1.3-7.2s.9,2,1.3,2c1.3,0,2.6-9,4-9,.4,0,.9,1,1.3,2.9,.4,2,.9,16.4,1.3,19.4s.9,4.4,1.3,4.4,.9-.7,1.3-1.4c.9-1.5,1.8-3.7,2.6-8,.4-2.1,.9-5.5,1.3-7.7,.4-2.1,.9-3.2,1.3-5.2,.4-2,.9-6.8,1.3-6.8,1.3,0,2.6,.3,4,.8,.4,.2,.9,6.3,1.3,8.7,.4,2.4,.9,4.1,1.3,5.6,.4,1.5,.9,3.4,1.3,3.4s.9-.3,1.3-.8c1.3-1.5,2.6-14,4-14,.4,0,.9,4.1,1.3,5.4s.9,2.2,1.3,2.2c1.3,0,2.6-.2,4-.2,.4,0,.9,.2,1.3,.7,.4,.5,.9,6.6,1.3,8.7,.4,2.1,.9,3,1.3,3.9,.4,.9,.9,1.3,1.3,1.3,1.3,0,2.6-3.6,4-10.9,.4-2.4,.9-13.2,1.3-13.2s.9,11.5,1.3,11.5c1.3,0,2.6-.2,4-.7,.4-.2,.9-7.2,1.3-10.3,.4-3.1,.9-8.4,1.3-8.4s.9,11.6,1.3,13.6c.4,2,.9,3,1.3,3,1.3,0,2.6-9.9,4-19.9" pointer-events="none"/></g></svg>