<?xml version="1.0" encoding="UTF-8"?><svg id="_層_1" xmlns="http://www.w3.org/2000/svg" viewBox="0 0 170.08 85.04"><defs><style>.cls-1{fill:#c1c1c1;font-family:Roboto-Regular, Roboto;font-size:4px;isolation:isolate;}.cls-2{stroke:#c1c1c1;stroke-width:.5px;}.cls-2,.cls-3{fill:none;}.cls-3{stroke:#124e78;stroke-width:1.5px;}</style></defs><g id="_層_2"><g><line class="cls-2" x1="169.15" y1="76.8" x2="10.85" y2="76.8"/><line class="cls-2" x1="169.15" y1="42.4" x2="10.85" y2="42.4"/><line class="cls-2" x1="169.15" y1="7.9" x2="10.85" y2="7.9"/><line class="cls-2" x1="11.15" y1="76.8" x2="11.15" y2="75.3"/><line class="cls-2" x1="26.95" y1="76.8" x2="26.95" y2="75.3"/><line class="cls-2" x1="42.85" y1="76.8" x2="42.85" y2="75.3"/><line class="cls-2" x1="58.65" y1="76.8" x2="58.65" y2="75.3"/><line class="cls-2" x1="74.45" y1="76.8" x2="74.45" y2="75.3"/><line class="cls-2" x1="90.35" y1="76.8" x2="90.35" y2="75.3"/><line class="cls-2" x1="106.15" y1="76.8" x2="106.15" y2="75.3"/><line class="cls-2" x1="121.95" y1="76.8" x2="121.95" y2="75.3"/><line class="cls-2" x1="137.85" y1="76.8" x2="137.85" y2="75.3"/><line class="cls-2" x1="153.65" y1="76.8" x2="153.65" y2="75.3"/><line class="cls-2" x1="168.85" y1="76.8" x2="168.85" y2="75.3"/><text class="cls-1" transform="translate(14.47 81.26)"><tspan x="0" y="0">2013</tspan></text><text class="cls-1" transform="translate(1.93 78.1)"><tspan x="0" y="0">-50%</tspan></text><text class="cls-1" transform="translate(5.28 43.77)"><tspan x="0" y="0">0%</tspan></text><text class="cls-1" transform="translate(.77 9.44)"><tspan x="0" y="0">+50%</tspan></text><text class="cls-1" transform="translate(30.34 81.26)"><tspan x="0" y="0">2014</tspan></text><text class="cls-1" transform="translate(46.21 81.26)"><tspan x="0" y="0">2015</tspan></text><text class="cls-1" transform="translate(62.08 81.26)"><tspan x="0" y="0">2016</tspan></text><text class="cls-1" transform="translate(77.95 81.26)"><tspan x="0" y="0">2017</tspan></text><text class="cls-1" transform="translate(93.82 81.26)"><tspan x="0" y="0">2018</tspan></text><text class="cls-1" transform="translate(109.69 81.26)"><tspan x="0" y="0">2019</tspan></text><text class="cls-1" transform="translate(125.56 81.26)"><tspan x="0" y="0">2020</tspan></text><text class="cls-1" transform="translate(141.44 81.26)"><tspan x="0" y="0">2021</tspan></text><text class="cls-1" transform="translate(157.31 81.26)"><tspan x="0" y="0">2022</tspan></text></g></g><g id="_層_5"><path class="cls-3" d="M10.95,56.5c.4,2.4,.9,4.8,1.3,7.4s.9,8.2,1.3,8.2,.9-7.9,1.3-9.3,.9-2.2,1.3-2.2,.9,8,1.3,8,.9-.1,1.3-.4c.4-.2,.9-3,1.3-7.8s.9-21.1,1.3-21.1,.9,10.8,1.3,16,.9,15.4,1.3,15.4,.9-4.2,1.3-5.5,.9-.8,1.3-2.2,.9-4.5,1.3-6.4,.9-5.3,1.3-5.3,.9,9.8,1.3,13.3c.4,3.6,.9,8,1.3,8s.9-7.3,1.3-7.6,.9-.1,1.3-.4,.9-6.6,1.3-6.6,.9,5,1.3,5,.9-5.3,1.3-5.3,.9,7.1,1.3,7.1,.9-6.2,1.3-8.6,.9-5.7,1.3-5.7,.9,4.3,1.3,6.6c.4,2.3,.9,6.9,1.3,7.1s.9,.1,1.3,.4c.4,.2,.9,1.1,1.3,1.1s.9-5.7,1.3-5.7,.9,3.2,1.3,3.2,.9-15.8,1.3-20.9,.9-9.9,1.3-9.9,.9,2.7,1.3,7,.9,15.4,1.3,18.8,.9,5.1,1.3,5.1,.9-4.1,1.3-12.2S58.65,.9,59.05,.9s.9,3.1,1.3,9.4,.9,25.4,1.3,35.9,.9,26.9,1.3,26.9,.9-.9,1.3-2.6c.4-1.8,.9-18.2,1.3-19.4,.4-1.1,.9-.9,1.3-1.7s.9-1,1.3-3,.9-47.2,1.3-47.2,.9,28.8,1.3,40.7c.4,11.9,.9,29.8,1.3,30.6,.4,.9,.9,1.3,1.3,1.3s.9-12,1.3-13.1,.9-1.8,1.3-1.8,.9,.1,1.3,.2,.9,4,1.3,4,.9-15.9,1.3-15.9,.9,3,1.3,4.7,.9,5.7,1.3,5.7,.9-.1,1.3-.2,.9-7.7,1.3-7.7,.9,.1,1.3,.1,.9-.4,1.3-.8,.9-.5,1.3-1.5,.9-20.2,1.3-20.2,.9,12.5,1.3,19.3c.4,6.9,.9,18.2,1.3,21.8,.4,3.7,.9,5.5,1.3,5.5s.9-1.2,1.3-3.7,.9-13.3,1.3-15.6c.4-2.3,.9-1.5,1.3-3.4s.9-8,1.3-8,.9,6.2,1.3,10.2,.9,13.8,1.3,13.8,.9-.2,1.3-.7c.4-.4,.9-3,1.3-5.6s.9-9.8,1.3-9.8,.9,1.4,1.3,2.1,.9,1.7,1.3,2.3,.9,.6,1.3,1,.9,.7,1.3,1.2c.4,.4,.9,1.4,1.3,1.4s.9-7,1.3-11.5,.9-15.5,1.3-15.5,.9,14.7,1.3,19.6c.4,5,.9,10.2,1.3,10.2s.9-11.4,1.3-12c.4-.7,.9-.3,1.3-1s.9-6.3,1.3-6.3,.9,5.3,1.3,8.5c.4,3.3,.9,10,1.3,11.1s.9,1.7,1.3,1.7,.9-11.5,1.3-11.5,.9,4.5,1.3,4.5,.9-4.6,1.3-6.3c.4-1.8,.9-4.4,1.3-4.4s.9,3.5,1.3,4.5,.9,1.7,1.3,1.7,.9-2.3,1.3-4.7,.9-9.8,1.3-9.8,.9,7.9,1.3,11.3c.4,3.5,.9,6.9,1.3,9.4,.4,2.5,.9,5.6,1.3,5.6s.9-1.4,1.3-3.8c.4-2.4,.9-8.8,1.3-10.5,.4-1.7,.9-.8,1.3-2.5,.4-1.7,.9-19.1,1.3-19.1s.9,5.7,1.3,9.4c.4,3.7,.9,12.8,1.3,12.8s.9-5.2,1.3-5.2,.9,2.9,1.3,4.2c.4,1.3,.9,3.8,1.3,3.8s.9-15.5,1.3-16.6c.4-1,.9-1.5,1.3-1.5s.9,1.8,1.3,5.5c.4,3.6,.9,17.2,1.3,17.2s.9-.6,1.3-.8,.9-.1,1.3-.4c.4-.3,.9-6.8,1.3-10.6,.4-3.8,.9-12.4,1.3-12.4s.9,4.4,1.3,7c.4,2.7,.9,9,1.3,9s.9-7.3,1.3-14.5" pointer-events="none"/></g></svg>