<?xml version="1.0" encoding="UTF-8"?><svg id="_層_1" xmlns="http://www.w3.org/2000/svg" viewBox="0 0 170.08 85.04"><defs><style>.cls-1{fill:#c1c1c1;font-family:Roboto-Regular, Roboto;font-size:4px;isolation:isolate;}.cls-2{stroke:#c1c1c1;stroke-width:.5px;}.cls-2,.cls-3{fill:none;}.cls-3{stroke:#124e78;stroke-width:1.5px;}</style></defs><g id="_層_2"><g><line class="cls-2" x1="169.15" y1="77.14" x2="10.85" y2="77.14"/><line class="cls-2" x1="169.15" y1="42.74" x2="10.85" y2="42.74"/><line class="cls-2" x1="169.15" y1="8.24" x2="10.85" y2="8.24"/><line class="cls-2" x1="11.15" y1="77.14" x2="11.15" y2="75.64"/><line class="cls-2" x1="26.95" y1="77.14" x2="26.95" y2="75.64"/><line class="cls-2" x1="42.85" y1="77.14" x2="42.85" y2="75.64"/><line class="cls-2" x1="58.65" y1="77.14" x2="58.65" y2="75.64"/><line class="cls-2" x1="74.45" y1="77.14" x2="74.45" y2="75.64"/><line class="cls-2" x1="90.35" y1="77.14" x2="90.35" y2="75.64"/><line class="cls-2" x1="106.15" y1="77.14" x2="106.15" y2="75.64"/><line class="cls-2" x1="121.95" y1="77.14" x2="121.95" y2="75.64"/><line class="cls-2" x1="137.85" y1="77.14" x2="137.85" y2="75.64"/><line class="cls-2" x1="153.65" y1="77.14" x2="153.65" y2="75.64"/><line class="cls-2" x1="168.85" y1="77.14" x2="168.85" y2="75.64"/><text class="cls-1" transform="translate(14.47 81.59)"><tspan x="0" y="0">2013</tspan></text><text class="cls-1" transform="translate(1.93 78.43)"><tspan x="0" y="0">-50%</tspan></text><text class="cls-1" transform="translate(5.28 44.1)"><tspan x="0" y="0">0%</tspan></text><text class="cls-1" transform="translate(.77 9.77)"><tspan x="0" y="0">+50%</tspan></text><text class="cls-1" transform="translate(30.34 81.59)"><tspan x="0" y="0">2014</tspan></text><text class="cls-1" transform="translate(46.21 81.59)"><tspan x="0" y="0">2015</tspan></text><text class="cls-1" transform="translate(62.08 81.59)"><tspan x="0" y="0">2016</tspan></text><text class="cls-1" transform="translate(77.95 81.59)"><tspan x="0" y="0">2017</tspan></text><text class="cls-1" transform="translate(93.82 81.59)"><tspan x="0" y="0">2018</tspan></text><text class="cls-1" transform="translate(109.69 81.59)"><tspan x="0" y="0">2019</tspan></text><text class="cls-1" transform="translate(125.56 81.59)"><tspan x="0" y="0">2020</tspan></text><text class="cls-1" transform="translate(141.44 81.59)"><tspan x="0" y="0">2021</tspan></text><text class="cls-1" transform="translate(157.31 81.59)"><tspan x="0" y="0">2022</tspan></text></g></g><g id="_層_5"><path class="cls-3" d="M10.95,38.94c.4,6.9,.9,13.9,1.3,18.5s.9,9,1.3,9,.9-9.9,1.3-9.9,.9,3,1.3,4.6,.9,4.7,1.3,4.7,.9-.8,1.3-1.5,.9-.9,1.3-2.6,.9-28.2,1.3-28.2,.9,17.3,1.3,22.5c.4,5.3,.9,9.1,1.3,9.1s.9-9.1,1.3-11.7,.9-4,1.3-4,.9,1.2,1.3,2.1c.4,.8,.9,1,1.3,3s.9,10.1,1.3,10.1,.9-3.1,1.3-4.2,.9-2.3,1.3-2.3,.9,5,1.3,5,.9-9.2,1.3-9.2,.9,7.1,1.3,7.1,.9-6.4,1.3-6.4,.9,10.4,1.3,10.4,.9-16.7,1.3-16.7,.9,.5,1.3,1.6,.9,5.2,1.3,6.7,.9,1.8,1.3,2.4,.9,.5,1.3,1.4,.9,5,1.3,5,.9-12.2,1.3-12.2,.9,8.6,1.3,8.6,.9-11.6,1.3-16.1c.4-4.4,.9-10.5,1.3-10.5s.9,4.9,1.3,8.1,.9,11.1,1.3,11.1,.9-.2,1.3-.5,.9-2.8,1.3-8.3,.9-29.4,1.3-29.4,.9,12.3,1.3,16.5,.9,4.6,1.3,8.9,.9,16.8,1.3,16.8,.9-1.1,1.3-2.2,.9-4.5,1.3-4.5,.9,5.4,1.3,5.4,.9-3.9,1.3-10.4,.9-28.4,1.3-28.4,.9,21.4,1.3,25,.9,3.6,1.3,5.4,.9,5.4,1.3,5.4,.9-4.4,1.3-4.4,.9,2.6,1.3,4.3c.4,1.8,.9,6.3,1.3,6.3s.9-.4,1.3-1.3,.9-22,1.3-22,.9,17.5,1.3,17.5,.9-2.9,1.3-2.9,.9,5.2,1.3,5.2,.9-11,1.3-11,.9,1.4,1.3,1.4,.9-4.1,1.3-4.5,.9-.2,1.3-.6,.9-3.5,1.3-3.5,.9,10.4,1.3,14,.9,5.2,1.3,7.6,.9,6.7,1.3,6.7,.9-4.9,1.3-7.8c.4-2.8,.9-9.2,1.3-9.2s.9,5.2,1.3,5.2,.9-16.7,1.3-16.7,.9,18.2,1.3,20.5,.9,3.4,1.3,3.4,.9-8.1,1.3-8.1,.9,.5,1.3,.5,.9-1.5,1.3-3,.9-5.8,1.3-5.8,.9,9.2,1.3,9.2,.9-1.6,1.3-1.7,.9-.1,1.3-.2,.9-2,1.3-3.6c.4-1.5,.9-5.7,1.3-5.7s.9,.5,1.3,1.6,.9,14,1.3,14,.9-.2,1.3-.6,.9-9.2,1.3-9.8c.4-.7,.9-.3,1.3-1s.9-5.6,1.3-5.6,.9,13.6,1.3,13.6,.9-1.3,1.3-1.3,.9,3.1,1.3,3.1,.9-11.4,1.3-11.4,.9,14.9,1.3,14.9,.9-11.1,1.3-11.1,.9,6,1.3,6,.9-.3,1.3-1,.9-4.5,1.3-6,.9-1,1.3-2.9,.9-16.9,1.3-16.9,.9,13.9,1.3,18c.4,4.1,.9,5.1,1.3,6.5,.4,1.5,.9,1.1,1.3,2.3,.4,1.2,.9,4.9,1.3,4.9s.9-22,1.3-22,.9,6.9,1.3,6.9,.9-17.3,1.3-17.3,.9,19.4,1.3,19.4,.9-.8,1.3-1.2c.4-.4,.9-1.3,1.3-1.3s.9,.6,1.3,.6,.9-6.1,1.3-9.4c.4-3.3,.9-10.2,1.3-10.2s.9,5.5,1.3,7.9c.4,2.4,.9,5.2,1.3,6.4,.4,1.2,.9,1.7,1.3,1.7s.9-2.2,1.3-2.2,.9,8.8,1.3,8.8,.9-.4,1.3-1.3c.4-.8,.9-9,1.3-9s.9,7.2,1.3,7.2,.9-1.1,1.3-3.4c.4-2.3,.9-13,1.3-23.8" pointer-events="none"/></g></svg>