<?xml version="1.0" encoding="UTF-8"?><svg id="_層_1" xmlns="http://www.w3.org/2000/svg" viewBox="0 0 170.08 85.04"><defs><style>.cls-1{fill:#c1c1c1;font-family:Roboto-Regular, Roboto;font-size:4px;isolation:isolate;}.cls-2{stroke:#c1c1c1;stroke-width:.5px;}.cls-2,.cls-3{fill:none;}.cls-3{stroke:#124e78;stroke-width:1.5px;}</style></defs><g id="_層_2"><g><line class="cls-2" x1="168.56" y1="76.9" x2="10.36" y2="76.9"/><line class="cls-2" x1="168.56" y1="42.4" x2="10.36" y2="42.4"/><line class="cls-2" x1="168.56" y1="8" x2="10.36" y2="8"/><line class="cls-2" x1="10.66" y1="76.9" x2="10.66" y2="75.4"/><line class="cls-2" x1="26.46" y1="76.9" x2="26.46" y2="75.4"/><line class="cls-2" x1="42.26" y1="76.9" x2="42.26" y2="75.4"/><line class="cls-2" x1="58.16" y1="76.9" x2="58.16" y2="75.4"/><line class="cls-2" x1="73.96" y1="76.9" x2="73.96" y2="75.4"/><line class="cls-2" x1="89.76" y1="76.9" x2="89.76" y2="75.4"/><line class="cls-2" x1="105.66" y1="76.9" x2="105.66" y2="75.4"/><line class="cls-2" x1="121.46" y1="76.9" x2="121.46" y2="75.4"/><line class="cls-2" x1="137.26" y1="76.9" x2="137.26" y2="75.4"/><line class="cls-2" x1="153.16" y1="76.9" x2="153.16" y2="75.4"/><line class="cls-2" x1="168.36" y1="76.9" x2="168.36" y2="75.4"/><text class="cls-1" transform="translate(13.94 81.34)"><tspan x="0" y="0">2013</tspan></text><text class="cls-1" transform="translate(1.4 78.18)"><tspan x="0" y="0">-50%</tspan></text><text class="cls-1" transform="translate(4.75 43.85)"><tspan x="0" y="0">0%</tspan></text><text class="cls-1" transform="translate(.23 9.52)"><tspan x="0" y="0">+50%</tspan></text><text class="cls-1" transform="translate(29.81 81.34)"><tspan x="0" y="0">2014</tspan></text><text class="cls-1" transform="translate(45.68 81.34)"><tspan x="0" y="0">2015</tspan></text><text class="cls-1" transform="translate(61.55 81.34)"><tspan x="0" y="0">2016</tspan></text><text class="cls-1" transform="translate(77.42 81.34)"><tspan x="0" y="0">2017</tspan></text><text class="cls-1" transform="translate(93.29 81.34)"><tspan x="0" y="0">2018</tspan></text><text class="cls-1" transform="translate(109.16 81.34)"><tspan x="0" y="0">2019</tspan></text><text class="cls-1" transform="translate(125.03 81.34)"><tspan x="0" y="0">2020</tspan></text><text class="cls-1" transform="translate(140.91 81.34)"><tspan x="0" y="0">2021</tspan></text><text class="cls-1" transform="translate(156.78 81.34)"><tspan x="0" y="0">2022</tspan></text></g></g><g id="_層_5"><path class="cls-3" d="M10.86,57.9c.4,.2,.9,.4,1.3,1.1,.4,.7,.9,2.4,1.3,3.1,.4,.6,.9,.9,1.3,.9s.9-.6,1.3-.6,.9,12.4,1.3,15.1,.9,4,1.3,4,.9-8.8,1.3-12.2,.9-7.4,1.3-8.1c.4-.7,.9-.3,1.3-1s.9-4.4,1.3-5.8c.4-1.3,.9-1.2,1.3-2.2,.4-1.1,.9-4.1,1.3-4.1s.9,1.5,1.3,1.5,.9-6.1,1.3-6.1,.9,1.4,1.3,2.4c.4,1,.9,1.2,1.3,3.7s.9,7.8,1.3,11.7c.4,3.9,.9,11.7,1.3,11.7s.9-9.8,1.3-9.8,.9,.8,1.3,1.3c.4,.5,.9,1.1,1.3,1.7,.4,.6,.9,1.8,1.3,1.8s.9,.1,1.3,.1,.9-4.7,1.3-6.4c.4-1.7,.9-3.5,1.3-3.9s.9-.5,1.3-.5,.9,6,1.3,7.8c.4,1.7,.9,1.6,1.3,2.6s.9,2.4,1.3,3.2,.9,1.3,1.3,1.3,.9-8.7,1.3-13.6c.4-4.9,.9-12.2,1.3-15.7,.4-3.6,.9-3.8,1.3-5.7,.4-1.9,.9-5.6,1.3-5.6s.9,4.3,1.3,5.6c.4,1.3,.9,2.1,1.3,2.1s.9-.7,1.3-2.1,.9-9,1.3-9,.9,.9,1.3,2.7c.4,1.8,.9,15.8,1.3,21,.4,5.1,.9,7.5,1.3,9.9s.9,4.3,1.3,4.3,.9-13,1.3-17,.9-6.7,1.3-6.7,.9,3,1.3,3,.9-1.6,1.3-4.9c.4-3.2,.9-12.3,1.3-20s.9-20.2,1.3-26.3,.9-10,1.3-10,.9,14.7,1.3,19.3,.9,2.8,1.3,8,.9,15.4,1.3,23.4,.9,17.6,1.3,24.5,.9,14.2,1.3,16.9c.4,2.8,.9,3.4,1.3,4.2s.9,.6,1.3,1.2,.9,2.4,1.3,2.4,.9-5.3,1.3-7.3,.9-2.8,1.3-4.9,.9-5.6,1.3-7.9c.4-2.3,.9-5.8,1.3-5.8s.9,1.2,1.3,3.6c.4,2.4,.9,7.9,1.3,10.7s.9,4.6,1.3,6.2c.4,1.6,.9,3.1,1.3,3.1s.9-4.8,1.3-5.9c.4-1.2,.9-.6,1.3-1.8s.9-9.5,1.3-9.5,.9,2.3,1.3,2.3,.9-9.8,1.3-9.8,.9,3,1.3,4.4,.9,3.2,1.3,4.1,.9,1.3,1.3,1.7,.9,.7,1.3,.7,.9-5.3,1.3-5.3,.9,3,1.3,3,.9-3.2,1.3-3.2,.9,5.2,1.3,5.2,.9-3.3,1.3-4.3,.9-2,1.3-2,.9,2.9,1.3,4.3,.9,4.3,1.3,4.3,.9-3.4,1.3-4.3c.4-1,.9-1.4,1.3-1.4s.9,1.3,1.3,1.3,.9-6.8,1.3-7.8,.9-1.6,1.3-1.6,.9,.1,1.3,.3,.9,9.4,1.3,12.5,.9,6,1.3,6,.9-4.7,1.3-4.7,.9,2.9,1.3,4.2,.9,3.5,1.3,3.5,.9-.5,1.3-.5,.9,.9,1.3,.9,.9-1.9,1.3-3.1c.4-1.2,.9-3.1,1.3-4.2,.4-1.1,.9-2.4,1.3-2.4s.9,4.6,1.3,4.6,.9-4.1,1.3-4.1,.9,.4,1.3,.4,.9-2.9,1.3-5c.4-2.1,.9-7.8,1.3-7.8s.9,3.3,1.3,4.7c.4,1.4,.9,3.7,1.3,3.7s.9-9.2,1.3-12.2c.4-3,.9-4,1.3-5.8,.4-1.7,.9-2.7,1.3-4.6,.4-1.9,.9-4.9,1.3-6.7,.4-1.8,.9-3.9,1.3-3.9s.9,2.1,1.3,5.2c.4,3.1,.9,10.1,1.3,13.4,.4,3.3,.9,3.7,1.3,6.5,.4,2.7,.9,9,1.3,9.9,.4,1,.9,.5,1.3,1.4,.4,1,.9,3.8,1.3,4.9,.4,1.2,.9,2.1,1.3,2.1s.9-.7,1.3-1c.4-.3,.9-.5,1.3-.7" pointer-events="none"/></g></svg>