<?xml version="1.0" encoding="UTF-8"?><svg id="_層_1" xmlns="http://www.w3.org/2000/svg" viewBox="0 0 170.08 85.04"><defs><style>.cls-1{fill:#c1c1c1;font-family:Roboto-Regular, Roboto;font-size:4px;isolation:isolate;}.cls-2{stroke:#c1c1c1;stroke-width:.5px;}.cls-2,.cls-3{fill:none;}.cls-3{stroke:#124e78;stroke-width:1.5px;}</style></defs><g id="_層_2"><g><line class="cls-2" x1="168.85" y1="76.22" x2="10.65" y2="76.22"/><line class="cls-2" x1="168.85" y1="41.82" x2="10.65" y2="41.82"/><line class="cls-2" x1="168.85" y1="7.32" x2="10.65" y2="7.32"/><line class="cls-2" x1="10.85" y1="76.22" x2="10.85" y2="74.72"/><line class="cls-2" x1="26.75" y1="76.22" x2="26.75" y2="74.72"/><line class="cls-2" x1="42.55" y1="76.22" x2="42.55" y2="74.72"/><line class="cls-2" x1="58.35" y1="76.22" x2="58.35" y2="74.72"/><line class="cls-2" x1="74.25" y1="76.22" x2="74.25" y2="74.72"/><line class="cls-2" x1="90.05" y1="76.22" x2="90.05" y2="74.72"/><line class="cls-2" x1="105.85" y1="76.22" x2="105.85" y2="74.72"/><line class="cls-2" x1="121.75" y1="76.22" x2="121.75" y2="74.72"/><line class="cls-2" x1="137.55" y1="76.22" x2="137.55" y2="74.72"/><line class="cls-2" x1="153.35" y1="76.22" x2="153.35" y2="74.72"/><line class="cls-2" x1="168.55" y1="76.22" x2="168.55" y2="74.72"/><text class="cls-1" transform="translate(14.2 80.69)"><tspan x="0" y="0">2013</tspan></text><text class="cls-1" transform="translate(1.66 77.53)"><tspan x="0" y="0">-50%</tspan></text><text class="cls-1" transform="translate(5.01 43.2)"><tspan x="0" y="0">0%</tspan></text><text class="cls-1" transform="translate(.5 8.87)"><tspan x="0" y="0">+50%</tspan></text><text class="cls-1" transform="translate(30.07 80.69)"><tspan x="0" y="0">2014</tspan></text><text class="cls-1" transform="translate(45.94 80.69)"><tspan x="0" y="0">2015</tspan></text><text class="cls-1" transform="translate(61.82 80.69)"><tspan x="0" y="0">2016</tspan></text><text class="cls-1" transform="translate(77.69 80.69)"><tspan x="0" y="0">2017</tspan></text><text class="cls-1" transform="translate(93.56 80.69)"><tspan x="0" y="0">2018</tspan></text><text class="cls-1" transform="translate(109.43 80.69)"><tspan x="0" y="0">2019</tspan></text><text class="cls-1" transform="translate(125.3 80.69)"><tspan x="0" y="0">2020</tspan></text><text class="cls-1" transform="translate(141.17 80.69)"><tspan x="0" y="0">2021</tspan></text><text class="cls-1" transform="translate(157.04 80.69)"><tspan x="0" y="0">2022</tspan></text></g></g><g id="_層_5"><path class="cls-3" d="M11.15,56.02c.4,2.9,.9,5.9,1.3,8.5,.4,2.7,.9,7.4,1.3,7.4s.9-4.9,1.3-8.3c.4-3.4,.9-12,1.3-12.1,.4-.1,.9-.2,1.3-.2h1.3c.4,0,.9-1.6,1.3-4.8,.4-3.2,.9-14.5,1.3-14.5s.9,1.5,1.3,4.4c.4,3,.9,11.8,1.3,15.7,.4,3.9,.9,5.6,1.3,7.9,.4,2.3,.9,5.1,1.3,6.2,.4,1.1,.9,1.7,1.3,1.7s.9-1,1.3-1.8c.4-.9,.9-2.1,1.3-3.3,.4-1.2,.9-1.9,1.3-4,.4-2,.9-8.2,1.3-8.2s.9,0,1.3,.1c.4,.1,.9,1.4,1.3,1.4s.9-7.7,1.3-10.3c.4-2.6,.9-5.1,1.3-5.1s.9,20.1,1.3,20.1,.9-.2,1.3-.2,.9,.9,1.3,2.6c.4,1.7,.9,7.4,1.3,7.8,.4,.3,.9,.5,1.3,.5s.9-4.2,1.3-6.6c.4-2.4,.9-5.8,1.3-7.9,.4-2.1,.9-4.9,1.3-4.9s.9,4,1.3,4,.9-2.2,1.3-4.2c.4-2,.9-5.9,1.3-7.7,.4-1.7,.9-2.7,1.3-2.7s.9,.8,1.3,2.3c.4,1.5,.9,5.1,1.3,7.9,.4,2.8,.9,8.7,1.3,8.7s.9-10.1,1.3-11.7c.4-1.5,.9-1.3,1.3-2.3,.4-1,.9-3.7,1.3-3.7s.9,3.3,1.3,3.8c.4,.5,.9,.8,1.3,.8s.9-4.9,1.3-4.9,.9,2.5,1.3,2.5,.9-.3,1.3-1,.9-7.4,1.3-7.4,.9,.8,1.3,2.3,.9,8,1.3,12.1,.9,11.8,1.3,12.5c.4,.8,.9,1.1,1.3,1.1s.9,.1,1.3,.1,.9-1.9,1.3-4.5,.9-8.3,1.3-10.9c.4-2.6,.9-4.7,1.3-4.7s.9,2,1.3,2,.9-.6,1.3-.8,.9-.1,1.3-.3,.9-3.3,1.3-4.3c.4-1.1,.9-2,1.3-2s.9,3,1.3,4.9,.9,4.1,1.3,6.1,.9,3.6,1.3,5.4c.4,1.8,.9,5.4,1.3,5.4s.9-.5,1.3-1.2,.9-2.1,1.3-3.2c.4-1.1,.9-2.7,1.3-3.6s.9-1.4,1.3-1.8c.4-.4,.9-.2,1.3-.7s.9-4.1,1.3-4.1,.9,.6,1.3,1.1,.9,.7,1.3,2,.9,7.3,1.3,8,.9,1.1,1.3,1.1,.9-1.1,1.3-1.7c.4-.6,.9-.7,1.3-2,.4-1.4,.9-5,1.3-8.7s.9-13.4,1.3-13.4,.9,.2,1.3,.4,.9,.6,1.3,.6,.9-1.3,1.3-1.3,.9,.5,1.3,1.6,.9,4.4,1.3,7.3c.4,2.9,.9,8.5,1.3,10.4s.9,2,1.3,2.8,.9,1.9,1.3,1.9,.9-4.5,1.3-4.5,.9,5.2,1.3,5.2,.9-2.9,1.3-4.8c.4-1.9,.9-4.5,1.3-6.6s.9-6.2,1.3-6.2,.9,1,1.3,1.1,.9,.1,1.3,.2c.4,.1,.9,.6,1.3,.6s.9-1.3,1.3-1.3,.9,.6,1.3,1.8,.9,5.6,1.3,5.6,.9-3.4,1.3-3.4,.9,9.7,1.3,12.4c.4,2.8,.9,4.1,1.3,4.1s.9-3.6,1.3-5,.9-1.4,1.3-3.6,.9-9.8,1.3-9.8,.9,.9,1.3,.9,.9-2.2,1.3-3.2,.9-2.8,1.3-2.8,.9,2.6,1.3,2.6,.9-9.8,1.3-9.8,.9,5.6,1.3,7.8,.9,5.5,1.3,5.5,.9-1.3,1.3-1.9c.4-.6,.9-.5,1.3-1.6s.9-10.6,1.3-13.7c.4-3.1,.9-4.9,1.3-4.9s.9,1,1.3,1.4,.9,.3,1.3,.7c.4,.5,.9,2.2,1.3,2.2s.9-1.6,1.3-1.7,.9-.2,1.3-.2,.9,11.6,1.3,11.6,.9-1.6,1.3-3.2" pointer-events="none"/></g></svg>