<?xml version="1.0" encoding="UTF-8"?><svg id="_層_1" xmlns="http://www.w3.org/2000/svg" viewBox="0 0 170.08 85.04"><defs><style>.cls-1{fill:#c1c1c1;font-family:Roboto-Regular, Roboto;font-size:4px;isolation:isolate;}.cls-2{stroke:#c1c1c1;stroke-width:.5px;}.cls-2,.cls-3{fill:none;}.cls-3{stroke:#124e78;stroke-width:1.5px;}</style></defs><g id="_層_2"><g><line class="cls-2" x1="168.56" y1="76.1" x2="10.36" y2="76.1"/><line class="cls-2" x1="168.56" y1="41.7" x2="10.36" y2="41.7"/><line class="cls-2" x1="168.56" y1="7.2" x2="10.36" y2="7.2"/><line class="cls-2" x1="10.66" y1="76.1" x2="10.66" y2="74.6"/><line class="cls-2" x1="26.46" y1="76.1" x2="26.46" y2="74.6"/><line class="cls-2" x1="42.26" y1="76.1" x2="42.26" y2="74.6"/><line class="cls-2" x1="58.16" y1="76.1" x2="58.16" y2="74.6"/><line class="cls-2" x1="73.96" y1="76.1" x2="73.96" y2="74.6"/><line class="cls-2" x1="89.76" y1="76.1" x2="89.76" y2="74.6"/><line class="cls-2" x1="105.66" y1="76.1" x2="105.66" y2="74.6"/><line class="cls-2" x1="121.46" y1="76.1" x2="121.46" y2="74.6"/><line class="cls-2" x1="137.26" y1="76.1" x2="137.26" y2="74.6"/><line class="cls-2" x1="153.16" y1="76.1" x2="153.16" y2="74.6"/><line class="cls-2" x1="168.36" y1="76.1" x2="168.36" y2="74.6"/><text class="cls-1" transform="translate(13.94 80.58)"><tspan x="0" y="0">2013</tspan></text><text class="cls-1" transform="translate(1.4 77.42)"><tspan x="0" y="0">-50%</tspan></text><text class="cls-1" transform="translate(4.75 43.09)"><tspan x="0" y="0">0%</tspan></text><text class="cls-1" transform="translate(.23 8.76)"><tspan x="0" y="0">+50%</tspan></text><text class="cls-1" transform="translate(29.81 80.58)"><tspan x="0" y="0">2014</tspan></text><text class="cls-1" transform="translate(45.68 80.58)"><tspan x="0" y="0">2015</tspan></text><text class="cls-1" transform="translate(61.55 80.58)"><tspan x="0" y="0">2016</tspan></text><text class="cls-1" transform="translate(77.42 80.58)"><tspan x="0" y="0">2017</tspan></text><text class="cls-1" transform="translate(93.29 80.58)"><tspan x="0" y="0">2018</tspan></text><text class="cls-1" transform="translate(109.16 80.58)"><tspan x="0" y="0">2019</tspan></text><text class="cls-1" transform="translate(125.03 80.58)"><tspan x="0" y="0">2020</tspan></text><text class="cls-1" transform="translate(140.91 80.58)"><tspan x="0" y="0">2021</tspan></text><text class="cls-1" transform="translate(156.78 80.58)"><tspan x="0" y="0">2022</tspan></text></g></g><g id="_層_5"><path class="cls-3" d="M10.86,68c.4,4.6,.9,9.2,1.3,11,.4,1.9,.9,2.8,1.3,2.8s.9-2.9,1.3-4.9,.9-4.6,1.3-7.3c.4-2.7,.9-8.7,1.3-8.7s.9,4.3,1.3,4.3,.9-.2,1.3-.5,.9-10.9,1.3-14.5c.4-3.5,.9-6.8,1.3-6.8s.9,16.9,1.3,18.8,.9,1,1.3,2.8,.9,5.6,1.3,7.9c.4,2.3,.9,5.9,1.3,5.9s.9-.1,1.3-.2c.4-.2,.9-4.5,1.3-10.9,.4-6.5,.9-19.8,1.3-27.9s.9-20.6,1.3-20.6,.9,4.7,1.3,9.9,.9,21.2,1.3,21.2,.9-9.4,1.3-9.4,.9,8.6,1.3,12.4c.4,3.8,.9,10.4,1.3,10.4s.9-.2,1.3-.2,.9,1.6,1.3,3.9c.4,2.3,.9,9.2,1.3,10s.9,1.2,1.3,1.2,.9-1.9,1.3-3.8,.9-5.9,1.3-7.9c.4-2.1,.9-4.1,1.3-4.4s.9-.2,1.3-.6,1.4-19.4,1.9-25.4c.4-6,.9-10.8,1.3-10.8s.9,11.8,1.3,16c.4,4.1,.9,5.5,1.3,8.9s.9,11.5,1.3,11.5,.9-1.8,1.3-4.8,.9-13.1,1.3-13.1,.9,18.8,1.3,18.8,.9-1.8,1.3-2.6,.9-1.2,1.3-2.4,.9-1.6,1.3-4.9c.4-3.3,.9-11.3,1.3-15.4s.9-5.5,1.3-9.3,.9-7.9,1.3-13.5,.9-19.9,1.3-19.9,.9,33.1,1.3,42.4c.4,9.3,.9,14,1.3,14s.9-12.6,1.3-12.6,.9,10.5,1.3,14.8,.9,11.2,1.3,11.2,.9-11.1,1.3-13,.9-1.3,1.3-2.9,.9-3.2,1.3-6.7,.9-14.5,1.3-14.5,.9,5.3,1.3,5.8c.4,.6,.9,.8,1.3,.8s.9-2.7,1.3-4.1,.9-4,1.3-4,.9,9.5,1.3,14.3,.9,9.2,1.3,14,.9,11.6,1.3,14.9,.9,5.1,1.3,5.1,.9-5.9,1.3-8.8c.4-2.9,.9-6.9,1.3-8.3,.4-1.4,.9-.7,1.3-2.1s.9-4.3,1.3-10.3,.9-19.7,1.3-25.5,.9-9.1,1.3-9.1,.9,6.5,1.3,14.6,.9,30.7,1.3,33.7,.9,2.5,1.3,4.6,.9,7.8,1.3,7.8,.9-3.2,1.3-4.2,.9-1,1.3-2.1,.9-4.2,1.3-4.4,.9-.1,1.3-.3,.9-2.2,1.3-6.5,.9-20,1.3-21.2,.9-.6,1.3-1.9,.9-19.8,1.3-19.8,.9,14.9,1.3,19.1,.9,4.5,1.3,6.4,.9,2.2,1.3,5.1c.4,2.9,.9,9.1,1.3,12.6s.9,6.2,1.3,8.1,.9,3.7,1.3,3.7,.9-.5,1.3-1.4,.9-2.8,1.3-5.2c.4-2.3,.9-6.9,1.3-8.7,.4-1.8,.9-.9,1.3-2.7,.4-1.8,.9-6.3,1.3-11.9,.4-5.6,.9-22,1.3-22s.9,11.8,1.3,16.6c.4,4.8,.9,10.1,1.3,12.5,.4,2.3,.9,3.5,1.3,3.5s.9-2.5,1.3-2.5,.9,8,1.3,10.9c.4,2.9,.9,6.4,1.3,6.4h1.3c.4,0,.9-.4,1.3-1.3,.4-.9,.9-2.8,1.3-8.5,.4-5.7,.9-25.1,1.3-32.6,.4-7.5,.9-10.7,1.3-12.2,.4-1.5,.9-2.2,1.3-2.2s.9,24.7,1.3,24.7,.9-6.4,1.3-6.4,.9,1.1,1.3,3.3c.4,2.2,.9,13.4,1.3,19.1,.4,5.7,.9,13.8,1.3,15.3,.4,1.5,.9,2.2,1.3,2.2s.9-2.2,1.3-3c.4-.8,.9-.6,1.3-1.8,.4-1.2,.9-2.6,1.3-7.9,.4-5.3,.9-24.4,1.3-26.2,.4-1.8,.9-.9,1.3-2.7,.4-1.8,.9-21.6,1.3-28.8,.4-7.2,.9-14.2,1.3-14.2s.9,32.7,1.3,44c.4,11.3,.9,17.5,1.3,23.7" pointer-events="none"/></g></svg>