<?xml version="1.0" encoding="UTF-8"?><svg id="_層_1" xmlns="http://www.w3.org/2000/svg" viewBox="0 0 170.08 85.04"><defs><style>.cls-1{fill:#c1c1c1;font-family:Roboto-Regular, Roboto;font-size:4px;isolation:isolate;}.cls-2{stroke:#c1c1c1;stroke-width:.5px;}.cls-2,.cls-3{fill:none;}.cls-3{stroke:#124e78;stroke-width:1.5px;}</style></defs><g id="_層_2"><g><line class="cls-2" x1="169.64" y1="76.8" x2="11.44" y2="76.8"/><line class="cls-2" x1="169.64" y1="42.4" x2="11.44" y2="42.4"/><line class="cls-2" x1="169.64" y1="7.9" x2="11.44" y2="7.9"/><line class="cls-2" x1="11.64" y1="76.8" x2="11.64" y2="75.3"/><line class="cls-2" x1="27.54" y1="76.8" x2="27.54" y2="75.3"/><line class="cls-2" x1="43.34" y1="76.8" x2="43.34" y2="75.3"/><line class="cls-2" x1="59.14" y1="76.8" x2="59.14" y2="75.3"/><line class="cls-2" x1="75.04" y1="76.8" x2="75.04" y2="75.3"/><line class="cls-2" x1="90.84" y1="76.8" x2="90.84" y2="75.3"/><line class="cls-2" x1="106.64" y1="76.8" x2="106.64" y2="75.3"/><line class="cls-2" x1="122.54" y1="76.8" x2="122.54" y2="75.3"/><line class="cls-2" x1="138.34" y1="76.8" x2="138.34" y2="75.3"/><line class="cls-2" x1="154.14" y1="76.8" x2="154.14" y2="75.3"/><line class="cls-2" x1="169.34" y1="76.8" x2="169.34" y2="75.3"/><text class="cls-1" transform="translate(15 81.26)"><tspan x="0" y="0">2013</tspan></text><text class="cls-1" transform="translate(2.46 78.1)"><tspan x="0" y="0">-50%</tspan></text><text class="cls-1" transform="translate(5.81 43.77)"><tspan x="0" y="0">0%</tspan></text><text class="cls-1" transform="translate(1.3 9.44)"><tspan x="0" y="0">+50%</tspan></text><text class="cls-1" transform="translate(30.87 81.26)"><tspan x="0" y="0">2014</tspan></text><text class="cls-1" transform="translate(46.74 81.26)"><tspan x="0" y="0">2015</tspan></text><text class="cls-1" transform="translate(62.61 81.26)"><tspan x="0" y="0">2016</tspan></text><text class="cls-1" transform="translate(78.48 81.26)"><tspan x="0" y="0">2017</tspan></text><text class="cls-1" transform="translate(94.35 81.26)"><tspan x="0" y="0">2018</tspan></text><text class="cls-1" transform="translate(110.22 81.26)"><tspan x="0" y="0">2019</tspan></text><text class="cls-1" transform="translate(126.09 81.26)"><tspan x="0" y="0">2020</tspan></text><text class="cls-1" transform="translate(141.97 81.26)"><tspan x="0" y="0">2021</tspan></text><text class="cls-1" transform="translate(157.84 81.26)"><tspan x="0" y="0">2022</tspan></text></g></g><g id="_層_5"><path class="cls-3" d="M12.24,77.1c.4-.6,.9-1.3,1.3-1.8,.4-.5,.9-1.1,1.3-1.1s.9,1.4,1.3,1.4,.9-2.4,1.3-5.4,.9-12.4,1.3-12.4,.9,1.2,1.3,1.2,.9-2.9,1.3-4.8c.4-1.9,.9-5.3,1.3-6.8,.4-1.6,.9-2.6,1.3-2.6s.9,1.3,1.3,3.5c.4,2.1,.9,6.7,1.3,9.4,.4,2.7,.9,5.3,1.3,6.9,.4,1.6,.9,2.4,1.3,2.4s.9-.9,1.3-.9,.9,1.9,1.3,1.9,.9-.1,1.3-.2,.9-.8,1.3-1c.4-.3,.9-.2,1.3-.6,.4-.4,.9-6.7,1.3-9.4,.4-2.7,.9-6.5,1.3-6.7,.4-.2,.9-.1,1.3-.3s.9-2.5,1.3-2.5,.9,12.6,1.3,16.6c.4,3.9,.9,7.1,1.3,7.1h1.3c.4,0,.9,.2,1.3,.6s.9,2,1.3,2,.9-1.9,1.3-4.4c.4-2.5,.9-7.9,1.3-10.5,.4-2.6,.9-2.9,1.3-5.2,.4-2.2,.9-6.4,1.3-8.2,.4-1.8,.9-1.7,1.3-2.8,.4-1.1,.9-3.6,1.3-3.6s.9,5.4,1.3,8.3c.4,2.9,.9,6.9,1.3,9.1s.9,3,1.3,3.9,.9,1.4,1.3,1.4,.9-.1,1.3-.2c.4-.1,.9-8.1,1.3-10,.4-1.9,.9-1.5,1.3-2.9,.4-1.4,.9-5.5,1.3-5.5s.9,4.7,1.3,4.7,.9-8.4,1.3-10.8c.4-2.5,.9-2.1,1.3-4.1,.4-2,.9-5.3,1.3-7.7,.4-2.3,.9-6.2,1.3-6.2s.9,1.5,1.3,4.5c.4,3,.9,13.1,1.3,18.9,.4,5.8,.9,13.6,1.3,16,.4,2.4,.9,2.4,1.3,3.6,.4,1.2,.9,3.2,1.3,3.6,.4,.4,.9,.6,1.3,.6s.9-3.2,1.3-5.9c.4-2.6,.9-6.7,1.3-10,.4-3.2,.9-8.8,1.3-9.3s.9-.8,1.3-.8,.9,.2,1.3,.2,.9-.5,1.3-.5,.9,2,1.3,5.4c.4,3.4,.9,13.3,1.3,15,.4,1.8,.9,1.8,1.3,2.6,.4,.8,.9,2.2,1.3,2.2s.9-1,1.3-1,.9,1.5,1.3,1.5,.9-.9,1.3-1.8c.4-1,.9-1.8,1.3-3.9,.4-2.1,.9-5.9,1.3-8.8,.4-2.9,.9-6,1.3-8.4,.4-2.4,.9-6.2,1.3-6.2s.9,4.4,1.3,9c.4,4.6,.9,16.2,1.3,18.5,.4,2.3,.9,3.2,1.3,3.5,.4,.3,.9,.2,1.3,.4,.4,.3,.9,1.1,1.3,1.1s.9-.7,1.3-2.2c.4-1.5,.9-5.8,1.3-8.7,.4-2.9,.9-6.7,1.3-8.5s.9-.9,1.3-2.7,.9-8.2,1.3-8.2,.9,.3,1.3,.3,.9-2.2,1.3-2.2,.9,4,1.3,7.2c.4,3.2,.9,9.2,1.3,12.2,.4,3,.9,4.2,1.3,5.8,.4,1.5,.9,3.5,1.3,3.5s.9-1.5,1.3-1.9c.4-.4,.9-.6,1.3-.7,.4-.1,.9-.1,1.3-.2s.9-.4,1.3-1.3c.4-.8,.9-2.2,1.3-5,.4-2.7,.9-8.9,1.3-11.4,.4-2.4,.9-3.1,1.3-3.6,.4-.6,.9-.8,1.3-.8s.9,3.8,1.3,6.7c.4,2.9,.9,9.4,1.3,10.8,.4,1.4,.9,2.1,1.3,2.1h1.3c.4,0,.9,.5,1.3,.9s.9,1.2,1.3,1.2,.9-.6,1.3-1.8c.4-1.2,.9-5.8,1.3-8.7,.4-2.9,.9-5.6,1.3-8.6,.4-3,.9-7.1,1.3-9.3,.4-2.2,.9-4,1.3-4s.9,.4,1.3,.7c.4,.4,.9,.5,1.3,1.5,.4,1,.9,4.4,1.3,8.3s.9,12,1.3,15.2,.9,4.7,1.3,4.7,.9-2.5,1.3-3.3c.4-.9,.9-.6,1.3-1.8,.4-1.2,.9-4.7,1.3-6.9,.4-2.2,.9-5.4,1.3-6.2,.4-.7,.9-.4,1.3-1.1,.4-.7,.9-1.9,1.3-3.2,.4-1.3,.9-3.5,1.3-4.8,.4-1.3,.9-3.1,1.3-3.1s.9,1.1,1.3,3.3,.9,8.5,1.3,14.8" pointer-events="none"/></g></svg>