<?xml version="1.0" encoding="UTF-8"?><svg id="_層_1" xmlns="http://www.w3.org/2000/svg" viewBox="0 0 170.08 85.04"><defs><style>.cls-1{fill:#c1c1c1;font-family:Roboto-Regular, Roboto;font-size:4px;isolation:isolate;}.cls-2{stroke:#c1c1c1;stroke-width:.5px;}.cls-2,.cls-3{fill:none;}.cls-3{stroke:#124e78;stroke-width:1.5px;}</style></defs><g id="_層_2"><g><line class="cls-2" x1="169.15" y1="75.86" x2="10.85" y2="75.86"/><line class="cls-2" x1="169.15" y1="41.46" x2="10.85" y2="41.46"/><line class="cls-2" x1="169.15" y1="6.96" x2="10.85" y2="6.96"/><line class="cls-2" x1="11.15" y1="75.86" x2="11.15" y2="74.36"/><line class="cls-2" x1="26.95" y1="75.86" x2="26.95" y2="74.36"/><line class="cls-2" x1="42.85" y1="75.86" x2="42.85" y2="74.36"/><line class="cls-2" x1="58.65" y1="75.86" x2="58.65" y2="74.36"/><line class="cls-2" x1="74.45" y1="75.86" x2="74.45" y2="74.36"/><line class="cls-2" x1="90.35" y1="75.86" x2="90.35" y2="74.36"/><line class="cls-2" x1="106.15" y1="75.86" x2="106.15" y2="74.36"/><line class="cls-2" x1="121.95" y1="75.86" x2="121.95" y2="74.36"/><line class="cls-2" x1="137.85" y1="75.86" x2="137.85" y2="74.36"/><line class="cls-2" x1="153.65" y1="75.86" x2="153.65" y2="74.36"/><line class="cls-2" x1="168.85" y1="75.86" x2="168.85" y2="74.36"/><text class="cls-1" transform="translate(14.47 80.33)"><tspan x="0" y="0">2013</tspan></text><text class="cls-1" transform="translate(1.93 77.17)"><tspan x="0" y="0">-50%</tspan></text><text class="cls-1" transform="translate(5.28 42.84)"><tspan x="0" y="0">0%</tspan></text><text class="cls-1" transform="translate(.77 8.51)"><tspan x="0" y="0">+50%</tspan></text><text class="cls-1" transform="translate(30.34 80.33)"><tspan x="0" y="0">2014</tspan></text><text class="cls-1" transform="translate(46.21 80.33)"><tspan x="0" y="0">2015</tspan></text><text class="cls-1" transform="translate(62.08 80.33)"><tspan x="0" y="0">2016</tspan></text><text class="cls-1" transform="translate(77.95 80.33)"><tspan x="0" y="0">2017</tspan></text><text class="cls-1" transform="translate(93.82 80.33)"><tspan x="0" y="0">2018</tspan></text><text class="cls-1" transform="translate(109.69 80.33)"><tspan x="0" y="0">2019</tspan></text><text class="cls-1" transform="translate(125.56 80.33)"><tspan x="0" y="0">2020</tspan></text><text class="cls-1" transform="translate(141.44 80.33)"><tspan x="0" y="0">2021</tspan></text><text class="cls-1" transform="translate(157.31 80.33)"><tspan x="0" y="0">2022</tspan></text></g></g><g id="_層_5"><path class="cls-3" d="M10.95,58.96c.4,6.7,.9,13.3,1.3,17.4,.4,4,.9,6.8,1.3,6.8s.9-9,1.3-12.6,.9-6.2,1.3-8.5c.4-2.4,.9-5.8,1.3-5.8s.9,.7,1.3,.7,.9-.5,1.3-1.5,.9-30.1,1.3-30.1,.9,15.5,1.3,23.2c.4,7.8,.9,23.4,1.3,23.4s.9-1.2,1.3-1.2,.9,1.7,1.3,2.9c.4,1.2,.9,4.3,1.3,4.3s.9-.8,1.3-2.4,.9-7.9,1.3-7.9,.9,1,1.3,1,.9-12.8,1.3-12.8,.9,.4,1.3,.4,.9-15.7,1.3-15.7,.9,9.9,1.3,11,.9,.5,1.3,1.6,.9,18.9,1.3,18.9,.9-7.5,1.3-7.5,.9,1.5,1.3,3.6,.9,9.1,1.3,9.1,.9-1,1.3-2.9,.9-11.4,1.3-11.4,.9,2.4,1.3,2.4,.9-21.1,1.3-21.1,.9,8.8,1.3,8.8,.9-7.6,1.3-11.9c.4-4.4,.9-14.2,1.3-14.2s.9,11.1,1.3,16.6c.4,5.5,.9,12.6,1.3,16.4s.9,5.6,1.3,6.7,.9,1.7,1.3,1.7,.9-30.3,1.3-30.3,.9,.5,1.3,1.6c.4,1.1,.9,3.4,1.3,5.8s.9,8.5,1.3,8.5,.9-3.3,1.3-6.2c.4-2.9,.9-8,1.3-10.9s.9-6.6,1.3-6.6,.9,1.8,1.3,1.8,.9-24.1,1.3-24.1,.9,12.8,1.3,22.5c.4,9.8,.9,30.3,1.3,36.2s.9,8.8,1.3,8.8,.9-3.9,1.3-3.9h1.3c.4,0,.9-.1,1.3-.2,.4-.2,.9-3.3,1.3-8.2,.4-4.9,.9-18.8,1.3-21.1s.9-2.6,1.3-3.6c.4-.9,.9-2,1.3-2s.9,.3,1.3,.9c.4,.6,.9,3,1.3,5.7s.9,10.5,1.3,10.5,.9-1.4,1.3-1.4,.9,8.7,1.3,8.7,.9-.8,1.3-.8,.9,8.7,1.3,8.7,.9-3.2,1.3-3.2,.9,1.8,1.3,1.8,.9-6,1.3-9.1,.9-7.4,1.3-9.6c.4-2.3,.9-1.9,1.3-3.9,.4-2.1,.9-8.4,1.3-8.4s.9,12,1.3,17.7,.9,14.6,1.3,16.3,.9,2.5,1.3,2.5,.9-4,1.3-6.8c.4-2.9,.9-10.3,1.3-10.4s.9-.2,1.3-.2,.9,.9,1.3,.9,.9-.6,1.3-1.8c.4-1.2,.9-5.7,1.3-8.2s.9-4.6,1.3-6.6,.9-4.2,1.3-5.6,.9-2.8,1.3-2.8,.9,14.8,1.3,20.1,.9,11.7,1.3,11.7,.9-6,1.3-6,.9,5.7,1.3,5.7,.9-3,1.3-3,.9,5.7,1.3,6.2,.9,.7,1.3,.7,.9-2.6,1.3-7.7c.4-5.2,.9-24.2,1.3-24.2s.9,7.8,1.3,7.8,.9-1.7,1.3-2.5c.4-.7,.9-1.9,1.3-1.9s.9,1.2,1.3,2.3c.4,1.2,.9,2.8,1.3,4.6,.4,1.7,.9,5.9,1.3,5.9s.9-5.2,1.3-5.2,.9,20.8,1.3,22.4c.4,1.6,.9,2.4,1.3,2.4s.9-9.7,1.3-11c.4-1.3,.9-.7,1.3-2,.4-1.3,.9-16.8,1.3-19.6,.4-2.9,.9-1.4,1.3-4.3,.4-2.9,.9-23.4,1.3-23.4s.9,11.4,1.3,16.7c.4,5.3,.9,15.3,1.3,15.3s.9-1.3,1.3-1.3,.9,4.6,1.3,7.9c.4,3.3,.9,11.9,1.3,11.9s.9-3,1.3-5.1c.4-2.2,.9-5.4,1.3-7.9,.4-2.5,.9-6.9,1.3-6.9s.9,2.6,1.3,2.6,.9-8.4,1.3-9.9c.4-1.5,.9-1.5,1.3-2.2,.4-.7,.9-.9,1.3-1.7,.4-.9,.9-3.4,1.3-3.4s.9,6.6,1.3,9.4c.4,2.8,.9,7.2,1.3,7.2s.9-2.8,1.3-5.5" pointer-events="none"/></g></svg>