<?xml version="1.0" encoding="UTF-8"?><svg id="_層_1" xmlns="http://www.w3.org/2000/svg" viewBox="0 0 170.08 85.04"><defs><style>.cls-1{fill:#c1c1c1;font-family:Roboto-Regular, Roboto;font-size:4px;isolation:isolate;}.cls-2{stroke:#c1c1c1;stroke-width:.5px;}.cls-2,.cls-3{fill:none;}.cls-3{stroke:#124e78;stroke-width:1.5px;}</style></defs><g id="_層_2"><g><line class="cls-2" x1="169.34" y1="77.04" x2="11.14" y2="77.04"/><line class="cls-2" x1="169.34" y1="42.64" x2="11.14" y2="42.64"/><line class="cls-2" x1="169.34" y1="8.14" x2="11.14" y2="8.14"/><line class="cls-2" x1="11.44" y1="77.04" x2="11.44" y2="75.54"/><line class="cls-2" x1="27.24" y1="77.04" x2="27.24" y2="75.54"/><line class="cls-2" x1="43.04" y1="77.04" x2="43.04" y2="75.54"/><line class="cls-2" x1="58.94" y1="77.04" x2="58.94" y2="75.54"/><line class="cls-2" x1="74.74" y1="77.04" x2="74.74" y2="75.54"/><line class="cls-2" x1="90.54" y1="77.04" x2="90.54" y2="75.54"/><line class="cls-2" x1="106.44" y1="77.04" x2="106.44" y2="75.54"/><line class="cls-2" x1="122.24" y1="77.04" x2="122.24" y2="75.54"/><line class="cls-2" x1="138.04" y1="77.04" x2="138.04" y2="75.54"/><line class="cls-2" x1="153.94" y1="77.04" x2="153.94" y2="75.54"/><line class="cls-2" x1="169.14" y1="77.04" x2="169.14" y2="75.54"/><text class="cls-1" transform="translate(14.73 81.5)"><tspan x="0" y="0">2013</tspan></text><text class="cls-1" transform="translate(2.19 78.34)"><tspan x="0" y="0">-50%</tspan></text><text class="cls-1" transform="translate(5.54 44)"><tspan x="0" y="0">0%</tspan></text><text class="cls-1" transform="translate(1.03 9.67)"><tspan x="0" y="0">+50%</tspan></text><text class="cls-1" transform="translate(30.6 81.5)"><tspan x="0" y="0">2014</tspan></text><text class="cls-1" transform="translate(46.47 81.5)"><tspan x="0" y="0">2015</tspan></text><text class="cls-1" transform="translate(62.35 81.5)"><tspan x="0" y="0">2016</tspan></text><text class="cls-1" transform="translate(78.22 81.5)"><tspan x="0" y="0">2017</tspan></text><text class="cls-1" transform="translate(94.09 81.5)"><tspan x="0" y="0">2018</tspan></text><text class="cls-1" transform="translate(109.96 81.5)"><tspan x="0" y="0">2019</tspan></text><text class="cls-1" transform="translate(125.83 81.5)"><tspan x="0" y="0">2020</tspan></text><text class="cls-1" transform="translate(141.7 81.5)"><tspan x="0" y="0">2021</tspan></text><text class="cls-1" transform="translate(157.57 81.5)"><tspan x="0" y="0">2022</tspan></text></g></g><g id="_層_5"><path class="cls-3" d="M11.34,65.04c.4,3.5,.9,7,1.3,8.6,.4,1.6,.9,2.4,1.3,2.4s.9-16.7,1.3-16.7,.9,2,1.3,2,.9-.6,1.3-.9c.4-.2,.9-.1,1.3-.4s.9-1.3,1.3-3.9c.4-2.6,.9-31.8,1.3-31.8s.9,29.2,1.3,35.1c.4,5.9,.9,8.8,1.3,8.8s.9-4.3,1.3-4.3,.9,5.8,1.3,5.8,.9-1.6,1.3-1.6,.9,.5,1.3,.8c.4,.4,.9,1.4,1.3,1.4s.9-7.4,1.3-10.5c.4-3.1,.9-7.8,1.3-7.8s.9,5.3,1.3,5.3,.9-16.6,1.3-16.6,.9,12.6,1.3,12.6,.9-.1,1.3-.1,.9,13.1,1.3,13.1,.9-16.2,1.3-16.2,.9,7.9,1.3,11c.4,3.1,.9,7.7,1.3,7.7s.9-2.6,1.3-3.7,.9-3.1,1.3-3.1,.9,1.8,1.3,1.8,.9-22.3,1.3-22.3,.9,15.9,1.3,15.9,.9-15.7,1.3-22c.4-6.3,.9-16,1.3-16s.9,10.3,1.3,16.4c.4,6.1,.9,17.1,1.3,20.1,.4,2.9,.9,4.4,1.3,4.4s.9-3.3,1.3-9.9c.4-6.6,.9-31.8,1.3-31.8s.9,19.2,1.3,22.3c.4,3.2,.9,1.7,1.3,4.8,.4,3.1,.9,13.8,1.3,13.8s.9-5.3,1.3-8.3c.4-2.9,.9-9.3,1.3-9.3s.9,9.2,1.3,9.2,.9-3.3,1.3-9.9c.4-6.6,.9-34.3,1.3-34.3s.9,31.5,1.3,38.9c.4,7.4,.9,7.6,1.3,11,.4,3.4,.9,9.5,1.3,9.5s.9-8.1,1.3-8.1,.9,5.8,1.3,6.1c.4,.3,.9,.4,1.3,.4s.9-1.2,1.3-3.6c.4-2.4,.9-31,1.3-31s.9,20.3,1.3,20.3,.9-6.3,1.3-6.3,.9,7.6,1.3,7.6,.9-7.2,1.3-7.2,.9,5.3,1.3,7c.4,1.7,.9,3.3,1.3,3.3s.9-1.1,1.3-1.1,.9,.5,1.3,1.5c.4,1,.9,11,1.3,11s.9-.4,1.3-.4h1.3c.4,0,.9-4.9,1.3-8.6,.4-3.7,.9-13.5,1.3-13.5s.9,6.2,1.3,6.2,.9-19.1,1.3-19.1,.9,26,1.3,28.6c.4,2.6,.9,4,1.3,4s.9-2.9,1.3-2.9,.9,1,1.3,1,.9-3.4,1.3-5.7c.4-2.2,.9-7.8,1.3-7.8s.9,7.4,1.3,7.4,.9-.4,1.3-1.2,.9-4.3,1.3-6.1c.4-1.8,.9-2.2,1.3-4.7,.4-2.5,.9-10.2,1.3-10.2s.9,1.6,1.3,4.9c.4,3.2,.9,18.6,1.3,19.8,.4,1.1,.9,1.7,1.3,1.7s.9-9.1,1.3-9.1,.9,3.7,1.3,3.7,.9-2.2,1.3-2.2,.9,10.2,1.3,10.2,.9-4.6,1.3-4.6,.9,1,1.3,1,.9-20.9,1.3-20.9,.9,17.6,1.3,17.6,.9-15.7,1.3-15.7,.9,7.9,1.3,10.4c.4,2.5,.9,4.8,1.3,4.8s.9-6.6,1.3-6.6,.9,2.2,1.3,2.2,.9-8,1.3-8,.9,17.6,1.3,17.7c.4,.1,.9,.2,1.3,.2s.9-3.3,1.3-3.3,.9,1.9,1.3,1.9,.9-29.9,1.3-29.9,.9,12.3,1.3,12.3,.9-19.9,1.3-19.9,.9,19.4,1.3,19.4,.9-1.2,1.3-1.2,.9,6.8,1.3,9.2c.4,2.3,.9,3.4,1.3,4.7,.4,1.4,.9,3.5,1.3,3.5s.9-18,1.3-18,.9,2.3,1.3,4c.4,1.7,.9,6.2,1.3,6.2s.9-.7,1.3-2.2c.4-1.5,.9-9.3,1.3-9.3s.9,5.5,1.3,5.5,.9-3.1,1.3-4.4c.4-1.3,.9-3.6,1.3-3.6s.9,10.6,1.3,10.6,.9-.1,1.3-.4c.4-.3,.9-9.3,1.3-18.3" pointer-events="none"/></g></svg>