<?xml version="1.0" encoding="UTF-8"?><svg id="_層_1" xmlns="http://www.w3.org/2000/svg" viewBox="0 0 170.08 85.04"><defs><style>.cls-1{fill:#c1c1c1;font-family:Roboto-Regular, Roboto;font-size:4px;isolation:isolate;}.cls-2{stroke:#c1c1c1;stroke-width:.5px;}.cls-2,.cls-3{fill:none;}.cls-3{stroke:#124e78;stroke-width:1.5px;}</style></defs><g id="_層_2"><g><line class="cls-2" x1="169.34" y1="77.37" x2="11.14" y2="77.37"/><line class="cls-2" x1="169.34" y1="42.97" x2="11.14" y2="42.97"/><line class="cls-2" x1="169.34" y1="8.47" x2="11.14" y2="8.47"/><line class="cls-2" x1="11.44" y1="77.37" x2="11.44" y2="75.87"/><line class="cls-2" x1="27.24" y1="77.37" x2="27.24" y2="75.87"/><line class="cls-2" x1="43.04" y1="77.37" x2="43.04" y2="75.87"/><line class="cls-2" x1="58.94" y1="77.37" x2="58.94" y2="75.87"/><line class="cls-2" x1="74.74" y1="77.37" x2="74.74" y2="75.87"/><line class="cls-2" x1="90.54" y1="77.37" x2="90.54" y2="75.87"/><line class="cls-2" x1="106.44" y1="77.37" x2="106.44" y2="75.87"/><line class="cls-2" x1="122.24" y1="77.37" x2="122.24" y2="75.87"/><line class="cls-2" x1="138.04" y1="77.37" x2="138.04" y2="75.87"/><line class="cls-2" x1="153.94" y1="77.37" x2="153.94" y2="75.87"/><line class="cls-2" x1="169.14" y1="77.37" x2="169.14" y2="75.87"/><text class="cls-1" transform="translate(14.73 81.83)"><tspan x="0" y="0">2013</tspan></text><text class="cls-1" transform="translate(2.19 78.66)"><tspan x="0" y="0">-50%</tspan></text><text class="cls-1" transform="translate(5.54 44.33)"><tspan x="0" y="0">0%</tspan></text><text class="cls-1" transform="translate(1.03 10)"><tspan x="0" y="0">+50%</tspan></text><text class="cls-1" transform="translate(30.6 81.83)"><tspan x="0" y="0">2014</tspan></text><text class="cls-1" transform="translate(46.47 81.83)"><tspan x="0" y="0">2015</tspan></text><text class="cls-1" transform="translate(62.35 81.83)"><tspan x="0" y="0">2016</tspan></text><text class="cls-1" transform="translate(78.22 81.83)"><tspan x="0" y="0">2017</tspan></text><text class="cls-1" transform="translate(94.09 81.83)"><tspan x="0" y="0">2018</tspan></text><text class="cls-1" transform="translate(109.96 81.83)"><tspan x="0" y="0">2019</tspan></text><text class="cls-1" transform="translate(125.83 81.83)"><tspan x="0" y="0">2020</tspan></text><text class="cls-1" transform="translate(141.7 81.83)"><tspan x="0" y="0">2021</tspan></text><text class="cls-1" transform="translate(157.57 81.83)"><tspan x="0" y="0">2022</tspan></text></g></g><g id="_層_5"><path class="cls-3" d="M11.34,83.47c.4-.1,.9-.2,1.3-.2s.9,.4,1.3,.4,.9-2.7,1.3-4.7c.4-2,.9-3.1,1.3-7.3s.9-13.1,1.3-18.3,.9-12.6,1.3-12.6,.9,16,1.3,16,.9-8.1,1.3-11.1c.4-3,.9-7,1.3-7s.9,.8,1.3,2.3c.4,1.5,.9,14.9,1.3,20.6,.4,5.6,.9,10.1,1.3,13.2,.4,3.1,.9,5.2,1.3,5.2s.9-1.1,1.3-1.1,.9,.1,1.3,.1,.9-.5,1.3-1.6c.4-1.1,.9-2.6,1.3-4.9,.4-2.3,.9-6.1,1.3-9.1,.4-2.9,.9-8.1,1.3-8.4,.4-.4,.9-.2,1.3-.6,.4-.4,.9-17,1.3-17s.9,2,1.3,6.1c.4,4.1,.9,19.5,1.3,23.4,.4,4,.9,4.2,1.3,6,.4,1.8,.9,4.7,1.3,4.7s.9-.6,1.3-.7,.9-.1,1.3-.2c.4-.1,.9-2.1,1.3-5.5,.4-3.5,.9-11,1.3-15.4,.4-4.4,.9-7.7,1.3-10.8,.4-3.1,.9-7.8,1.3-7.8s.9,.8,1.3,.8,.9-5.1,1.3-5.1,.9,3,1.3,7.7c.4,4.7,.9,16.7,1.3,20.2s.9,5.3,1.3,5.3,.9-10.8,1.3-12.5c.4-1.6,.9-1,1.3-2.5,.4-1.5,.9-5,1.3-6.5,.4-1.5,.9-2.4,1.3-2.4s.9,6,1.3,8.4c.4,2.4,.9,6,1.3,6s.9-.8,1.3-2.3c.4-1.5,.9-3,1.3-6.9,.4-3.9,.9-9.4,1.3-16.4s.9-25.7,1.3-25.7,.9,5,1.3,14.6,.9,34.6,1.3,43.1c.4,8.5,.9,9.8,1.3,12.7,.4,2.9,.9,4.9,1.3,4.9s.9-.1,1.3-.4c.4-.3,.9-1.1,1.3-3.3,.4-2.2,.9-11.8,1.3-18.7,.4-6.9,.9-17.3,1.3-22.8,.4-5.5,.9-10.3,1.3-10.3s.9,14.1,1.3,15.4c.4,1.3,.9,1.9,1.3,1.9s.9-8.5,1.3-8.5,.9,3.4,1.3,8.5c.4,5,.9,21,1.3,21.6,.4,.7,.9,.3,1.3,1,.4,.7,.9,6.7,1.3,6.7s.9-2.8,1.3-2.8c.4-.1,.9,0,1.3-.1,.4-.1,.9-.5,1.3-1.5,.4-1,.9-3.4,1.3-6s.9-6.5,1.3-9.7c.4-3.2,.9-6.2,1.3-9.4,.4-3.1,.9-9.3,1.3-9.3s.9,7.2,1.3,14.1c.4,6.9,.9,22.9,1.3,27.5,.4,4.6,.9,6.9,1.3,6.9s.9-1.5,1.3-3c.4-1.5,.9-3.3,1.3-5.9,.4-2.5,.9-4.2,1.3-9.3,.4-5.1,.9-18.5,1.3-21.4,.4-2.8,.9-1.4,1.3-4.3,.4-2.8,.9-26,1.3-26s.9,10.1,1.3,14.9c.4,4.8,.9,13.9,1.3,13.9s.9-4.6,1.3-4.6,.9,12.8,1.3,17.9c.4,5.1,.9,10.2,1.3,12.7,.4,2.4,.9,3.6,1.3,3.6s.9-6,1.3-6,.9,1.3,1.3,1.7c.4,.5,.9,1.1,1.3,1.2s.9,.1,1.3,.1,.9-4.3,1.3-6.8c.4-2.5,.9-6.2,1.3-8,.4-1.8,.9-1.3,1.3-2.9,.4-1.5,.9-4.3,1.3-6.2,.4-1.9,.9-3.7,1.3-5.2,.4-1.6,.9-4.1,1.3-4.1s.9,21.8,1.3,21.8,.9-4.2,1.3-4.2,.9,6.3,1.3,8.5c.4,2.2,.9,3.5,1.3,4.8,.4,1.3,.9,3.2,1.3,3.2s.9-.6,1.3-1.8c.4-1.2,.9-13.3,1.3-17.7,.4-4.4,.9-4.5,1.3-8.8,.4-4.3,.9-15.7,1.3-16.8,.4-1.1,.9-.5,1.3-1.6,.4-1.1,.9-11,1.3-11s.9,8.7,1.3,13.6c.4,4.9,.9,9.1,1.3,15.6s.9,22.9,1.3,23.3c.4,.4,.9,.6,1.3,.6s.9-2.8,1.3-4.8c.4-1.9,.9-3.4,1.3-6.9,.4-3.5,.9-13.9,1.3-13.9s.9,3.5,1.3,3.5,.9-2.4,1.3-2.4,.9,5.1,1.3,5.1,.9-1.5,1.3-3.5c.4-2,.9-8.6,1.3-8.6s.9,5.5,1.3,9,.9,7.9,1.3,12.3" pointer-events="none"/></g></svg>