<?xml version="1.0" encoding="UTF-8"?><svg id="_層_1" xmlns="http://www.w3.org/2000/svg" viewBox="0 0 170.08 85.04"><defs><style>.cls-1{fill:#c1c1c1;font-family:Roboto-Regular, Roboto;font-size:4px;isolation:isolate;}.cls-2{stroke:#c1c1c1;stroke-width:.5px;}.cls-2,.cls-3{fill:none;}.cls-3{stroke:#124e78;stroke-width:1.5px;}</style></defs><g id="_層_2"><g><line class="cls-2" x1="168.85" y1="77.14" x2="10.65" y2="77.14"/><line class="cls-2" x1="168.85" y1="42.64" x2="10.65" y2="42.64"/><line class="cls-2" x1="168.85" y1="8.24" x2="10.65" y2="8.24"/><line class="cls-2" x1="10.85" y1="77.14" x2="10.85" y2="75.64"/><line class="cls-2" x1="26.75" y1="77.14" x2="26.75" y2="75.64"/><line class="cls-2" x1="42.55" y1="77.14" x2="42.55" y2="75.64"/><line class="cls-2" x1="58.35" y1="77.14" x2="58.35" y2="75.64"/><line class="cls-2" x1="74.25" y1="77.14" x2="74.25" y2="75.64"/><line class="cls-2" x1="90.05" y1="77.14" x2="90.05" y2="75.64"/><line class="cls-2" x1="105.85" y1="77.14" x2="105.85" y2="75.64"/><line class="cls-2" x1="121.75" y1="77.14" x2="121.75" y2="75.64"/><line class="cls-2" x1="137.55" y1="77.14" x2="137.55" y2="75.64"/><line class="cls-2" x1="153.35" y1="77.14" x2="153.35" y2="75.64"/><line class="cls-2" x1="168.55" y1="77.14" x2="168.55" y2="75.64"/><text class="cls-1" transform="translate(14.2 81.58)"><tspan x="0" y="0">2013</tspan></text><text class="cls-1" transform="translate(1.66 78.41)"><tspan x="0" y="0">-50%</tspan></text><text class="cls-1" transform="translate(5.01 44.08)"><tspan x="0" y="0">0%</tspan></text><text class="cls-1" transform="translate(.5 9.75)"><tspan x="0" y="0">+50%</tspan></text><text class="cls-1" transform="translate(30.07 81.58)"><tspan x="0" y="0">2014</tspan></text><text class="cls-1" transform="translate(45.94 81.58)"><tspan x="0" y="0">2015</tspan></text><text class="cls-1" transform="translate(61.82 81.58)"><tspan x="0" y="0">2016</tspan></text><text class="cls-1" transform="translate(77.69 81.58)"><tspan x="0" y="0">2017</tspan></text><text class="cls-1" transform="translate(93.56 81.58)"><tspan x="0" y="0">2018</tspan></text><text class="cls-1" transform="translate(109.43 81.58)"><tspan x="0" y="0">2019</tspan></text><text class="cls-1" transform="translate(125.3 81.58)"><tspan x="0" y="0">2020</tspan></text><text class="cls-1" transform="translate(141.17 81.58)"><tspan x="0" y="0">2021</tspan></text><text class="cls-1" transform="translate(157.04 81.58)"><tspan x="0" y="0">2022</tspan></text></g></g><g id="_層_5"><path class="cls-3" d="M11.15,50.54C11.55,25.24,12.05-.16,12.45-.16s.9,50.7,1.3,50.7h1.3c.4,0,.9-.1,1.3-.4,.4-.3,.9-8.9,1.3-8.9s.9,8.3,1.3,8.3h1.3c.4,0,.9-6.6,1.3-6.6s.9,6.6,1.3,6.6h2.6c.4,0,.9-51.3,1.3-51.3s.9,51.8,1.3,51.8h2.6c.4,0,.9-.5,1.3-1.6,.4-1.1,.9-5,1.3-5s.9,6.1,1.3,6.1h1.3c.4,0,.9-8.2,1.3-8.2s.9,8.2,1.3,8.2h1.3c.4,0,.9-.6,1.3-.6h1.3c.4,0,.9-55.7,1.3-55.7s.9,55.7,1.3,55.7h1.3c.4,0,.9-.7,1.3-1.6,.4-.8,.9-3.5,1.3-3.5s.9,4.9,1.3,4.9h1.3c.4,0,.9-7.5,1.3-7.5s.9,7.5,1.3,7.5h2.6c.4,0,.9-.1,1.3-.2,.4-.1,.9-53.6,1.3-53.6s.9,53.5,1.3,53.5h1.3c.4,0,.9-.7,1.3-1.8,.4-1.1,.9-4.7,1.3-4.7s.9,6.4,1.3,6.4h1.3c.4,0,.9-8.3,1.3-8.3s.9,8.3,1.3,8.3h2.6c.4,0,.9-45.8,1.3-45.8s.9,45.8,1.3,45.8,.9-.1,1.3-.1h1.3c.4,0,.9-5.7,1.3-5.7s.9,5.7,1.3,5.7h2.6c.4,0,.9-.1,1.3-.2,.4-.1,.9-8.8,1.3-8.8s.9,8.8,1.3,8.8h1.3c.4,0,.9-.1,1.3-.2,.4-.1,.9-35.2,1.3-35.2s.9,35.1,1.3,35.1h1.3c.4,0,.9-.3,1.3-.9s.9-4.4,1.3-4.4,.9,5.3,1.3,5.3h1.3c.4,0,.9-6.1,1.3-6.1s.9,6.1,1.3,6.1h3.9c.4,0,.9-40.8,1.3-40.8s.9,40.8,1.3,40.8h1.3c.4,0,.9-.1,1.3-.2,.4-.1,.9-5,1.3-5s.9,5.3,1.3,5.3,.9,0,1.3-.1,.9-6.4,1.3-6.4,.9,6.3,1.3,6.3h1.3c.4,0,.9,0,1.3-.1,.4,0,.9-40.1,1.3-40.1s.9,40.1,1.3,40.1,.9,.1,1.3,.1h1.3c.4,0,.9,0,1.3-.1s.9-5.6,1.3-5.6,.9,5.8,1.3,5.8h2.6c.4,0,.9-7.2,1.3-7.2s.9,7.2,1.3,7.2h2.6c.4,0,.9-43.7,1.3-43.7s.9,43.7,1.3,43.7h1.3c.4,0,.9,0,1.3-.1,.4,0,.9-3.8,1.3-3.8s.9,3.9,1.3,3.9h1.3c.4,0,.9-6,1.3-6s.9,6,1.3,6h2.6c.4,0,.9-43.1,1.3-43.1s.9,42.6,1.3,42.6h3.9c.4,0,.9-5.7,1.3-5.7s.9,5.5,1.3,5.5,.9-.1,1.3-.4,.9-5.8,1.3-5.8,.9,5.6,1.3,5.6h2.6" pointer-events="none"/></g></svg>