<?xml version="1.0" encoding="UTF-8"?><svg id="_層_1" xmlns="http://www.w3.org/2000/svg" viewBox="0 0 170.08 85.04"><defs><style>.cls-1{fill:#c1c1c1;font-family:Roboto-Regular, Roboto;font-size:4px;isolation:isolate;}.cls-2{stroke:#c1c1c1;stroke-width:.5px;}.cls-2,.cls-3{fill:none;}.cls-3{stroke:#124e78;stroke-width:1.5px;}</style></defs><g id="_層_2"><g><line class="cls-2" x1="169.34" y1="76.33" x2="11.14" y2="76.33"/><line class="cls-2" x1="169.34" y1="41.93" x2="11.14" y2="41.93"/><line class="cls-2" x1="169.34" y1="7.43" x2="11.14" y2="7.43"/><line class="cls-2" x1="11.44" y1="76.33" x2="11.44" y2="74.83"/><line class="cls-2" x1="27.24" y1="76.33" x2="27.24" y2="74.83"/><line class="cls-2" x1="43.04" y1="76.33" x2="43.04" y2="74.83"/><line class="cls-2" x1="58.94" y1="76.33" x2="58.94" y2="74.83"/><line class="cls-2" x1="74.74" y1="76.33" x2="74.74" y2="74.83"/><line class="cls-2" x1="90.54" y1="76.33" x2="90.54" y2="74.83"/><line class="cls-2" x1="106.44" y1="76.33" x2="106.44" y2="74.83"/><line class="cls-2" x1="122.24" y1="76.33" x2="122.24" y2="74.83"/><line class="cls-2" x1="138.04" y1="76.33" x2="138.04" y2="74.83"/><line class="cls-2" x1="153.94" y1="76.33" x2="153.94" y2="74.83"/><line class="cls-2" x1="169.14" y1="76.33" x2="169.14" y2="74.83"/><text class="cls-1" transform="translate(14.73 80.82)"><tspan x="0" y="0">2013</tspan></text><text class="cls-1" transform="translate(2.19 77.65)"><tspan x="0" y="0">-50%</tspan></text><text class="cls-1" transform="translate(5.54 43.32)"><tspan x="0" y="0">0%</tspan></text><text class="cls-1" transform="translate(1.03 8.99)"><tspan x="0" y="0">+50%</tspan></text><text class="cls-1" transform="translate(30.6 80.82)"><tspan x="0" y="0">2014</tspan></text><text class="cls-1" transform="translate(46.47 80.82)"><tspan x="0" y="0">2015</tspan></text><text class="cls-1" transform="translate(62.35 80.82)"><tspan x="0" y="0">2016</tspan></text><text class="cls-1" transform="translate(78.22 80.82)"><tspan x="0" y="0">2017</tspan></text><text class="cls-1" transform="translate(94.09 80.82)"><tspan x="0" y="0">2018</tspan></text><text class="cls-1" transform="translate(109.96 80.82)"><tspan x="0" y="0">2019</tspan></text><text class="cls-1" transform="translate(125.83 80.82)"><tspan x="0" y="0">2020</tspan></text><text class="cls-1" transform="translate(141.7 80.82)"><tspan x="0" y="0">2021</tspan></text><text class="cls-1" transform="translate(157.57 80.82)"><tspan x="0" y="0">2022</tspan></text></g></g><g id="_層_5"><path class="cls-3" d="M11.34,70.63c.4,5.2,.9,10.4,1.3,11.9,.4,1.5,.9,2.3,1.3,2.3s.9-9.8,1.3-14.1c.4-4.4,.9-8.3,1.3-12.1s.9-7.2,1.3-10.4,.9-6.8,1.3-8.6c.4-1.8,.9-1,1.3-2.7,.4-1.7,.9-7.5,1.3-7.5s.9,10.4,1.3,17.4c.4,7.1,.9,23.9,1.3,25,.4,1.1,.9,.6,1.3,1.7,.4,1,.9,4.3,1.3,4.6,.4,.2,.9,.1,1.3,.4,.4,.2,.9,2.2,1.3,2.2s.9-.7,1.3-2c.4-1.3,.9-7.5,1.3-13.6s.9-23.4,1.3-23.4c.4-.1,.9,0,1.3-.1,.4-.1,.9-9.4,1.3-9.4s.9,4.7,1.3,6.7c.4,2,.9,1.8,1.3,5.5,.4,3.7,.9,24.2,1.3,24.2s.9-1.8,1.3-1.8,.9,5.1,1.3,7.3c.4,2.2,.9,5.8,1.3,5.8s.9-.2,1.3-.7c.4-.4,.9-4.3,1.3-6.7,.4-2.5,.9-2.7,1.3-8,.4-5.3,.9-24.4,1.3-24.4s.9,4.5,1.3,4.5,.9-12,1.3-15.9c.4-3.9,.9-7.7,1.3-7.7s.9,3.6,1.3,10c.4,6.4,.9,22.6,1.3,28.3,.4,5.7,.9,8.6,1.3,8.6s.9-.3,1.3-.9c.4-.6,.9-23,1.3-23s.9,14.3,1.3,14.3,.9-.4,1.3-1.3c.4-.9,.9-3.1,1.3-5.6,.4-2.5,.9-4.3,1.3-9.4,.4-5.1,.9-21.1,1.3-21.1s.9,7.2,1.3,7.2,.9-.9,1.3-2.8c.4-1.8,.9-25.4,1.3-25.4s.9,31.6,1.3,42.3,.9,16.6,1.3,21.9,.9,10.2,1.3,10.2,.9-.3,1.3-.3,.9,2.1,1.3,2.1,.9-.7,1.3-2.1c.4-1.4,.9-7.1,1.3-15,.4-7.9,.9-29.4,1.3-32.2,.4-2.8,.9-3.1,1.3-4.2,.4-1.1,.9-2.3,1.3-2.3s.9,3.9,1.3,4.5,.9,.3,1.3,1,.9,13.5,1.3,19c.4,5.5,.9,10.5,1.3,13.9,.4,3.5,.9,5.2,1.3,7,.4,1.8,.9,2.2,1.3,3.8,.4,1.6,.9,5.6,1.3,5.6s.9-.9,1.3-2.6c.4-1.8,.9-4,1.3-8.9,.4-4.9,.9-14.2,1.3-20.5,.4-6.3,.9-17.2,1.3-17.2s.9,10.1,1.3,10.1,.9-5.3,1.3-5.3,.9,2.2,1.3,6.5c.4,4.4,.9,22.5,1.3,26.5,.4,4,.9,4.5,1.3,5.9,.4,1.5,.9,2.8,1.3,2.8h1.3c.4,0,.9-3.7,1.3-5.4,.4-1.7,.9-1.6,1.3-4.8,.4-3.2,.9-9.4,1.3-15.7s.9-19.6,1.3-21.8,.9-1.9,1.3-3.3c.4-1.4,.9-3.2,1.3-5.2,.4-2,.9-6.9,1.3-6.9s.9,18.8,1.3,27.7c.4,8.9,.9,23.7,1.3,25.7,.4,2,.9,2.2,1.3,3,.4,.8,.9,1.8,1.3,1.8s.9-1.9,1.3-1.9,.9,9.4,1.3,9.4,.9-7,1.3-9.7c.4-2.8,.9-2.3,1.3-6.8s.9-44.9,1.3-44.9,.9,9.7,1.3,9.7,.9-.6,1.3-.6,.9,2.4,1.3,4.3c.4,1.8,.9,2.8,1.3,6.8,.4,4,.9,12.9,1.3,17.1,.4,4.2,.9,8.3,1.3,8.3s.9-.3,1.3-.3,.9,14,1.3,14,.9-1.9,1.3-2.8,.9-.8,1.3-2.3,.9-3.8,1.3-11.5c.4-7.7,.9-28.2,1.3-36.6,.4-8.4,.9-10.3,1.3-13.7,.4-3.4,.9-6.9,1.3-6.9s.9,13.2,1.3,18.1c.4,4.9,.9,6.5,1.3,11.3,.4,4.7,.9,11.3,1.3,17.2,.4,5.8,.9,13.8,1.3,17.8,.4,4,.9,6.4,1.3,6.4s.9-6.4,1.3-8.4,.9-2.7,1.3-3.7c.4-1.1,.9-.9,1.3-2.6,.4-1.7,.9-7.5,1.3-15.7,.4-8.3,.9-25.6,1.3-33.9,.4-8.2,.9-15.5,1.3-15.5s.9,16.6,1.3,16.6,.9-9.5,1.3-9.5,.9,16.6,1.3,25.3,.9,27.1,1.3,27.1,.9-2,1.3-4" pointer-events="none"/><path class="cls-3" d="M11.34,182.33c.4,.5,.9,1,1.3,2.1,.4,1.1,.9,4.3,1.3,4.3s.9-.3,1.3-.7c.4-.4,.9-.6,1.3-1.7,.4-1.2,.9-3.8,1.3-9.6,.4-5.8,.9-25.1,1.3-25.1s.9,8.6,1.3,8.6,.9-25.1,1.3-25.1,.9,8.9,1.3,14.2c.4,5.3,.9,13.2,1.3,17.7,.4,4.5,.9,6.5,1.3,9.1,.4,2.6,.9,4.9,1.3,6.5,.4,1.6,.9,2.4,1.3,3.1,.4,.7,.9,.9,1.3,1.2s.9,.7,1.3,.7,.9-1.8,1.3-2.9c.4-1.1,.9-2.8,1.3-3.7,.4-.9,.9-.5,1.3-1.6,.4-1.1,.9-8.4,1.3-12,.4-3.6,.9-8.9,1.3-9.7,.4-.8,.9-1.2,1.3-1.2s.9,3.3,1.3,5.5c.4,2.2,.9,4.9,1.3,7.7,.4,2.8,.9,6.8,1.3,9,.4,2.2,.9,3.3,1.3,4.3,.4,1,.9,1.2,1.3,1.5s.9,.7,1.3,.7,.9-.2,1.3-.7c.4-.5,.9-8.8,1.3-12.9,.4-4.1,.9-4.2,1.3-11.8,.4-7.6,.9-33.6,1.3-33.8,.4-.2,.9-.3,1.3-.3s.9,1.8,1.3,5.5c.4,3.6,.9,13.5,1.3,17.4,.4,3.9,.9,5.8,1.3,5.8s.9-7.3,1.3-11.3,.9-12.5,1.3-12.5,.9,6.3,1.3,10.9c.4,4.6,.9,11.5,1.3,16.5,.4,5,.9,10.5,1.3,13.6,.4,3.1,.9,5,1.3,5s.9-.3,1.3-.8c.4-.5,.9-.8,1.3-2.4,.4-1.6,.9-4.6,1.3-13.9,.4-9.3,.9-62.2,1.3-62.2s.9,29.7,1.3,39c.4,9.3,.9,11.9,1.3,16.9,.4,5,.9,9.5,1.3,12.9,.4,3.4,.9,5.4,1.3,7.3,.4,2,.9,3.1,1.3,4.4,.4,1.3,.9,2.4,1.3,3.2,.4,.8,.9,1.9,1.3,1.9s.9-3.8,1.3-8.4c.4-4.6,.9-11,1.3-19.3,.4-8.3,.9-22.7,1.3-30.6s.9-16.7,1.3-16.7,.9,10.1,1.3,14.4c.4,4.3,.9,5.7,1.3,11.5,.4,5.8,.9,17.7,1.3,23.5,.4,5.8,.9,8.9,1.3,11.5,.4,2.6,.9,2.9,1.3,4.3,.4,1.4,.9,4.1,1.3,4.2s.9,.2,1.3,.2,.9-.6,1.3-1.8c.4-1.2,.9-4,1.3-6.9,.4-2.9,.9-10.5,1.3-10.5s.9,4.9,1.3,4.9,.9-5.6,1.3-5.6,.9,.2,1.3,.7c.4,.4,.9,6.1,1.3,8.5,.4,2.5,.9,4.7,1.3,6.3,.4,1.5,.9,3,1.3,3s.9-1.8,1.3-2.6c.4-.8,.9-1.8,1.3-2,.4-.1,.9-.2,1.3-.2s.9,.8,1.3,1,.9,.3,1.3,.3,.9-.7,1.3-2c.4-1.3,.9-25.5,1.3-43.6,.4-18.1,.9-65.1,1.3-65.1s.9,3.6,1.3,7c.4,3.4,.9,6.6,1.3,13.3,.4,6.7,.9,15.9,1.3,27.1,.4,11.2,.9,33.1,1.3,40.2,.4,7.1,.9,7.7,1.3,10.6,.4,2.9,.9,5.3,1.3,7,.4,1.7,.9,2.1,1.3,3.1s.9,3.3,1.3,3.3,.9-1.9,1.3-5.8c.4-3.9,.9-11.4,1.3-18.5,.4-7.1,.9-24.3,1.3-24.3s.9,5.1,1.3,10.8c.4,5.7,.9,19.3,1.3,23.4,.4,4.1,.9,4.5,1.3,6.1,.4,1.6,.9,3.2,1.3,3.5,.4,.3,.9,.3,1.3,.4s.9,.2,1.3,.4c.4,.1,.9,.2,1.3,.4s.9,.6,1.3,.9,.9,.8,1.3,.8,.9-5.6,1.3-8c.4-2.4,.9-2.2,1.3-6.6,.4-4.4,.9-34.6,1.3-48.3,.4-13.8,.9-28.7,1.3-34.3,.4-5.6,.9-8.4,1.3-8.4s.9,2.1,1.3,6.2c.4,4.1,.9,49.9,1.3,64.4s.9,21.3,1.3,22.5c.4,1.2,.9,1.8,1.3,1.8s.9-.2,1.3-.2,.9,.8,1.3,1.1c.4,.3,.9,.7,1.3,.7s.9-1.1,1.3-1.1,.9,.7,1.3,.7,.9-3.9,1.3-11.7c.4-7.8,.9-46,1.3-46s.9,9.2,1.3,14.1,.9,10.8,1.3,15c.4,4.2,.9,7.3,1.3,10.4" pointer-events="none"/></g></svg>