<?xml version="1.0" encoding="UTF-8"?><svg id="_層_1" xmlns="http://www.w3.org/2000/svg" viewBox="0 0 170.08 85.04"><defs><style>.cls-1{fill:#c1c1c1;font-family:Roboto-Regular, Roboto;font-size:4px;isolation:isolate;}.cls-2{stroke:#c1c1c1;stroke-width:.5px;}.cls-2,.cls-3{fill:none;}.cls-3{stroke:#124e78;stroke-width:1.5px;}</style></defs><g id="_層_2"><g><line class="cls-2" x1="168.85" y1="77.14" x2="10.65" y2="77.14"/><line class="cls-2" x1="168.85" y1="42.64" x2="10.65" y2="42.64"/><line class="cls-2" x1="168.85" y1="8.24" x2="10.65" y2="8.24"/><line class="cls-2" x1="10.85" y1="77.14" x2="10.85" y2="75.64"/><line class="cls-2" x1="26.75" y1="77.14" x2="26.75" y2="75.64"/><line class="cls-2" x1="42.55" y1="77.14" x2="42.55" y2="75.64"/><line class="cls-2" x1="58.35" y1="77.14" x2="58.35" y2="75.64"/><line class="cls-2" x1="74.25" y1="77.14" x2="74.25" y2="75.64"/><line class="cls-2" x1="90.05" y1="77.14" x2="90.05" y2="75.64"/><line class="cls-2" x1="105.85" y1="77.14" x2="105.85" y2="75.64"/><line class="cls-2" x1="121.75" y1="77.14" x2="121.75" y2="75.64"/><line class="cls-2" x1="137.55" y1="77.14" x2="137.55" y2="75.64"/><line class="cls-2" x1="153.35" y1="77.14" x2="153.35" y2="75.64"/><line class="cls-2" x1="168.55" y1="77.14" x2="168.55" y2="75.64"/><text class="cls-1" transform="translate(14.2 81.58)"><tspan x="0" y="0">2013</tspan></text><text class="cls-1" transform="translate(1.66 78.42)"><tspan x="0" y="0">-50%</tspan></text><text class="cls-1" transform="translate(5.01 44.09)"><tspan x="0" y="0">0%</tspan></text><text class="cls-1" transform="translate(.5 9.76)"><tspan x="0" y="0">+50%</tspan></text><text class="cls-1" transform="translate(30.07 81.58)"><tspan x="0" y="0">2014</tspan></text><text class="cls-1" transform="translate(45.94 81.58)"><tspan x="0" y="0">2015</tspan></text><text class="cls-1" transform="translate(61.82 81.58)"><tspan x="0" y="0">2016</tspan></text><text class="cls-1" transform="translate(77.69 81.58)"><tspan x="0" y="0">2017</tspan></text><text class="cls-1" transform="translate(93.56 81.58)"><tspan x="0" y="0">2018</tspan></text><text class="cls-1" transform="translate(109.43 81.58)"><tspan x="0" y="0">2019</tspan></text><text class="cls-1" transform="translate(125.3 81.58)"><tspan x="0" y="0">2020</tspan></text><text class="cls-1" transform="translate(141.17 81.58)"><tspan x="0" y="0">2021</tspan></text><text class="cls-1" transform="translate(157.04 81.58)"><tspan x="0" y="0">2022</tspan></text></g></g><g id="_層_5"><path class="cls-3" d="M11.25,56.74c.4,.7,.9,1.3,1.3,2.4,.4,1.1,.9,4.1,1.3,4.1s.9-2.5,1.3-2.5,.9,.2,1.3,.5c.4,.3,.9,1.4,1.3,1.4s.9-1.9,1.3-3.2c.4-1.3,.9-1.6,1.3-4.7,.4-3.1,.9-22.5,1.3-22.5s.9,1.6,1.3,3.2,.9,3.8,1.3,6.4c.4,2.7,.9,8.5,1.3,9.6,.4,1.1,.9,1.1,1.3,1.7,.4,.5,.9,1.5,1.3,1.5s.9-2.9,1.3-3.3c.4-.4,.9-.5,1.3-.5s.9,2.2,1.3,3.4c.4,1.3,.9,4.1,1.3,4.1s.9-.1,1.3-.2c.4-.2,.9-3.7,1.3-4,.4-.3,.9-.2,1.3-.5,.4-.3,.9-3.8,1.3-3.8s.9,1.9,1.3,2.7c.4,.8,.9,1.9,1.3,2.1,.4,.2,.9,.3,1.3,.3s.9-2.6,1.3-2.8c.4-.3,.9-.2,1.3-.4,.4-.2,.9-.9,1.3-.9s.9,5.6,1.3,5.6,.9-.3,1.3-.3,.9,1.9,1.3,1.9,.9-8.4,1.3-12.5c.4-4.1,.9-9.8,1.3-12.1,.4-2.3,.9-3.4,1.3-3.4s.9,8.7,1.3,12.5c.4,3.8,.9,9.4,1.3,10.2,.4,.8,.9,1.1,1.3,1.1s.9-6.7,1.3-8.2c.4-1.4,.9-.8,1.3-2.1,.4-1.4,.9-6,1.3-6s.9,9.1,1.3,12.3c.4,3.2,.9,7,1.3,7s.9-1.3,1.3-2.2c.4-.8,.9-1.7,1.3-2.8s.9-1.2,1.3-3.7,.9-18.3,1.3-22.3,.9-6.1,1.3-6.1,.9,5.1,1.3,9.2c.4,4.1,.9,11.5,1.3,15.4s.9,6.4,1.3,7.9,.9,1.3,1.3,2.2,.9,2.5,1.3,3.4,.9,2.2,1.3,2.2,.9-2.8,1.3-4.2,.9-1.4,1.3-4.1c.4-2.6,.9-11.6,1.3-11.8s.9-.3,1.3-.3h1.3c.4,0,.9,.6,1.3,.9s.9,.3,1.3,.8c.4,.6,.9,3.9,1.3,3.9s.9-6.8,1.3-9.6,.9-7.4,1.3-7.4,.9,6.4,1.3,10.6,.9,11.2,1.3,14.6c.4,3.3,.9,5.4,1.3,5.4s.9-4.4,1.3-5.7,.9-.7,1.3-2.1c.4-1.4,.9-8.9,1.3-8.9s.9,0,1.3,.1,.9,3.6,1.3,5.8,.9,5.9,1.3,7.1c.4,1.3,.9,1.6,1.3,1.9,.4,.3,.9,.4,1.3,.4s.9-3.4,1.3-3.4h1.3c.4,0,.9,1.5,1.3,1.5s.9-.6,1.3-1.8,.9-5.3,1.3-8.6,.9-9.9,1.3-11.2,.9-2,1.3-2,.9,3.3,1.3,5.5,.9,6.3,1.3,7.6c.4,1.4,.9,1.6,1.3,2,.4,.5,.9,.7,1.3,.7s.9-.9,1.3-1.5,.9-2.1,1.3-2.1,.9,1.3,1.3,2.5,.9,4.4,1.3,4.4,.9-3.1,1.3-3.1,.9,4.6,1.3,4.6,.9-4.6,1.3-5.7c.4-1.1,.9-1.1,1.3-1.7,.4-.5,.9-.8,1.3-1.6s.9-3.5,1.3-3.5,.9,1.1,1.3,1.1,.9-4.2,1.3-5.6c.4-1.5,.9-3.1,1.3-3.1s.9,1.4,1.3,3.3c.4,1.9,.9,5.6,1.3,8.1,.4,2.6,.9,7.3,1.3,7.3s.9-4.4,1.3-5.8c.4-1.4,.9-.9,1.3-2.7s.9-16.4,1.3-16.6c.4-.3,.9-.4,1.3-.4s.9,3.5,1.3,4.6c.4,1.2,.9,.8,1.3,2.3s.9,5.7,1.3,7.9,.9,5.6,1.3,5.6,.9-.3,1.3-.8,.9-1.9,1.3-2.6c.4-.6,.9-1.1,1.3-1.1s.9,.7,1.3,.7,.9-3.6,1.3-3.6,.9,1.2,1.3,1.2,.9-1.5,1.3-3.2,.9-6.6,1.3-7,.9-.6,1.3-.6,.9,3.9,1.3,3.9,.9-2.6,1.3-5.2" pointer-events="none"/></g></svg>