<?xml version="1.0" encoding="UTF-8"?><svg id="_層_1" xmlns="http://www.w3.org/2000/svg" viewBox="0 0 170.08 85.04"><defs><style>.cls-1{fill:#c1c1c1;font-family:Roboto-Regular, Roboto;font-size:4px;isolation:isolate;}.cls-2{stroke:#c1c1c1;stroke-width:.5px;}.cls-2,.cls-3{fill:none;}.cls-3{stroke:#124e78;stroke-width:1.5px;}</style></defs><g id="_層_2"><g><line class="cls-2" x1="168.56" y1="77.14" x2="10.36" y2="77.14"/><line class="cls-2" x1="168.56" y1="42.74" x2="10.36" y2="42.74"/><line class="cls-2" x1="168.56" y1="8.24" x2="10.36" y2="8.24"/><line class="cls-2" x1="10.66" y1="77.14" x2="10.66" y2="75.64"/><line class="cls-2" x1="26.46" y1="77.14" x2="26.46" y2="75.64"/><line class="cls-2" x1="42.26" y1="77.14" x2="42.26" y2="75.64"/><line class="cls-2" x1="58.16" y1="77.14" x2="58.16" y2="75.64"/><line class="cls-2" x1="73.96" y1="77.14" x2="73.96" y2="75.64"/><line class="cls-2" x1="89.76" y1="77.14" x2="89.76" y2="75.64"/><line class="cls-2" x1="105.66" y1="77.14" x2="105.66" y2="75.64"/><line class="cls-2" x1="121.46" y1="77.14" x2="121.46" y2="75.64"/><line class="cls-2" x1="137.26" y1="77.14" x2="137.26" y2="75.64"/><line class="cls-2" x1="153.16" y1="77.14" x2="153.16" y2="75.64"/><line class="cls-2" x1="168.36" y1="77.14" x2="168.36" y2="75.64"/><text class="cls-1" transform="translate(13.94 81.59)"><tspan x="0" y="0">2013</tspan></text><text class="cls-1" transform="translate(1.4 78.43)"><tspan x="0" y="0">-50%</tspan></text><text class="cls-1" transform="translate(4.75 44.1)"><tspan x="0" y="0">0%</tspan></text><text class="cls-1" transform="translate(.23 9.77)"><tspan x="0" y="0">+50%</tspan></text><text class="cls-1" transform="translate(29.81 81.59)"><tspan x="0" y="0">2014</tspan></text><text class="cls-1" transform="translate(45.68 81.59)"><tspan x="0" y="0">2015</tspan></text><text class="cls-1" transform="translate(61.55 81.59)"><tspan x="0" y="0">2016</tspan></text><text class="cls-1" transform="translate(77.42 81.59)"><tspan x="0" y="0">2017</tspan></text><text class="cls-1" transform="translate(93.29 81.59)"><tspan x="0" y="0">2018</tspan></text><text class="cls-1" transform="translate(109.16 81.59)"><tspan x="0" y="0">2019</tspan></text><text class="cls-1" transform="translate(125.03 81.59)"><tspan x="0" y="0">2020</tspan></text><text class="cls-1" transform="translate(140.91 81.59)"><tspan x="0" y="0">2021</tspan></text><text class="cls-1" transform="translate(156.78 81.59)"><tspan x="0" y="0">2022</tspan></text></g></g><g id="_層_5"><path class="cls-3" d="M10.86,59.44c.4,4.5,.9,9,1.3,13.3,.4,4.3,.9,12.4,1.3,12.4s.9-.6,1.3-1.9,.9-12.9,1.3-18.3,.9-13.7,1.3-13.7,.9,5,1.3,5.1,.9,.2,1.3,.2,.9-25.6,1.3-26.9,.9-2,1.3-2,.9,21.8,1.3,28.9,.9,9.9,1.3,13.8,.9,7.4,1.3,9.7,.9,3.1,1.3,4.1,.9,2,1.3,2,.9-1.5,1.3-3.8c.4-2.3,.9-6.4,1.3-9.9,.4-3.5,.9-8.7,1.3-11.4s.9-2.3,1.3-4.6,.9-6.1,1.3-9.6,.9-11.5,1.3-11.5,.9,1.6,1.3,4.7,.9,18.6,1.3,20c.4,1.4,.9,1.2,1.3,2.1s.9,1.2,1.3,3.7c.4,2.5,.9,8.9,1.3,11.3,.4,2.4,.9,3.6,1.3,3.6s.9-6.6,1.3-10,.9-10.3,1.3-10.3,.9,1.4,1.3,1.4,.9-1,1.3-3c.4-2,.9-12.3,1.3-18.7,.4-6.3,.9-16.8,1.3-19.2,.4-2.4,.9-3.5,1.3-3.5s.9,13.4,1.3,20.8,.9,18.3,1.3,24,.9,10.3,1.3,10.3,.9-17.6,1.3-22.2c.4-4.6,.9-7,1.3-7s.9,0,1.3,.1c.4,.1,.9,15.9,1.3,15.9s.9-.4,1.3-1.2c.4-.8,.9-3,1.3-6.7s.9-11.6,1.3-15.2c.4-3.7,.9-4,1.3-6.9s.9-5.4,1.3-10.2c.4-4.8,.9-18.5,1.3-18.5s.9,37.3,1.3,49.9c.4,12.7,.9,24.3,1.3,26.1,.4,1.7,.9,1.9,1.3,2.6,.4,.7,.9,1.8,1.3,1.8s.9-.6,1.3-1.7c.4-1.2,.9-2.1,1.3-6.2s.9-16.1,1.3-21.5,.9-8.4,1.3-10.7,.9-3.6,1.3-3.6,.9,.8,1.3,.8,.9-.6,1.3-1.1,.9-2,1.3-2,.9,1.2,1.3,3.6,.9,9.7,1.3,12.8c.4,3.1,.9,2.4,1.3,6s.9,13,1.3,15.7,.9,3.3,1.3,4c.4,.7,.9,1,1.3,1s.9-7.1,1.3-10.5,.9-6.6,1.3-10,.9-5.5,1.3-10.6,.9-19.7,1.3-19.7,.9,2.2,1.3,6.5,.9,22.1,1.3,29.4,.9,14.3,1.3,14.3,.9-.4,1.3-1.3,.9-10.7,1.3-12,.9-.7,1.3-2,.9-19.5,1.3-19.5,.9,.1,1.3,.1,.9-2.8,1.3-3.5,.9-.6,1.3-1,.9-.7,1.3-1.2c.4-.6,.9-2.1,1.3-2.1s.9,7.9,1.3,11.3,.9,8.3,1.3,8.9,.9,.3,1.3,.9,.9,8.3,1.3,8.3,.9-4.7,1.3-4.7,.9,5.8,1.3,7.1c.4,1.3,.9,2,1.3,2s.9-.9,1.3-2.8,.9-9.8,1.3-11.2c.4-1.4,.9-.8,1.3-2.1,.4-1.3,.9-3.7,1.3-5.5,.4-1.8,.9-4.1,1.3-5.5s.9-2,1.3-2.4c.4-.4,.9-.6,1.3-.6s.9,3.9,1.3,3.9,.9-6.5,1.3-6.5,.9,20.8,1.3,27.5c.4,6.8,.9,13,1.3,13s.9-.7,1.3-2.1,.9-4.5,1.3-7.5c.4-3,.9-5.8,1.3-10.6,.4-4.8,.9-11.6,1.3-18.1,.4-6.5,.9-16.1,1.3-21,.4-4.9,.9-8.4,1.3-8.4s.9,27.6,1.3,27.6,.9-.5,1.3-.5,.9,9.8,1.3,14.9c.4,5.2,.9,16,1.3,16s.9-.8,1.3-2.4c.4-1.6,.9-3.9,1.3-8.4,.4-4.5,.9-17.8,1.3-18.7,.4-.8,.9-1.2,1.3-1.2s.9,3.9,1.3,3.9,.9-5.3,1.3-5.3,.9,5,1.3,5,.9-13.4,1.3-15.4c.4-2.1,.9-3.1,1.3-3.1s.9,11.6,1.3,15.6c.4,4,.9,6.2,1.3,8.5" pointer-events="none"/></g></svg>