<?xml version="1.0" encoding="UTF-8"?><svg id="_層_1" xmlns="http://www.w3.org/2000/svg" viewBox="0 0 170.08 85.04"><defs><style>.cls-1{fill:#c1c1c1;font-family:Roboto-Regular, Roboto;font-size:4px;isolation:isolate;}.cls-2{stroke:#c1c1c1;stroke-width:.5px;}.cls-2,.cls-3{fill:none;}.cls-3{stroke:#124e78;stroke-width:1.5px;}</style></defs><g id="_層_2"><g><line class="cls-2" x1="169.34" y1="76.1" x2="11.14" y2="76.1"/><line class="cls-2" x1="169.34" y1="41.7" x2="11.14" y2="41.7"/><line class="cls-2" x1="169.34" y1="7.2" x2="11.14" y2="7.2"/><line class="cls-2" x1="11.44" y1="76.1" x2="11.44" y2="74.6"/><line class="cls-2" x1="27.24" y1="76.1" x2="27.24" y2="74.6"/><line class="cls-2" x1="43.04" y1="76.1" x2="43.04" y2="74.6"/><line class="cls-2" x1="58.94" y1="76.1" x2="58.94" y2="74.6"/><line class="cls-2" x1="74.74" y1="76.1" x2="74.74" y2="74.6"/><line class="cls-2" x1="90.54" y1="76.1" x2="90.54" y2="74.6"/><line class="cls-2" x1="106.44" y1="76.1" x2="106.44" y2="74.6"/><line class="cls-2" x1="122.24" y1="76.1" x2="122.24" y2="74.6"/><line class="cls-2" x1="138.04" y1="76.1" x2="138.04" y2="74.6"/><line class="cls-2" x1="153.94" y1="76.1" x2="153.94" y2="74.6"/><line class="cls-2" x1="169.14" y1="76.1" x2="169.14" y2="74.6"/><text class="cls-1" transform="translate(14.73 80.57)"><tspan x="0" y="0">2013</tspan></text><text class="cls-1" transform="translate(2.19 77.4)"><tspan x="0" y="0">-50%</tspan></text><text class="cls-1" transform="translate(5.54 43.07)"><tspan x="0" y="0">0%</tspan></text><text class="cls-1" transform="translate(1.03 8.74)"><tspan x="0" y="0">+50%</tspan></text><text class="cls-1" transform="translate(30.6 80.57)"><tspan x="0" y="0">2014</tspan></text><text class="cls-1" transform="translate(46.47 80.57)"><tspan x="0" y="0">2015</tspan></text><text class="cls-1" transform="translate(62.35 80.57)"><tspan x="0" y="0">2016</tspan></text><text class="cls-1" transform="translate(78.22 80.57)"><tspan x="0" y="0">2017</tspan></text><text class="cls-1" transform="translate(94.09 80.57)"><tspan x="0" y="0">2018</tspan></text><text class="cls-1" transform="translate(109.96 80.57)"><tspan x="0" y="0">2019</tspan></text><text class="cls-1" transform="translate(125.83 80.57)"><tspan x="0" y="0">2020</tspan></text><text class="cls-1" transform="translate(141.7 80.57)"><tspan x="0" y="0">2021</tspan></text><text class="cls-1" transform="translate(157.57 80.57)"><tspan x="0" y="0">2022</tspan></text></g></g><g id="_層_5"><path class="cls-3" d="M11.34,78.3c.4-.6,.9-1.3,1.3-1.8,.4-.6,.9-1.7,1.3-1.7s.9,3.1,1.3,3.1,.9-8.1,1.3-9.1,.9-1.5,1.3-1.5,.9,8.9,1.3,8.9,.9-3.8,1.3-7c.4-3.2,.9-11.4,1.3-12.4,.4-1,.9-1.5,1.3-1.5s.9,3.6,1.3,3.6,.9-10.1,1.3-10.1,.9,0,1.3,.1c.4,0,.9,9.5,1.3,9.5s.9-7.9,1.3-7.9,.9,10.2,1.3,10.2,.9-1.3,1.3-2.2c.4-.9,.9-3,1.3-3s.9,10.4,1.3,13c.4,2.6,.9,4,1.3,4s.9-9.9,1.3-15.2c.4-5.3,.9-16.4,1.3-16.7,.4-.3,.9-.5,1.3-.5s.9,4.4,1.3,6.8c.4,2.4,.9,5.7,1.3,7.5,.4,1.8,.9,1.1,1.3,3.2,.4,2.1,.9,7.8,1.3,10.1s.9,3.7,1.3,3.7,.9-1.2,1.3-3.5c.4-2.3,.9-13,1.3-13s.9,7,1.3,7,.9-9.4,1.3-14.4c.4-5,.9-15.4,1.3-15.4s.9,1.5,1.3,2.2c.4,.7,.9,2.1,1.3,2.1s.9-3,1.3-3,.9,2.3,1.3,4.9,.9,10.8,1.3,10.8,.9-7.1,1.3-7.1,.9,11.7,1.3,11.7,.9,0,1.3-.1c.4-.1,.9-12.6,1.3-12.6s.9,7.9,1.3,10.3c.4,2.4,.9,4.3,1.3,4.3s.9-18.4,1.3-22.2c.4-3.8,.9-5.7,1.3-5.7s.9,3.7,1.3,3.7,.9-5.5,1.3-8.7,.9-10.1,1.3-10.1,.9,3.5,1.3,5.2c.4,1.7,.9,1.7,1.3,5,.4,3.4,.9,35.3,1.3,39,.4,3.7,.9,5.6,1.3,5.6s.9-12.8,1.3-12.8,.9,4.4,1.3,4.4,.9-.6,1.3-1.9,.9-9.1,1.3-9.1,.9,1.7,1.3,1.7,.9-9.8,1.3-9.8,.9,8.6,1.3,10.2c.4,1.6,.9,1.8,1.3,2.4,.4,.6,.9,.5,1.3,1,.4,.5,.9,1.9,1.3,1.9s.9-5,1.3-6.5c.4-1.5,.9-2.8,1.3-2.8s.9,6.8,1.3,9.5c.4,2.7,.9,5.3,1.3,6.9s.9,2.8,1.3,2.8,.9-5.3,1.3-9.5c.4-4.2,.9-11.9,1.3-15.4,.4-3.6,.9-6,1.3-6s.9,.4,1.3,1.3c.4,.9,.9,14.4,1.3,14.4s.9-.9,1.3-.9,.9,3.9,1.3,7.4c.4,3.5,.9,13.3,1.3,13.3s.9-2.5,1.3-5.2c.4-2.7,.9-10.9,1.3-10.9s.9,3.3,1.3,3.3,.9-4.9,1.3-7.7c.4-2.7,.9-8.7,1.3-8.7s.9,.8,1.3,.8,.9-2.8,1.3-4.4c.4-1.6,.9-5.2,1.3-5.2s.9,4,1.3,6.6c.4,2.6,.9,6.7,1.3,8.9,.4,2.2,.9,1.9,1.3,4.3s.9,10.2,1.3,10.2,.9-5.9,1.3-5.9,.9,3.1,1.3,4.4c.4,1.3,.9,3.7,1.3,3.7s.9-4.4,1.3-6.6c.4-2.2,.9-6.6,1.3-6.6s.9,1.6,1.3,1.6,.9-.5,1.3-.5,.9,1.5,1.3,1.5,.9-4.2,1.3-4.6c.4-.3,.9-.5,1.3-.5s.9,.7,1.3,2.2,.9,8.9,1.3,8.9,.9-17.4,1.3-17.4,.9,.7,1.3,2c.4,1.3,.9,6.6,1.3,6.8s.9,.3,1.3,.3,.9-.8,1.3-2.4c.4-1.6,.9-5.6,1.3-9.8,.4-4.1,.9-10.6,1.3-14.9,.4-4.3,.9-10.8,1.3-10.8s.9,8,1.3,14.2,.9,17.1,1.3,22.7,.9,10.9,1.3,10.9,.9-1,1.3-3c.4-2,.9-11.7,1.3-15.7,.4-4,.9-8.5,1.3-8.5s.9,12.2,1.3,16.8c.4,4.6,.9,10.8,1.3,10.8s.9-4.7,1.3-7.4c.4-2.7,.9-8.8,1.3-8.9s.9-.2,1.3-.2,.9,3.6,1.3,7.2" pointer-events="none"/></g></svg>