<?xml version="1.0" encoding="UTF-8"?><svg id="_層_1" xmlns="http://www.w3.org/2000/svg" viewBox="0 0 170.08 85.04"><defs><style>.cls-1{fill:#c1c1c1;font-family:Roboto-Regular, Roboto;font-size:4px;isolation:isolate;}.cls-2{stroke:#c1c1c1;stroke-width:.5px;}.cls-2,.cls-3{fill:none;}.cls-3{stroke:#ef5b5b;stroke-width:1.5px;}</style></defs><g id="_層_2"><g><line class="cls-2" x1="169.34" y1="76.22" x2="11.14" y2="76.22"/><line class="cls-2" x1="169.34" y1="41.82" x2="11.14" y2="41.82"/><line class="cls-2" x1="169.34" y1="7.32" x2="11.14" y2="7.32"/><line class="cls-2" x1="11.44" y1="76.22" x2="11.44" y2="74.72"/><line class="cls-2" x1="27.24" y1="76.22" x2="27.24" y2="74.72"/><line class="cls-2" x1="43.04" y1="76.22" x2="43.04" y2="74.72"/><line class="cls-2" x1="58.94" y1="76.22" x2="58.94" y2="74.72"/><line class="cls-2" x1="74.74" y1="76.22" x2="74.74" y2="74.72"/><line class="cls-2" x1="90.54" y1="76.22" x2="90.54" y2="74.72"/><line class="cls-2" x1="106.44" y1="76.22" x2="106.44" y2="74.72"/><line class="cls-2" x1="122.24" y1="76.22" x2="122.24" y2="74.72"/><line class="cls-2" x1="138.04" y1="76.22" x2="138.04" y2="74.72"/><line class="cls-2" x1="153.94" y1="76.22" x2="153.94" y2="74.72"/><line class="cls-2" x1="169.14" y1="76.22" x2="169.14" y2="74.72"/><text class="cls-1" transform="translate(14.73 80.69)"><tspan x="0" y="0">2013</tspan></text><text class="cls-1" transform="translate(2.19 77.53)"><tspan x="0" y="0">-50%</tspan></text><text class="cls-1" transform="translate(5.54 43.2)"><tspan x="0" y="0">0%</tspan></text><text class="cls-1" transform="translate(1.03 8.87)"><tspan x="0" y="0">+50%</tspan></text><text class="cls-1" transform="translate(30.6 80.69)"><tspan x="0" y="0">2014</tspan></text><text class="cls-1" transform="translate(46.47 80.69)"><tspan x="0" y="0">2015</tspan></text><text class="cls-1" transform="translate(62.35 80.69)"><tspan x="0" y="0">2016</tspan></text><text class="cls-1" transform="translate(78.22 80.69)"><tspan x="0" y="0">2017</tspan></text><text class="cls-1" transform="translate(94.09 80.69)"><tspan x="0" y="0">2018</tspan></text><text class="cls-1" transform="translate(109.96 80.69)"><tspan x="0" y="0">2019</tspan></text><text class="cls-1" transform="translate(125.83 80.69)"><tspan x="0" y="0">2020</tspan></text><text class="cls-1" transform="translate(141.7 80.69)"><tspan x="0" y="0">2021</tspan></text><text class="cls-1" transform="translate(157.57 80.69)"><tspan x="0" y="0">2022</tspan></text></g></g><g id="_-100"><path class="cls-3" d="M11.94,46.42c.4,3.6,.9,7.2,1.3,9.5,.4,2.2,.9,4,1.3,4s.9-8.2,1.3-8.2,.9,2.2,1.3,3.3c.4,1.1,.9,3,1.3,3.1,.4,0,.9,.1,1.3,.1s.9-.5,1.3-1.4c.4-.9,.9-24,1.3-24s.9,14.2,1.3,18.7c.4,4.5,.9,8.4,1.3,8.4s.9-5,1.3-5.8c.4-.7,.9-1.1,1.3-1.1s.9,1,1.3,1,.9-.1,1.3-.1,.9,4.3,1.3,4.3,.9-2.1,1.3-3.1c.4-1,.9-3,1.3-3s.9,4.6,1.3,4.6,.9-8.9,1.3-8.9,.9,6.2,1.3,6.2,.9-4.9,1.3-4.9,.9,10.8,1.3,10.8,.9-12.6,1.3-12.6,.9,2,1.3,3.3c.4,1.2,.9,3.9,1.3,4.1,.4,.2,.9,.3,1.3,.3s.9-1.6,1.3-1.6,.9,4.8,1.3,4.8,.9-9.3,1.3-9.3,.9,8.9,1.3,8.9,.9-9.4,1.3-14c.4-4.6,.9-13.8,1.3-13.8s.9,4.9,1.3,8c.4,3.1,.9,9.8,1.3,10.8,.4,1,.9,1.5,1.3,1.5s.9-1.2,1.3-3.5,.9-16.5,1.3-16.5,.9,5,1.3,6.6,.9,1,1.3,3.1c.4,2.1,.9,14.9,1.3,14.9s.9-.5,1.3-1.5c.4-1,.9-5.4,1.3-5.4s.9,4.9,1.3,4.9,.9-5.1,1.3-11.3c.4-6.2,.9-26.2,1.3-26.2s.9,16.5,1.3,20.5,.9,4.1,1.3,5.9,.9,4.8,1.3,4.8,.9-2.3,1.3-2.3,.9,.6,1.3,1.8c.4,1.2,.9,4.6,1.3,6.1,.4,1.5,.9,3.1,1.3,3.1s.9-21.8,1.3-21.8,.9,14.8,1.3,14.8,.9-2.8,1.3-2.8,.9,2.4,1.3,2.4,.9-8.9,1.3-8.9,.9,.8,1.3,1.3,.9,1.9,1.3,1.9,.9-1.2,1.3-1.5c.4-.4,.9-.8,1.3-.8s.9,4.4,1.3,7.1c.4,2.7,.9,7.1,1.3,9.3,.4,2.2,.9,3.9,1.3,3.9s.9-3.9,1.3-6.4c.4-2.5,.9-8.6,1.3-8.6s.9,4.7,1.3,4.7,.9-16.6,1.3-16.6,.9,11.6,1.3,15.2c.4,3.6,.9,6.2,1.3,6.2s.9-.6,1.3-.9c.4-.4,.9-.6,1.3-1.2,.4-.6,.9-1.2,1.3-2.4,.4-1.1,.9-4.4,1.3-4.4s.9,4.3,1.3,4.3,.9-1.4,1.3-1.4,.9,.5,1.3,.5,.9-1.8,1.3-3.4,.9-6.2,1.3-6.2,.9,.3,1.3,1c.4,.7,.9,12.5,1.3,12.7,.4,.2,.9,.3,1.3,.3s.9-6.7,1.3-6.7,.9,.4,1.3,.4,.9-1.2,1.3-1.2,.9,3.5,1.3,3.5,.9-1,1.3-1,.9,7,1.3,7,.9-14,1.3-14,.9,13,1.3,13,.9-10.9,1.3-10.9,.9,3.4,1.3,3.4,.9-2.7,1.3-3.1c.4-.4,.9-.2,1.3-.6,.4-.4,.9-1.6,1.3-3.1,.4-1.5,.9-5.8,1.3-5.8s.9,5.5,1.3,7.6,.9,3.7,1.3,5.1c.4,1.3,.9,1.7,1.3,3s.9,4.8,1.3,4.8,.9-22.6,1.3-22.6,.9,7,1.3,7,.9-19,1.3-19,.9,16.4,1.3,16.8c.4,.4,.9,.6,1.3,.6h1.3c.4,0,.9,4,1.3,4s.9-.3,1.3-.9,.9-4.6,1.3-4.8,.9-.3,1.3-.3,.9,.9,1.3,1.5c.4,.6,.9,2.3,1.3,2.3s.9-5.1,1.3-5.1,.9,6.8,1.3,6.8,.9-.3,1.3-1c.4-.7,.9-6,1.3-6s.9,6.2,1.3,6.2,.9-.9,1.3-2.7,.9-6.4,1.3-11" pointer-events="none"/></g></svg>