<?xml version="1.0" encoding="UTF-8"?><svg id="_層_1" xmlns="http://www.w3.org/2000/svg" viewBox="0 0 170.08 85.04"><defs><style>.cls-1{fill:#c1c1c1;font-family:Roboto-Regular, Roboto;font-size:4px;isolation:isolate;}.cls-2{stroke:#c1c1c1;stroke-width:.5px;}.cls-2,.cls-3{fill:none;}.cls-3{stroke:#ffba49;stroke-width:1.5px;}</style></defs><g id="_層_2"><g><line class="cls-2" x1="169.15" y1="75.98" x2="10.85" y2="75.98"/><line class="cls-2" x1="169.15" y1="41.58" x2="10.85" y2="41.58"/><line class="cls-2" x1="169.15" y1="7.08" x2="10.85" y2="7.08"/><line class="cls-2" x1="11.15" y1="75.98" x2="11.15" y2="74.48"/><line class="cls-2" x1="26.95" y1="75.98" x2="26.95" y2="74.48"/><line class="cls-2" x1="42.85" y1="75.98" x2="42.85" y2="74.48"/><line class="cls-2" x1="58.65" y1="75.98" x2="58.65" y2="74.48"/><line class="cls-2" x1="74.45" y1="75.98" x2="74.45" y2="74.48"/><line class="cls-2" x1="90.35" y1="75.98" x2="90.35" y2="74.48"/><line class="cls-2" x1="106.15" y1="75.98" x2="106.15" y2="74.48"/><line class="cls-2" x1="121.95" y1="75.98" x2="121.95" y2="74.48"/><line class="cls-2" x1="137.85" y1="75.98" x2="137.85" y2="74.48"/><line class="cls-2" x1="153.65" y1="75.98" x2="153.65" y2="74.48"/><line class="cls-2" x1="168.85" y1="75.98" x2="168.85" y2="74.48"/><text class="cls-1" transform="translate(14.47 80.46)"><tspan x="0" y="0">2013</tspan></text><text class="cls-1" transform="translate(1.93 77.29)"><tspan x="0" y="0">-50%</tspan></text><text class="cls-1" transform="translate(5.28 42.96)"><tspan x="0" y="0">0%</tspan></text><text class="cls-1" transform="translate(.77 8.63)"><tspan x="0" y="0">+50%</tspan></text><text class="cls-1" transform="translate(30.34 80.46)"><tspan x="0" y="0">2014</tspan></text><text class="cls-1" transform="translate(46.21 80.46)"><tspan x="0" y="0">2015</tspan></text><text class="cls-1" transform="translate(62.08 80.46)"><tspan x="0" y="0">2016</tspan></text><text class="cls-1" transform="translate(77.95 80.46)"><tspan x="0" y="0">2017</tspan></text><text class="cls-1" transform="translate(93.82 80.46)"><tspan x="0" y="0">2018</tspan></text><text class="cls-1" transform="translate(109.69 80.46)"><tspan x="0" y="0">2019</tspan></text><text class="cls-1" transform="translate(125.56 80.46)"><tspan x="0" y="0">2020</tspan></text><text class="cls-1" transform="translate(141.44 80.46)"><tspan x="0" y="0">2021</tspan></text><text class="cls-1" transform="translate(157.31 80.46)"><tspan x="0" y="0">2022</tspan></text></g></g><g id="_01-200"><path class="cls-3" d="M11.55,45.98h1.3c.4,0,.9,0,1.3-.1s.9-.5,1.3-.5h1.3c.4,0,.9-.1,1.3-.1h1.3c.4,0,.9-.1,1.3-.1s.9,0,1.3-.1h2.6c.4,0,.9,0,1.3-.1,.4,0,.9-.1,1.3-.1h1.3c.4,0,.9-.3,1.3-.3h6.5c.4,0,.9-.9,1.3-.9s.9,.2,1.3,.2h3.9c.4,0,.9-.1,1.3-.1h1.3c.4,0,.9-.1,1.3-.1,.4-.1,.9-.1,1.3-.2,.4-.1,.9-.4,1.3-.4h2.6c.4,0,.9-.2,1.3-.5,.4-.2,.9-.8,1.3-.8h2.6c.4,0,.9,1.3,1.3,1.3s.9-.3,1.3-.7c.4-.3,.9-1.3,1.3-1.3h2.6c.4,0,.9,.3,1.3,.3s.9-.1,1.3-.1h6.5c.4,0,.9,0,1.3-.1,.4,0,.9-.1,1.3-.2,.4-.1,.9-.1,1.3-.2,.4-.2,.9-.9,1.3-.9h9.1c.4,0,.9-.1,1.3-.1s.9,.2,1.3,.2h1.3c.4,0,.9-.3,1.3-.3h5.2c.4,0,.9-.4,1.3-.5s.9-.3,1.3-.4,.9-.1,1.3-.1,.9,.2,1.3,.2,.9-.2,1.3-.2h1.3c.4,0,.9,.1,1.3,.4,.4,.2,.9,1.3,1.3,1.3s.9-1.3,1.3-1.3h2.6c.4,0,.9,0,1.3-.1,.4,0,.9-.1,1.3-.1h2.6c.4,0,.9-.3,1.3-.3h9.1c.4,0,.9,0,1.3-.1,.4,0,.9-.1,1.3-.1s.9,1.8,1.3,1.8,.9-1.7,1.3-1.7,.9-.1,1.3-.1h3.9c.4,0,.9-.1,1.3-.1h1.3c.4,0,.9,.8,1.3,.8s.9-.6,1.3-.9c.4-.2,.9-.3,1.3-.4s.9-.1,1.3-.1,.9-.1,1.3-.1h1.3c.4,0,.9-.1,1.3-.1h1.3c.4,0,.9,.2,1.3,.2s.9-.2,1.3-.3c.4-.1,.9-.4,1.3-.4h2.6c.4,0,.9-.6,1.3-.6h1.3c.4,0,.9,.4,1.3,.4s.9-.7,1.3-.9c.4-.2,.9-.5,1.3-.5s.9,.2,1.3,.2h1.3" pointer-events="none"/></g></svg>