<?xml version="1.0" encoding="UTF-8"?><svg id="_層_1" xmlns="http://www.w3.org/2000/svg" viewBox="0 0 170.08 85.04"><defs><style>.cls-1{fill:#c1c1c1;font-family:Roboto-Regular, Roboto;font-size:4px;isolation:isolate;}.cls-2{stroke:#c1c1c1;stroke-width:.5px;}.cls-2,.cls-3{fill:none;}.cls-3{stroke:#ef5b5b;stroke-width:1.5px;}</style></defs><g id="_層_2"><g><line class="cls-2" x1="169.34" y1="76.9" x2="11.14" y2="76.9"/><line class="cls-2" x1="169.34" y1="42.4" x2="11.14" y2="42.4"/><line class="cls-2" x1="169.34" y1="8" x2="11.14" y2="8"/><line class="cls-2" x1="11.44" y1="76.9" x2="11.44" y2="75.3"/><line class="cls-2" x1="27.24" y1="76.9" x2="27.24" y2="75.3"/><line class="cls-2" x1="43.04" y1="76.9" x2="43.04" y2="75.3"/><line class="cls-2" x1="58.94" y1="76.9" x2="58.94" y2="75.3"/><line class="cls-2" x1="74.74" y1="76.9" x2="74.74" y2="75.3"/><line class="cls-2" x1="90.54" y1="76.9" x2="90.54" y2="75.3"/><line class="cls-2" x1="106.44" y1="76.9" x2="106.44" y2="75.3"/><line class="cls-2" x1="122.24" y1="76.9" x2="122.24" y2="75.3"/><line class="cls-2" x1="138.04" y1="76.9" x2="138.04" y2="75.3"/><line class="cls-2" x1="153.94" y1="76.9" x2="153.94" y2="75.3"/><line class="cls-2" x1="169.14" y1="76.9" x2="169.14" y2="75.3"/><text class="cls-1" transform="translate(14.73 81.32)"><tspan x="0" y="0">2013</tspan></text><text class="cls-1" transform="translate(2.19 78.15)"><tspan x="0" y="0">-50%</tspan></text><text class="cls-1" transform="translate(5.54 43.82)"><tspan x="0" y="0">0%</tspan></text><text class="cls-1" transform="translate(1.03 9.49)"><tspan x="0" y="0">+50%</tspan></text><text class="cls-1" transform="translate(30.6 81.32)"><tspan x="0" y="0">2014</tspan></text><text class="cls-1" transform="translate(46.47 81.32)"><tspan x="0" y="0">2015</tspan></text><text class="cls-1" transform="translate(62.35 81.32)"><tspan x="0" y="0">2016</tspan></text><text class="cls-1" transform="translate(78.22 81.32)"><tspan x="0" y="0">2017</tspan></text><text class="cls-1" transform="translate(94.09 81.32)"><tspan x="0" y="0">2018</tspan></text><text class="cls-1" transform="translate(109.96 81.32)"><tspan x="0" y="0">2019</tspan></text><text class="cls-1" transform="translate(125.83 81.32)"><tspan x="0" y="0">2020</tspan></text><text class="cls-1" transform="translate(141.7 81.32)"><tspan x="0" y="0">2021</tspan></text><text class="cls-1" transform="translate(157.57 81.32)"><tspan x="0" y="0">2022</tspan></text></g></g><g id="_-100"><path class="cls-3" d="M11.94,53.3c.4-1.6,.9-3.1,1.3-3.1s.9,4.8,1.3,5.5c.4,.7,.9,1,1.3,1s.9-5.3,1.3-5.5c.4-.3,.9-.4,1.3-.4s.9,1.5,1.3,1.5,.9-.3,1.3-1,.9-4.1,1.3-4.2c.4-.1,.9-.2,1.3-.2s.9,3.9,1.3,3.9,.9-.2,1.3-.6c.4-.4,.9-5.7,1.3-5.8,.4-.2,.9-.3,1.3-.3s.9,3.7,1.3,5.6c.4,1.9,.9,5.9,1.3,5.9s.9-.2,1.3-.6,.9-6.1,1.3-6.1,.9,1.5,1.3,1.5,.9-2.5,1.3-2.5,.9,1.1,1.3,1.1,.9-1.1,1.3-1.1,.9,4.8,1.3,4.8,.9-1.7,1.3-1.7,.9,.4,1.3,.4,.9-4.8,1.3-4.8,.9,7.1,1.3,8.6c.4,1.5,.9,2.3,1.3,2.3s.9-2,1.3-3.8c.4-1.8,.9-7.1,1.3-7.1s.9,.9,1.3,.9,.9-4.7,1.3-4.7,.9,5.1,1.3,5.1,.9-2.4,1.3-2.4,.9,4,1.3,4.5c.4,.5,.9,.3,1.3,.7,.4,.4,.9,1.8,1.3,1.8s.9-19.3,1.3-19.3,.9,9.5,1.3,9.5,.9-4.4,1.3-4.4,.9,3.4,1.3,4.8c.4,1.4,.9,3,1.3,3.8,.4,.9,.9,1.3,1.3,1.3s.9-7.6,1.3-7.6,.9,.4,1.3,.4,.9-1.9,1.3-2.7c.4-.8,.9-2.2,1.3-2.2s.9,9,1.3,9,.9-2.5,1.3-3.5c.4-1,.9-2.4,1.3-2.4s.9,3.4,1.3,4.9c.4,1.5,.9,3.8,1.3,3.8s.9-.1,1.3-.3,.9-1.7,1.3-2.8c.4-1.1,.9-4.1,1.3-4.1s.9,1.4,1.3,1.4,.9-2,1.3-2.3c.4-.3,.9-.5,1.3-.5s.9,.3,1.3,.8,.9,3.9,1.3,4.6c.4,.7,.9,1.1,1.3,1.1s.9-17.3,1.3-17.3,.9,22.6,1.3,22.6,.9-.3,1.3-.8c.4-.5,.9-2.1,1.3-3.5,.4-1.4,.9-4.7,1.3-4.9s.9-.1,1.3-.2c.4-.2,.9-8.1,1.3-8.1s.9,7.2,1.3,7.2,.9-3.9,1.3-3.9,.9,4.7,1.3,6.2c.4,1.6,.9,2.4,1.3,3.1,.4,.7,.9,1.3,1.3,1.3s.9-9,1.3-9,.9,6.3,1.3,6.3,.9-.8,1.3-1.9c.4-1,.9-4.4,1.3-4.4s.9,.2,1.3,.7,.9,2.7,1.3,2.7,.9-1.9,1.3-2.3,.9-.2,1.3-.7c.4-.5,.9-4.6,1.3-4.6s.9,3,1.3,4.5c.4,1.5,.9,4.3,1.3,4.3s.9-4.8,1.3-4.8,.9,.4,1.3,1.2c.4,.8,.9,4.4,1.3,5.9,.4,1.5,.9,2.9,1.3,2.9s.9-.1,1.3-.2,.9-2.7,1.3-4.3,.9-3.9,1.3-5.4c.4-1.6,.9-4,1.3-4s.9,5.3,1.3,6.9c.4,1.6,.9,2.7,1.3,2.8,.4,.1,.9,.2,1.3,.2s.9-.1,1.3-.2c.4-.2,.9-5.5,1.3-7.3,.4-1.8,.9-3.3,1.3-3.3s.9,3,1.3,4.8c.4,1.7,.9,5.6,1.3,5.6s.9-2.6,1.3-2.6,.9,4.7,1.3,4.7,.9-.9,1.3-2.6c.4-1.8,.9-11.3,1.3-11.3s.9,4.2,1.3,4.2,.9-4.1,1.3-4.1h1.3c.4,0,.9,1.1,1.3,1.1s.9-.9,1.3-2.6,.9-12.3,1.3-12.3,.9,11.7,1.3,12.1c.4,.4,.9,.2,1.3,.5,.4,.4,.9,4.7,1.3,4.7s.9-3,1.3-3.8c.4-.8,.9-.4,1.3-1.2,.4-.8,.9-4,1.3-4s.9,1.3,1.3,1.3,.9-1.6,1.3-1.6,.9,.8,1.3,1.3,.9,1.1,1.3,1.6" pointer-events="none"/></g></svg>