<?xml version="1.0" encoding="UTF-8"?><svg id="_層_1" xmlns="http://www.w3.org/2000/svg" viewBox="0 0 170.08 85.04"><defs><style>.cls-1{fill:#c1c1c1;font-family:Roboto-Regular, Roboto;font-size:4px;isolation:isolate;}.cls-2{stroke:#c1c1c1;stroke-width:.5px;}.cls-2,.cls-3{fill:none;}.cls-3{stroke:#ffba49;stroke-width:1.5px;}</style></defs><g id="_層_2"><g><line class="cls-2" x1="169.64" y1="76.9" x2="11.44" y2="76.9"/><line class="cls-2" x1="169.64" y1="42.4" x2="11.44" y2="42.4"/><line class="cls-2" x1="169.64" y1="8" x2="11.44" y2="8"/><line class="cls-2" x1="11.64" y1="76.9" x2="11.64" y2="75.3"/><line class="cls-2" x1="27.54" y1="76.9" x2="27.54" y2="75.3"/><line class="cls-2" x1="43.34" y1="76.9" x2="43.34" y2="75.3"/><line class="cls-2" x1="59.14" y1="76.9" x2="59.14" y2="75.3"/><line class="cls-2" x1="75.04" y1="76.9" x2="75.04" y2="75.3"/><line class="cls-2" x1="90.84" y1="76.9" x2="90.84" y2="75.3"/><line class="cls-2" x1="106.64" y1="76.9" x2="106.64" y2="75.3"/><line class="cls-2" x1="122.54" y1="76.9" x2="122.54" y2="75.3"/><line class="cls-2" x1="138.34" y1="76.9" x2="138.34" y2="75.3"/><line class="cls-2" x1="154.14" y1="76.9" x2="154.14" y2="75.3"/><line class="cls-2" x1="169.34" y1="76.9" x2="169.34" y2="75.3"/><text class="cls-1" transform="translate(15 81.32)"><tspan x="0" y="0">2013</tspan></text><text class="cls-1" transform="translate(2.46 78.16)"><tspan x="0" y="0">-50%</tspan></text><text class="cls-1" transform="translate(5.81 43.83)"><tspan x="0" y="0">0%</tspan></text><text class="cls-1" transform="translate(1.3 9.49)"><tspan x="0" y="0">+50%</tspan></text><text class="cls-1" transform="translate(30.87 81.32)"><tspan x="0" y="0">2014</tspan></text><text class="cls-1" transform="translate(46.74 81.32)"><tspan x="0" y="0">2015</tspan></text><text class="cls-1" transform="translate(62.61 81.32)"><tspan x="0" y="0">2016</tspan></text><text class="cls-1" transform="translate(78.48 81.32)"><tspan x="0" y="0">2017</tspan></text><text class="cls-1" transform="translate(94.35 81.32)"><tspan x="0" y="0">2018</tspan></text><text class="cls-1" transform="translate(110.22 81.32)"><tspan x="0" y="0">2019</tspan></text><text class="cls-1" transform="translate(126.09 81.32)"><tspan x="0" y="0">2020</tspan></text><text class="cls-1" transform="translate(141.97 81.32)"><tspan x="0" y="0">2021</tspan></text><text class="cls-1" transform="translate(157.84 81.32)"><tspan x="0" y="0">2022</tspan></text></g></g><g id="_01-200"><path class="cls-3" d="M12.24,46.5h10.4c.4,0,.9,.4,1.3,.4h2.6c.4,0,.9-.3,1.3-.3s.9,.6,1.3,.6,.9-2.3,1.3-2.3h6.5c.4,0,.9-.2,1.3-.4,.4-.2,.9-.6,1.3-.6h5.2c.4,0,.9-1.3,1.3-1.3h14.3c.4,0,.9-.2,1.3-.2h23.4c.4,0,.9-.4,1.3-.4h1.3c.4,0,.9-.2,1.3-.2s.9,.4,1.3,.4h1.3c.4,0,.9-.1,1.3-.1h11.7c.4,0,.9-.3,1.3-.3h3.9c.4,0,.9-.1,1.3-.1h2.6c.4,0,.9-.1,1.3-.1h9.1c.4,0,.9-.3,1.3-.3h22.1c.4,0,.9-.1,1.3-.1h5.2c.4,0,.9-.2,1.3-.2h3.9c.4,0,.9-.3,1.3-.3h6.5" pointer-events="none"/></g></svg>