<?xml version="1.0" encoding="UTF-8"?><svg id="_層_1" xmlns="http://www.w3.org/2000/svg" viewBox="0 0 170.08 85.04"><defs><style>.cls-1{fill:#c1c1c1;font-family:Roboto-Regular, Roboto;font-size:4px;isolation:isolate;}.cls-2{stroke:#c1c1c1;stroke-width:.5px;}.cls-2,.cls-3{fill:none;}.cls-3{stroke:#ffba49;stroke-width:1.5px;}</style></defs><g id="_層_2"><g><line class="cls-2" x1="168.56" y1="76.9" x2="10.36" y2="76.9"/><line class="cls-2" x1="168.56" y1="42.4" x2="10.36" y2="42.4"/><line class="cls-2" x1="168.56" y1="8" x2="10.36" y2="8"/><line class="cls-2" x1="10.66" y1="76.9" x2="10.66" y2="75.3"/><line class="cls-2" x1="26.46" y1="76.9" x2="26.46" y2="75.3"/><line class="cls-2" x1="42.26" y1="76.9" x2="42.26" y2="75.3"/><line class="cls-2" x1="58.16" y1="76.9" x2="58.16" y2="75.3"/><line class="cls-2" x1="73.96" y1="76.9" x2="73.96" y2="75.3"/><line class="cls-2" x1="89.76" y1="76.9" x2="89.76" y2="75.3"/><line class="cls-2" x1="105.66" y1="76.9" x2="105.66" y2="75.3"/><line class="cls-2" x1="121.46" y1="76.9" x2="121.46" y2="75.3"/><line class="cls-2" x1="137.26" y1="76.9" x2="137.26" y2="75.3"/><line class="cls-2" x1="153.16" y1="76.9" x2="153.16" y2="75.3"/><line class="cls-2" x1="168.36" y1="76.9" x2="168.36" y2="75.3"/><text class="cls-1" transform="translate(13.94 81.32)"><tspan x="0" y="0">2013</tspan></text><text class="cls-1" transform="translate(1.4 78.16)"><tspan x="0" y="0">-50%</tspan></text><text class="cls-1" transform="translate(4.75 43.83)"><tspan x="0" y="0">0%</tspan></text><text class="cls-1" transform="translate(.23 9.49)"><tspan x="0" y="0">+50%</tspan></text><text class="cls-1" transform="translate(29.81 81.32)"><tspan x="0" y="0">2014</tspan></text><text class="cls-1" transform="translate(45.68 81.32)"><tspan x="0" y="0">2015</tspan></text><text class="cls-1" transform="translate(61.55 81.32)"><tspan x="0" y="0">2016</tspan></text><text class="cls-1" transform="translate(77.42 81.32)"><tspan x="0" y="0">2017</tspan></text><text class="cls-1" transform="translate(93.29 81.32)"><tspan x="0" y="0">2018</tspan></text><text class="cls-1" transform="translate(109.16 81.32)"><tspan x="0" y="0">2019</tspan></text><text class="cls-1" transform="translate(125.03 81.32)"><tspan x="0" y="0">2020</tspan></text><text class="cls-1" transform="translate(140.91 81.32)"><tspan x="0" y="0">2021</tspan></text><text class="cls-1" transform="translate(156.78 81.32)"><tspan x="0" y="0">2022</tspan></text></g></g><g id="_01-200"><path class="cls-3" d="M10.86,46.8c.4,1,.9,2,1.3,2.7,.4,.7,.9,1.7,1.3,1.7s.9-13.4,1.3-13.4,.9,.5,1.3,1.4,.9,2.6,1.3,4,.9,3,1.3,4.6,.9,3.9,1.3,4.8,.9,1.3,1.3,1.3,.9-13.6,1.3-13.6,.9,.5,1.3,1.1,.9,1.6,1.3,2.5,.9,2.1,1.3,3.4,.9,3.4,1.3,4.1c.4,.8,.9,1.2,1.3,1.2s.9-17,1.3-17,.9,.9,1.3,1.5,.9,1.3,1.3,2.3,.9,2.5,1.3,3.8c.4,1.3,.9,3.1,1.3,4.1,.4,1,.9,1.8,1.3,1.8s.9-11.9,1.3-11.9,.9,1.1,1.3,2c.4,.8,.9,2,1.3,3.1,.4,1.1,.9,2.5,1.3,3.7s.9,2.6,1.3,3.4c.4,.9,.9,1.9,1.3,1.9s.9-14.1,1.3-14.1,.9,1.3,1.3,2.4c.4,1.1,.9,2.8,1.3,4s.9,2.3,1.3,3.2c.4,.8,.9,1.3,1.3,1.9s.9,1.3,1.3,1.3,.9-12.9,1.3-12.9,.9,1.7,1.3,2.4c.4,.8,.9,.9,1.3,2.1,.4,1.2,.9,3.7,1.3,4.9s.9,1.4,1.3,1.9c.4,.5,.9,.9,1.3,.9s.9-13.1,1.3-13.1,.9,1.7,1.3,2.4,.9,1.1,1.3,2.2,.9,3.5,1.3,4.6c.4,1,.9,1.2,1.3,1.6s.9,.8,1.3,.8,.9-12.7,1.3-12.7,.9,1,1.3,2c.4,.9,.9,2.2,1.3,3.7s.9,5,1.3,5.4,.9,.4,1.3,.6c.4,.3,.9,1,1.3,1s.9-11.3,1.3-11.3,.9,2.4,1.3,3.4c.4,1,.9,1.6,1.3,2.6s.9,2.5,1.3,3.5,.9,2.2,1.3,2.8c.4,.6,.9,.8,1.3,.8s.9-11.3,1.3-11.3,.9,1.1,1.3,1.8,.9,1.2,1.3,2.5c.4,1.2,.9,3.6,1.3,4.9s.9,2.7,1.3,2.8,.9,.3,1.3,.3,.9-10.7,1.3-10.7,.9,1.4,1.3,2.3,.9,2.1,1.3,3,.9,1.5,1.3,2.2,.9,1.7,1.3,2.1,.9,.7,1.3,.7,.9-10.1,1.3-10.1,.9,.8,1.3,1.6,.9,2.1,1.3,3.3,.9,3,1.3,4.2,.9,2.8,1.3,2.9,.9,.2,1.3,.2,.9-9.8,1.3-9.8,.9,.2,1.3,.7,.9,2.7,1.3,3.7,.9,1.6,1.3,2.4,.9,2.5,1.3,2.5,.9-.1,1.3-.4,.9-13.3,1.3-13.3,.9,2.1,1.3,2.8c.4,.8,.9,.9,1.3,1.7s.9,2.6,1.3,3.4,.9,1.3,1.3,1.8,.9,1.5,1.3,1.5,.9-10.4,1.3-10.4,.9,1.9,1.3,2.6,.9,.8,1.3,1.6,.9,2,1.3,2.8c.4,.8,.9,1.2,1.3,1.8,.4,.6,.9,1.7,1.3,1.7s.9-10.6,1.3-10.6,.9,.6,1.3,1.1c.4,.5,.9,1.1,1.3,1.8,.4,.7,.9,1.8,1.3,2.6,.4,.8,.9,1.7,1.3,2.1,.4,.4,.9,.5,1.3,.5s.9-11.1,1.3-11.1,.9,.4,1.3,1c.4,.5,.9,1.5,1.3,2.3,.4,.8,.9,1.6,1.3,2.4,.4,.8,.9,1.9,1.3,2.6,.4,.7,.9,1.8,1.3,1.8s.9-8.7,1.3-8.7,.9,1.4,1.3,1.8c.4,.4,.9,.2,1.3,.7,.4,.5,.9,2.7,1.3,3.2,.4,.4,.9,.2,1.3,.7,.4,.4,.9,2.7,1.3,2.7s.9-11.8,1.3-11.8,.9,.4,1.3,1c.4,.6,.9,1.8,1.3,2.6,.4,.8,.9,1.7,1.3,2.5,.4,.8,.9,1.7,1.3,2.3,.4,.5,.9,1,1.3,1s.9-8.6,1.3-8.6,.9,.8,1.3,1.4c.4,.6,.9,1.4,1.3,2.2" pointer-events="none"/></g></svg>