<?xml version="1.0" encoding="UTF-8"?><svg id="_層_1" xmlns="http://www.w3.org/2000/svg" viewBox="0 0 170.08 85.04"><defs><style>.cls-1{fill:#c1c1c1;font-family:Roboto-Regular, Roboto;font-size:4px;isolation:isolate;}.cls-2{stroke:#c1c1c1;stroke-width:.5px;}.cls-2,.cls-3{fill:none;}.cls-3{stroke:#ffba49;stroke-width:1.5px;}</style></defs><g id="_層_2"><g><line class="cls-2" x1="168.56" y1="77.35" x2="10.36" y2="77.35"/><line class="cls-2" x1="168.56" y1="42.85" x2="10.36" y2="42.85"/><line class="cls-2" x1="168.56" y1="8.45" x2="10.36" y2="8.45"/><line class="cls-2" x1="10.66" y1="77.35" x2="10.66" y2="75.75"/><line class="cls-2" x1="26.46" y1="77.35" x2="26.46" y2="75.75"/><line class="cls-2" x1="42.26" y1="77.35" x2="42.26" y2="75.75"/><line class="cls-2" x1="58.16" y1="77.35" x2="58.16" y2="75.75"/><line class="cls-2" x1="73.96" y1="77.35" x2="73.96" y2="75.75"/><line class="cls-2" x1="89.76" y1="77.35" x2="89.76" y2="75.75"/><line class="cls-2" x1="105.66" y1="77.35" x2="105.66" y2="75.75"/><line class="cls-2" x1="121.46" y1="77.35" x2="121.46" y2="75.75"/><line class="cls-2" x1="137.26" y1="77.35" x2="137.26" y2="75.75"/><line class="cls-2" x1="153.16" y1="77.35" x2="153.16" y2="75.75"/><line class="cls-2" x1="168.36" y1="77.35" x2="168.36" y2="75.75"/><text class="cls-1" transform="translate(13.94 81.76)"><tspan x="0" y="0">2013</tspan></text><text class="cls-1" transform="translate(1.4 78.59)"><tspan x="0" y="0">-50%</tspan></text><text class="cls-1" transform="translate(4.75 44.26)"><tspan x="0" y="0">0%</tspan></text><text class="cls-1" transform="translate(.23 9.93)"><tspan x="0" y="0">+50%</tspan></text><text class="cls-1" transform="translate(29.81 81.76)"><tspan x="0" y="0">2014</tspan></text><text class="cls-1" transform="translate(45.68 81.76)"><tspan x="0" y="0">2015</tspan></text><text class="cls-1" transform="translate(61.55 81.76)"><tspan x="0" y="0">2016</tspan></text><text class="cls-1" transform="translate(77.42 81.76)"><tspan x="0" y="0">2017</tspan></text><text class="cls-1" transform="translate(93.29 81.76)"><tspan x="0" y="0">2018</tspan></text><text class="cls-1" transform="translate(109.16 81.76)"><tspan x="0" y="0">2019</tspan></text><text class="cls-1" transform="translate(125.03 81.76)"><tspan x="0" y="0">2020</tspan></text><text class="cls-1" transform="translate(140.91 81.76)"><tspan x="0" y="0">2021</tspan></text><text class="cls-1" transform="translate(156.78 81.76)"><tspan x="0" y="0">2022</tspan></text></g></g><g id="_01-200"><path class="cls-3" d="M10.86,43.95c.4,3.7,.9,7.3,1.3,7.7,.4,.4,.9,.5,1.3,.5s.9-5.2,1.3-5.2,.9,.6,1.3,.9c.4,.2,.9,.2,1.3,.4s.9,.6,1.3,1.1,.9,1.2,1.3,1.7,.9,1.2,1.3,1.2,.9-29.9,1.3-29.9,.9,2.4,1.3,3.9,.9,2.8,1.3,5,.9,6.2,1.3,8.3,.9,3,1.3,4.2,.9,3.1,1.3,3.1,.9-3.6,1.3-3.6,.9,.6,1.3,1.1c.4,.5,.9,1.4,1.3,1.9,.4,.5,.9,.5,1.3,.9,.4,.4,.9,1,1.3,1.2,.4,.3,.9,.4,1.3,.4s.9-26.3,1.3-26.3,.9,1.9,1.3,3.2,.9,2.5,1.3,4.7c.4,2.1,.9,5.3,1.3,8s.9,6.5,1.3,8.3c.4,1.9,.9,2.8,1.3,2.8s.9-4.6,1.3-4.6,.9,.8,1.3,1.2,.9,.9,1.3,1.3c.4,.4,.9,.6,1.3,1.1,.4,.5,.9,1.9,1.3,2.1s.9,.4,1.3,.4,.9-28,1.3-28,.9,2,1.3,4.2,.9,6.5,1.3,9.1c.4,2.6,.9,4,1.3,6.3,.4,2.4,.9,6.9,1.3,7.9,.4,1,.9,1.5,1.3,1.5s.9-6.3,1.3-6.3,.9,1.4,1.3,1.8,.9,.7,1.3,.9c.4,.3,.9,.3,1.3,.6,.4,.4,.9,1.5,1.3,1.5s.9,0,1.3-.1c.4,0,.9-29.5,1.3-29.5s.9,2.2,1.3,4,.9,4.3,1.3,6.8,.9,5.7,1.3,8.1,.9,5.7,1.3,6.4c.4,.7,.9,1.1,1.3,1.1s.9-3.5,1.3-3.5,.9,.6,1.3,1.1c.4,.4,.9,1,1.3,1.5s.9,.9,1.3,1.2,.9,.3,1.3,.5,.9,.6,1.3,.6,.9-24.7,1.3-24.7,.9,3.9,1.3,5.1c.4,1.1,.9,.6,1.3,1.8,.4,1.2,.9,4.8,1.3,7.2s.9,5.2,1.3,6.8c.4,1.6,.9,2.9,1.3,2.9s.9-6.2,1.3-6.2,.9,.6,1.3,.9c.4,.4,.9,.9,1.3,1.2,.4,.3,.9,.5,1.3,.7s.9,.4,1.3,.6,.9,.7,1.3,.7,.9-20.3,1.3-20.3,.9,3.6,1.3,5.1,.9,1.4,1.3,3.8,.9,7.6,1.3,10.5c.4,2.8,.9,5.7,1.3,6.6s.9,1.4,1.3,1.4,.9-4.4,1.3-4.4,.9,0,1.3,.1,.9,.6,1.3,.9,.9,.8,1.3,1.1,.9,.2,1.3,.4c.4,.2,.9,.6,1.3,.6s.9-25.5,1.3-25.5,.9,2.8,1.3,4.5c.4,1.6,.9,3.5,1.3,5.4s.9,3.8,1.3,5.8,.9,5,1.3,6.4,.9,2,1.3,2,.9-4.2,1.3-4.2,.9,.7,1.3,1.1,.9,1,1.3,1.3,.9,.3,1.3,.7c.4,.3,.9,1.2,1.3,1.3,.4,.1,.9,.1,1.3,.1s.9-23,1.3-23,.9,1.9,1.3,3c.4,1.1,.9,2.2,1.3,3.7,.4,1.5,.9,3.5,1.3,5.4,.4,1.9,.9,4.4,1.3,5.8,.4,1.3,.9,2.2,1.3,2.2s.9-3.1,1.3-3.1,.9,.3,1.3,.4c.4,.2,.9,.2,1.3,.5,.4,.3,.9,1.2,1.3,1.7,.4,.5,.9,.8,1.3,1.1,.4,.3,.9,.6,1.3,.6s.9-22.4,1.3-22.4,.9,3.6,1.3,4.7c.4,1.2,.9,.9,1.3,2.4,.4,1.5,.9,4.9,1.3,6.4,.4,1.5,.9,2.2,1.3,2.4,.4,.3,.9,.4,1.3,.4s.9-4,1.3-4,.9,.1,1.3,.4c.4,.2,.9,.8,1.3,1.1,.4,.3,.9,.7,1.3,1,.4,.3,.9,.6,1.3,.8,.4,.2,.9,.4,1.3,.4s.9-17.1,1.3-17.1,.9,2.7,1.3,3.7c.4,1,.9,1.5,1.3,2.1" pointer-events="none"/></g></svg>