<?xml version="1.0" encoding="UTF-8"?><svg id="_層_1" xmlns="http://www.w3.org/2000/svg" viewBox="0 0 170.08 85.04"><defs><style>.cls-1{fill:#c1c1c1;font-family:Roboto-Regular, Roboto;font-size:4px;isolation:isolate;}.cls-2{stroke:#c1c1c1;stroke-width:.5px;}.cls-2,.cls-3{fill:none;}.cls-3{stroke:#ef5b5b;stroke-width:1.5px;}</style></defs><g id="_層_2"><g><line class="cls-2" x1="169.34" y1="77.04" x2="11.14" y2="77.04"/><line class="cls-2" x1="169.34" y1="42.64" x2="11.14" y2="42.64"/><line class="cls-2" x1="169.34" y1="8.24" x2="11.14" y2="8.24"/><line class="cls-2" x1="11.44" y1="77.04" x2="11.44" y2="75.54"/><line class="cls-2" x1="27.24" y1="77.04" x2="27.24" y2="75.54"/><line class="cls-2" x1="43.04" y1="77.04" x2="43.04" y2="75.54"/><line class="cls-2" x1="58.94" y1="77.04" x2="58.94" y2="75.54"/><line class="cls-2" x1="74.74" y1="77.04" x2="74.74" y2="75.54"/><line class="cls-2" x1="90.54" y1="77.04" x2="90.54" y2="75.54"/><line class="cls-2" x1="106.44" y1="77.04" x2="106.44" y2="75.54"/><line class="cls-2" x1="122.24" y1="77.04" x2="122.24" y2="75.54"/><line class="cls-2" x1="138.04" y1="77.04" x2="138.04" y2="75.54"/><line class="cls-2" x1="153.94" y1="77.04" x2="153.94" y2="75.54"/><line class="cls-2" x1="169.14" y1="77.04" x2="169.14" y2="75.54"/><text class="cls-1" transform="translate(14.73 81.54)"><tspan x="0" y="0">2013</tspan></text><text class="cls-1" transform="translate(2.19 78.38)"><tspan x="0" y="0">-50%</tspan></text><text class="cls-1" transform="translate(5.54 44.05)"><tspan x="0" y="0">0%</tspan></text><text class="cls-1" transform="translate(1.03 9.71)"><tspan x="0" y="0">+50%</tspan></text><text class="cls-1" transform="translate(30.6 81.54)"><tspan x="0" y="0">2014</tspan></text><text class="cls-1" transform="translate(46.47 81.54)"><tspan x="0" y="0">2015</tspan></text><text class="cls-1" transform="translate(62.35 81.54)"><tspan x="0" y="0">2016</tspan></text><text class="cls-1" transform="translate(78.22 81.54)"><tspan x="0" y="0">2017</tspan></text><text class="cls-1" transform="translate(94.09 81.54)"><tspan x="0" y="0">2018</tspan></text><text class="cls-1" transform="translate(109.96 81.54)"><tspan x="0" y="0">2019</tspan></text><text class="cls-1" transform="translate(125.83 81.54)"><tspan x="0" y="0">2020</tspan></text><text class="cls-1" transform="translate(141.7 81.54)"><tspan x="0" y="0">2021</tspan></text><text class="cls-1" transform="translate(157.57 81.54)"><tspan x="0" y="0">2022</tspan></text></g></g><g id="_-100"><path class="cls-3" d="M11.94,46.84c.4,.4,.9,.7,1.3,.7s.9-.5,1.3-.9c.4-.4,.9-1.3,1.3-1.3s.9,1.2,1.3,1.2,.9-1.3,1.3-1.3,.9,1.3,1.3,1.3,.9-.1,1.3-.3,.9-.8,1.3-1c.4-.2,.9-.1,1.3-.2,.4-.2,.9-.9,1.3-1.1,.4-.2,.9-.3,1.3-.3s.9,.1,1.3,.2c.4,.1,.9,.2,1.3,.2h1.3c.4,0,.9-.2,1.3-.2h1.3c.4,0,.9-.9,1.3-.9s.9,1.2,1.3,1.2,.9-.4,1.3-.6c.4-.2,.9-.4,1.3-.6,.4-.2,.9-.4,1.3-.4s.9,.4,1.3,.6c.4,.2,.9,.8,1.3,.8s.9-1.9,1.3-1.9,.9,.9,1.3,.9,.9-.5,1.3-.7,.9-.4,1.3-.4,.9,.3,1.3,.3c.4,.1,.9,0,1.3,.1,.4,.1,.9,.4,1.3,.6,.4,.2,.9,.5,1.3,.7,.4,.2,.9,.4,1.3,.4s.9-1.4,1.3-1.8c.4-.4,.9-.6,1.3-.6s.9,0,1.3,.1c.4,.1,.9,.3,1.3,.4,.4,.1,.9,.2,1.3,.2s.9,0,1.3-.1,.9-.1,1.3-.1,.9,1.3,1.3,1.3,.9-1.3,1.3-1.3,.9,1.4,1.3,1.7c.4,.3,.9,.5,1.3,.5s.9-.4,1.3-.8c.4-.4,.9-1.4,1.3-1.4s.9,.3,1.3,.3,.9-1.4,1.3-1.4,.9,.7,1.3,.7,.9-.6,1.3-.7c.4-.1,.9-.2,1.3-.2s.9,.7,1.3,.7,.9-.7,1.3-.7,.9,.1,1.3,.2c.4,.1,.9,.2,1.3,.2s.9-.1,1.3-.2c.4-.1,.9,0,1.3-.1,.4-.1,.9-.7,1.3-.7s.9,.5,1.3,.9,.9,1,1.3,1,.9-.4,1.3-.4,.9,.3,1.3,.3,.9-.6,1.3-.6,.9,0,1.3,.1c.4,0,.9,.1,1.3,.1s.9,0,1.3,.1c.4,.1,.9,.3,1.3,.4,.4,.1,.9,.1,1.3,.1s.9-.3,1.3-.3,.9,0,1.3,.1c.4,0,.9,.1,1.3,.1s.9-.5,1.3-.5,.9,.2,1.3,.2,.9-.2,1.3-.4c.4-.2,.9-.7,1.3-.7s.9,.1,1.3,.1,.9,.1,1.3,.1,.9,0,1.3-.1c.4-.1,.9-.2,1.3-.3,.4-.1,.9-.1,1.3-.2,.4-.1,.9-.4,1.3-.5,.4-.1,.9-.3,1.3-.3s.9,.1,1.3,.2c.4,.1,.9,.2,1.3,.2s.9-.1,1.3-.1,.9,.3,1.3,.4c.4,.1,.9,.3,1.3,.3s.9-.7,1.3-.7,.9,.3,1.3,.4c.4,.1,.9,.2,1.3,.2h1.3c.4,0,.9-.1,1.3-.1s.9,.2,1.3,.2,.9-.6,1.3-.6,.9,.1,1.3,.1,.9-.3,1.3-.3h1.3c.4,0,.9,.5,1.3,.5s.9-.2,1.3-.3c.4-.1,.9-.2,1.3-.5s.9-1.2,1.3-1.2h1.3c.4,0,.9-.1,1.3-.1s.9,.8,1.3,.8,.9-.1,1.3-.3c.4-.2,.9-.8,1.3-1.2,.4-.3,.9-.6,1.3-.9,.4-.3,.9-1.1,1.3-1.1s.9,1,1.3,1,.9-.7,1.3-1.2,.9-1.8,1.3-1.8,.9,.5,1.3,.5,.9-.8,1.3-.8,.9,.1,1.3,.2c.4,.1,.9,.2,1.3,.2s.9,0,1.3-.1c.4-.1,.9-.6,1.3-.8,.4-.2,.9-.4,1.3-.5,.4-.1,.9-.1,1.3-.3,.4-.1,.9-.3,1.3-.5" pointer-events="none"/></g></svg>