<?xml version="1.0" encoding="UTF-8"?><svg id="_層_1" xmlns="http://www.w3.org/2000/svg" viewBox="0 0 170.08 85.04"><defs><style>.cls-1{fill:#c1c1c1;font-family:Roboto-Regular, Roboto;font-size:4px;isolation:isolate;}.cls-2{stroke:#c1c1c1;stroke-width:.5px;}.cls-2,.cls-3{fill:none;}.cls-3{stroke:#ef5b5b;stroke-width:1.5px;}</style></defs><g id="_層_2"><g><line class="cls-2" x1="168.56" y1="77.02" x2="10.36" y2="77.02"/><line class="cls-2" x1="168.56" y1="42.52" x2="10.36" y2="42.52"/><line class="cls-2" x1="168.56" y1="8.12" x2="10.36" y2="8.12"/><line class="cls-2" x1="10.66" y1="77.02" x2="10.66" y2="75.52"/><line class="cls-2" x1="26.46" y1="77.02" x2="26.46" y2="75.52"/><line class="cls-2" x1="42.26" y1="77.02" x2="42.26" y2="75.52"/><line class="cls-2" x1="58.16" y1="77.02" x2="58.16" y2="75.52"/><line class="cls-2" x1="73.96" y1="77.02" x2="73.96" y2="75.52"/><line class="cls-2" x1="89.76" y1="77.02" x2="89.76" y2="75.52"/><line class="cls-2" x1="105.66" y1="77.02" x2="105.66" y2="75.52"/><line class="cls-2" x1="121.46" y1="77.02" x2="121.46" y2="75.52"/><line class="cls-2" x1="137.26" y1="77.02" x2="137.26" y2="75.52"/><line class="cls-2" x1="153.16" y1="77.02" x2="153.16" y2="75.52"/><line class="cls-2" x1="168.36" y1="77.02" x2="168.36" y2="75.52"/><text class="cls-1" transform="translate(13.94 81.45)"><tspan x="0" y="0">2013</tspan></text><text class="cls-1" transform="translate(1.4 78.29)"><tspan x="0" y="0">-50%</tspan></text><text class="cls-1" transform="translate(4.75 43.96)"><tspan x="0" y="0">0%</tspan></text><text class="cls-1" transform="translate(.23 9.63)"><tspan x="0" y="0">+50%</tspan></text><text class="cls-1" transform="translate(29.81 81.45)"><tspan x="0" y="0">2014</tspan></text><text class="cls-1" transform="translate(45.68 81.45)"><tspan x="0" y="0">2015</tspan></text><text class="cls-1" transform="translate(61.55 81.45)"><tspan x="0" y="0">2016</tspan></text><text class="cls-1" transform="translate(77.42 81.45)"><tspan x="0" y="0">2017</tspan></text><text class="cls-1" transform="translate(93.29 81.45)"><tspan x="0" y="0">2018</tspan></text><text class="cls-1" transform="translate(109.16 81.45)"><tspan x="0" y="0">2019</tspan></text><text class="cls-1" transform="translate(125.03 81.45)"><tspan x="0" y="0">2020</tspan></text><text class="cls-1" transform="translate(140.91 81.45)"><tspan x="0" y="0">2021</tspan></text><text class="cls-1" transform="translate(156.78 81.45)"><tspan x="0" y="0">2022</tspan></text></g></g><g id="_-100"><path class="cls-3" d="M16.16,50.32c.4,8.6,.9,17.2,1.3,19.6s.9,3.6,1.3,3.6c4.4,0,8.8-18.7,13.2-18.7,.4,0,.9,12.4,1.3,13.9s.9,2.3,1.3,2.3c4.4,0,8.8-5.6,13.2-5.6,.4,0,.9,.1,1.3,.2s.9,1.8,1.3,1.8c4.4,0,8.8-35.4,13.2-35.4,.4,0,.9,.4,1.3,.4s.9-2.6,1.3-3c4.4-4.4,8.8-6.6,13.2-6.6,.4,0,.9,16.6,1.3,17,.4,.5,.9,.5,1.3,.7,4.4,2.2,8.8,1.4,13.2,4.3,.4,.3,.9,5.3,1.3,5.3s.9-1.3,1.3-2.1c4.4-7.5,8.8-39.9,13.2-39.9,.4,0,.9,6.7,1.3,7.2s.9,.4,1.3,.7c4.4,2.4,8.8,3.7,13.2,11.2,.4,.7,.9,13.2,1.3,13.3,.4,.1,.9,.2,1.3,.2,4.4,0,8.8-14.8,13.2-14.8,.4,0,.9,10.6,1.3,10.6s.9-2.7,1.3-4c4.4-12.8,8.8-10.7,13.2-25.6,.4-1.5,.9-3.2,1.3-4.7,.4-1.4,.9-2.7,1.3-3.9" pointer-events="none"/></g></svg>