<?xml version="1.0" encoding="UTF-8"?><svg id="_層_1" xmlns="http://www.w3.org/2000/svg" viewBox="0 0 170.08 85.04"><defs><style>.cls-1{fill:#c1c1c1;font-family:Roboto-Regular, Roboto;font-size:4px;isolation:isolate;}.cls-2{stroke:#c1c1c1;stroke-width:.5px;}.cls-2,.cls-3{fill:none;}.cls-3{stroke:#ef5b5b;stroke-width:1.5px;}</style></defs><g id="_層_2"><g><line class="cls-2" x1="168.56" y1="76.67" x2="10.36" y2="76.67"/><line class="cls-2" x1="168.56" y1="42.17" x2="10.36" y2="42.17"/><line class="cls-2" x1="168.56" y1="7.77" x2="10.36" y2="7.77"/><line class="cls-2" x1="10.66" y1="76.67" x2="10.66" y2="75.07"/><line class="cls-2" x1="26.46" y1="76.67" x2="26.46" y2="75.07"/><line class="cls-2" x1="42.26" y1="76.67" x2="42.26" y2="75.07"/><line class="cls-2" x1="58.16" y1="76.67" x2="58.16" y2="75.07"/><line class="cls-2" x1="73.96" y1="76.67" x2="73.96" y2="75.07"/><line class="cls-2" x1="89.76" y1="76.67" x2="89.76" y2="75.07"/><line class="cls-2" x1="105.66" y1="76.67" x2="105.66" y2="75.07"/><line class="cls-2" x1="121.46" y1="76.67" x2="121.46" y2="75.07"/><line class="cls-2" x1="137.26" y1="76.67" x2="137.26" y2="75.07"/><line class="cls-2" x1="153.16" y1="76.67" x2="153.16" y2="75.07"/><line class="cls-2" x1="168.36" y1="76.67" x2="168.36" y2="75.07"/><text class="cls-1" transform="translate(13.94 81.08)"><tspan x="0" y="0">2013</tspan></text><text class="cls-1" transform="translate(1.4 77.92)"><tspan x="0" y="0">-50%</tspan></text><text class="cls-1" transform="translate(4.75 43.59)"><tspan x="0" y="0">0%</tspan></text><text class="cls-1" transform="translate(.23 9.26)"><tspan x="0" y="0">+50%</tspan></text><text class="cls-1" transform="translate(29.81 81.08)"><tspan x="0" y="0">2014</tspan></text><text class="cls-1" transform="translate(45.68 81.08)"><tspan x="0" y="0">2015</tspan></text><text class="cls-1" transform="translate(61.55 81.08)"><tspan x="0" y="0">2016</tspan></text><text class="cls-1" transform="translate(77.42 81.08)"><tspan x="0" y="0">2017</tspan></text><text class="cls-1" transform="translate(93.29 81.08)"><tspan x="0" y="0">2018</tspan></text><text class="cls-1" transform="translate(109.16 81.08)"><tspan x="0" y="0">2019</tspan></text><text class="cls-1" transform="translate(125.03 81.08)"><tspan x="0" y="0">2020</tspan></text><text class="cls-1" transform="translate(140.91 81.08)"><tspan x="0" y="0">2021</tspan></text><text class="cls-1" transform="translate(156.78 81.08)"><tspan x="0" y="0">2022</tspan></text></g></g><g id="_-100"><path class="cls-3" d="M10.86,61.77c.4,.6,.9,1.3,1.3,1.3s.9-.4,1.3-.7c.4-.3,.9-.5,1.3-1.1s.9-2.6,1.3-2.6,.9,0,1.3,.1,.9,2,1.3,2,.9-1.7,1.3-2.3c.4-.6,.9-.6,1.3-1.2,.4-.5,.9-1.6,1.3-2.1,.4-.4,.9-.7,1.3-.7s.9,.5,1.3,.5,.9-.4,1.3-.4,.9,.7,1.3,.9c.4,.2,.9,.6,1.3,.6s.9-2.4,1.3-2.4,.9,.1,1.3,.3c.4,.2,.9,.9,1.3,.9s.9-.2,1.3-.7,.9-1.8,1.3-2.4c.4-.6,.9-1,1.3-1s.9,.1,1.3,.2c.4,.1,.9,.1,1.3,.3,.4,.2,.9,1,1.3,1.4,.4,.5,.9,.8,1.3,1.3,.4,.5,.9,1.1,1.3,1.7,.4,.6,.9,2,1.3,2s.9-2.1,1.3-2.6c.4-.4,.9-.3,1.3-.6,.4-.3,.9-.9,1.3-1.2s.9-.9,1.3-.9,.9,.3,1.3,.3,.9-1.4,1.3-2.3c.4-.9,.9-2.5,1.3-2.9,.4-.4,.9-.6,1.3-.6s.9,.9,1.3,1.4,.9,.9,1.3,1.6c.4,.7,.9,2.4,1.3,2.5s.9,.2,1.3,.2,.9-5.9,1.3-8c.4-2.1,.9-3.9,1.3-4.7s.9-.9,1.3-1.2,.9-.2,1.3-.6,.9-2.8,1.3-2.8,.9,1.6,1.3,1.8c.4,.2,.9,.1,1.3,.3,.4,.2,.9,.8,1.3,1.3s.9,1.2,1.3,1.8c.4,.5,.9,.9,1.3,1.5s.9,1.3,1.3,2.1c.4,.8,.9,2.6,1.3,2.6s.9-4.2,1.3-4.2h1.3c.4,0,.9,1.5,1.3,1.5s.9-1.2,1.3-2,.9-2.8,1.3-2.8,.9,.6,1.3,.9,.9,.3,1.3,.8,.9,1.9,1.3,2.5,.9,.7,1.3,1,.9,.8,1.3,.8,.9,.1,1.3,.1,.9-.2,1.3-.6,.9-3.9,1.3-5.2,.9-1.4,1.3-2.7c.4-1.3,.9-5,1.3-5s.9,5,1.3,6.2,.9,1.1,1.3,1.7,.9,.7,1.3,2.2c.4,1.4,.9,6.4,1.3,7.1s.9,.5,1.3,1.1,.9,1.9,1.3,2.4c.4,.6,.9,1,1.3,1s.9-.5,1.3-.5,.9,.8,1.3,.8,.9-4.7,1.3-6.4c.4-1.7,.9-2.1,1.3-3.8,.4-1.7,.9-6.4,1.3-6.4s.9,2,1.3,2.4c.4,.3,.9,.5,1.3,.5s.9-.7,1.3-.9,.9-.3,1.3-.3,.9,1,1.3,1h1.3c.4,0,.9,1.4,1.3,1.5s.9,.1,1.3,.1,.9-.2,1.3-.7,.9-2.1,1.3-2.7,.9-1,1.3-1,.9,.1,1.3,.1,.9-.5,1.3-.5,.9,1.1,1.3,1.1,.9-2.8,1.3-2.8,.9,8.8,1.3,10.3c.4,1.5,.9,1.8,1.3,2.3,.4,.5,.9,.7,1.3,.7s.9-.3,1.3-.3,.9,1.6,1.3,1.6,.9-.5,1.3-.7c.4-.2,.9-.1,1.3-.4,.4-.3,.9-5.8,1.3-6.7,.4-.9,.9-1.3,1.3-1.4,.4-.1,.9-.1,1.3-.1s.9-.1,1.3-.1,.9,4.5,1.3,4.5,.9-2.2,1.3-2.9c.4-.7,.9-1.1,1.3-1.1s.9,.2,1.3,.5c.4,.3,.9,1.3,1.3,1.3s.9-.4,1.3-.4,.9,.2,1.3,.2,.9-2.6,1.3-4.4c.4-1.9,.9-6.8,1.3-6.8s.9,.2,1.3,.5c.4,.3,.9,1.4,1.3,2,.4,.6,.9,.9,1.3,1.5,.4,.6,.9,1.5,1.3,2.2,.4,.7,.9,2,1.3,2s.9-.4,1.3-.4,.9,2.1,1.3,4.2" pointer-events="none"/></g></svg>