<?xml version="1.0" encoding="UTF-8"?><svg id="_層_1" xmlns="http://www.w3.org/2000/svg" viewBox="0 0 170.08 85.04"><defs><style>.cls-1{fill:#c1c1c1;font-family:Roboto-Regular, Roboto;font-size:4px;isolation:isolate;}.cls-2{stroke:#c1c1c1;stroke-width:.5px;}.cls-2,.cls-3{fill:none;}.cls-3{stroke:#ffba49;stroke-width:1.5px;}</style></defs><g id="_層_2"><g><line class="cls-2" x1="168.85" y1="76.33" x2="10.65" y2="76.33"/><line class="cls-2" x1="168.85" y1="41.93" x2="10.65" y2="41.93"/><line class="cls-2" x1="168.85" y1="7.43" x2="10.65" y2="7.43"/><line class="cls-2" x1="10.85" y1="76.33" x2="10.85" y2="74.83"/><line class="cls-2" x1="26.75" y1="76.33" x2="26.75" y2="74.83"/><line class="cls-2" x1="42.55" y1="76.33" x2="42.55" y2="74.83"/><line class="cls-2" x1="58.35" y1="76.33" x2="58.35" y2="74.83"/><line class="cls-2" x1="74.25" y1="76.33" x2="74.25" y2="74.83"/><line class="cls-2" x1="90.05" y1="76.33" x2="90.05" y2="74.83"/><line class="cls-2" x1="105.85" y1="76.33" x2="105.85" y2="74.83"/><line class="cls-2" x1="121.75" y1="76.33" x2="121.75" y2="74.83"/><line class="cls-2" x1="137.55" y1="76.33" x2="137.55" y2="74.83"/><line class="cls-2" x1="153.35" y1="76.33" x2="153.35" y2="74.83"/><line class="cls-2" x1="168.55" y1="76.33" x2="168.55" y2="74.83"/><text class="cls-1" transform="translate(14.2 80.82)"><tspan x="0" y="0">2013</tspan></text><text class="cls-1" transform="translate(1.66 77.65)"><tspan x="0" y="0">-50%</tspan></text><text class="cls-1" transform="translate(5.01 43.32)"><tspan x="0" y="0">0%</tspan></text><text class="cls-1" transform="translate(.5 8.99)"><tspan x="0" y="0">+50%</tspan></text><text class="cls-1" transform="translate(30.07 80.82)"><tspan x="0" y="0">2014</tspan></text><text class="cls-1" transform="translate(45.94 80.82)"><tspan x="0" y="0">2015</tspan></text><text class="cls-1" transform="translate(61.82 80.82)"><tspan x="0" y="0">2016</tspan></text><text class="cls-1" transform="translate(77.69 80.82)"><tspan x="0" y="0">2017</tspan></text><text class="cls-1" transform="translate(93.56 80.82)"><tspan x="0" y="0">2018</tspan></text><text class="cls-1" transform="translate(109.43 80.82)"><tspan x="0" y="0">2019</tspan></text><text class="cls-1" transform="translate(125.3 80.82)"><tspan x="0" y="0">2020</tspan></text><text class="cls-1" transform="translate(141.17 80.82)"><tspan x="0" y="0">2021</tspan></text><text class="cls-1" transform="translate(157.04 80.82)"><tspan x="0" y="0">2022</tspan></text></g></g><g id="_01-200"><path class="cls-3" d="M11.25,44.73c.4-.1,.9-.3,1.3-.4s.9-.2,1.3-.3c.4-.1,.9-.5,1.3-.5s.9,.4,1.3,.5c.4,.2,.9,.4,1.3,.4s.9-.1,1.3-.1,.9,.8,1.3,.8,.9-.7,1.3-.8c.4-.1,.9-.1,1.3-.1,.4-.1,.9-.2,1.3-.2s.9,.7,1.3,.7,.9-1.4,1.3-1.4,.9,.2,1.3,.3h1.3c.4,0,.9-.4,1.3-.4s.9,.8,1.3,.8,.9-.1,1.3-.1,.9,.3,1.3,.3,.9,0,1.3-.1c.4-.1,.9-.7,1.3-.9,.4-.2,.9-.2,1.3-.3,.4-.1,.9-.1,1.3-.1s.9,.6,1.3,.6,.9-.5,1.3-.7c.4-.1,.9-.1,1.3-.2s.9-.2,1.3-.2h1.3c.4,0,.9,.1,1.3,.1s.9,0,1.3-.1c.4,0,.9,0,1.3-.1,.4,0,.9-.5,1.3-.5s.9,.1,1.3,.3c.4,.2,.9,.9,1.3,.9s.9-.4,1.3-.4,.9,.1,1.3,.1,.9-.5,1.3-.6c.4-.2,.9-.2,1.3-.3,.4-.1,.9-.3,1.3-.4s.9-.1,1.3-.1,.9,.5,1.3,.6c.4,.1,.9,.1,1.3,.1s.9-.1,1.3-.1,.9,.1,1.3,.1,.9-.4,1.3-.4,.9,.1,1.3,.2c.4,.1,.9,.2,1.3,.3,.4,0,.9,.1,1.3,.1s.9-.3,1.3-.3,.9,.1,1.3,.1,.9,0,1.3-.1c.4,0,.9-.2,1.3-.2s.9,.1,1.3,.1,.9-.1,1.3-.1h2.6c.4,0,.9-.5,1.3-.5s.9,.3,1.3,.3h1.3c.4,0,.9-.4,1.3-.4s.9,.4,1.3,.4,.9-.4,1.3-.6c.4-.2,.9-.5,1.3-.6,.4-.2,.9-.2,1.3-.3s.9-.2,1.3-.2,.9,.3,1.3,.4c.4,.2,.9,.5,1.3,.5h1.3c.4,0,.9,.2,1.3,.4,.4,.1,.9,.4,1.3,.4s.9,0,1.3-.1,.9-.1,1.3-.2,.9-.3,1.3-.4c.4-.2,.9-.6,1.3-.6s.9,0,1.3,.1c.4,0,.9,.1,1.3,.1s.9,.1,1.3,.1,.9,.1,1.3,.1,.9-1.5,1.3-1.5,.9,.1,1.3,.1,.9-.3,1.3-.4h1.3c.4,0,.9,.1,1.3,.1s.9-.7,1.3-.7,.9,.1,1.3,.1,.9,0,1.3-.1,.9-.2,1.3-.2,.9,.1,1.3,.2c.4,.1,.9,1,1.3,1.1s.9,.1,1.3,.2c.4,.1,.9,.1,1.3,.1,.4,.1,.9,.2,1.3,.2h1.3c.4,0,.9,.5,1.3,.5s.9-.1,1.3-.1,.9-.1,1.3-.2c.4,0,.9-.1,1.3-.1s.9,.1,1.3,.1,.9-.3,1.3-.4c.4-.1,.9-.2,1.3-.3,.4-.2,.9-.4,1.3-.6,.4-.2,.9-.4,1.3-.4s.9,.2,1.3,.2c.4,.1,.9,.2,1.3,.2s.9-.1,1.3-.3,.9-.4,1.3-.5,.9-.2,1.3-.2,.9,.8,1.3,.8,.9-1.9,1.3-2.1c.4-.2,.9-.3,1.3-.4s.9,0,1.3,0,.9-.5,1.3-.5h1.3c.4,0,.9-.7,1.3-.7s.9,.1,1.3,.1,.9,0,1.3,.1,.9,.4,1.3,.4,.9-.2,1.3-.4,.9-.5,1.3-.5,.9,.1,1.3,.2" pointer-events="none"/></g></svg>