<?xml version="1.0" encoding="UTF-8"?><svg id="_層_1" xmlns="http://www.w3.org/2000/svg" viewBox="0 0 170.08 85.04"><defs><style>.cls-1{fill:#c1c1c1;font-family:Roboto-Regular, Roboto;font-size:4px;isolation:isolate;}.cls-2{stroke:#c1c1c1;stroke-width:.5px;}.cls-2,.cls-3{fill:none;}.cls-3{stroke:#ef5b5b;stroke-width:1.5px;}</style></defs><g id="_層_2"><g><line class="cls-2" x1="168.85" y1="77.04" x2="10.65" y2="77.04"/><line class="cls-2" x1="168.85" y1="42.64" x2="10.65" y2="42.64"/><line class="cls-2" x1="168.85" y1="8.24" x2="10.65" y2="8.24"/><line class="cls-2" x1="10.85" y1="77.04" x2="10.85" y2="75.54"/><line class="cls-2" x1="26.75" y1="77.04" x2="26.75" y2="75.54"/><line class="cls-2" x1="42.55" y1="77.04" x2="42.55" y2="75.54"/><line class="cls-2" x1="58.35" y1="77.04" x2="58.35" y2="75.54"/><line class="cls-2" x1="74.25" y1="77.04" x2="74.25" y2="75.54"/><line class="cls-2" x1="90.05" y1="77.04" x2="90.05" y2="75.54"/><line class="cls-2" x1="105.85" y1="77.04" x2="105.85" y2="75.54"/><line class="cls-2" x1="121.75" y1="77.04" x2="121.75" y2="75.54"/><line class="cls-2" x1="137.55" y1="77.04" x2="137.55" y2="75.54"/><line class="cls-2" x1="153.35" y1="77.04" x2="153.35" y2="75.54"/><line class="cls-2" x1="168.55" y1="77.04" x2="168.55" y2="75.54"/><text class="cls-1" transform="translate(14.2 81.54)"><tspan x="0" y="0">2013</tspan></text><text class="cls-1" transform="translate(1.66 78.38)"><tspan x="0" y="0">-50%</tspan></text><text class="cls-1" transform="translate(5.01 44.05)"><tspan x="0" y="0">0%</tspan></text><text class="cls-1" transform="translate(.5 9.71)"><tspan x="0" y="0">+50%</tspan></text><text class="cls-1" transform="translate(30.07 81.54)"><tspan x="0" y="0">2014</tspan></text><text class="cls-1" transform="translate(45.94 81.54)"><tspan x="0" y="0">2015</tspan></text><text class="cls-1" transform="translate(61.82 81.54)"><tspan x="0" y="0">2016</tspan></text><text class="cls-1" transform="translate(77.69 81.54)"><tspan x="0" y="0">2017</tspan></text><text class="cls-1" transform="translate(93.56 81.54)"><tspan x="0" y="0">2018</tspan></text><text class="cls-1" transform="translate(109.43 81.54)"><tspan x="0" y="0">2019</tspan></text><text class="cls-1" transform="translate(125.3 81.54)"><tspan x="0" y="0">2020</tspan></text><text class="cls-1" transform="translate(141.17 81.54)"><tspan x="0" y="0">2021</tspan></text><text class="cls-1" transform="translate(157.04 81.54)"><tspan x="0" y="0">2022</tspan></text></g></g><g id="_-100"><path class="cls-3" d="M11.25,49.14c.4-1.9,.9-3.8,1.3-3.8s.9,3.8,1.3,3.8h7.8c.4,0,.9-.2,1.3-.2h2.6c.4,0,.9-2,1.3-2.1h1.3c.4,0,.9,1.8,1.3,1.8h13c.4,0,.9-3.7,1.3-3.7s.9,3.7,1.3,3.7h7.8c.4,0,.9-5.2,1.3-5.2h3.9c.4,0,.9-3.8,1.3-3.8s.9,3.8,1.3,3.8h1.3c.4,0,.9-.3,1.3-.4,.4-.1,.9-.3,1.3-.3h6.5c.4,0,.9-.1,1.3-.2s.9-2.8,1.3-2.8,.9,2.3,1.3,2.5c.4,.3,.9,.4,1.3,.4h13c.4,0,.9-4.8,1.3-4.8s.9,4.8,1.3,4.8h5.2c.4,0,.9-.1,1.3-.1h6.5c.4,0,.9-4.9,1.3-4.9s.9,4.9,1.3,4.9h10.4c.4,0,.9-.4,1.3-1.2s.9-5,1.3-5,.9,4.1,1.3,4.1,.9-.1,1.3-.1h13c.4,0,.9-4.9,1.3-4.9s.9,4.9,1.3,4.9h1.3c.4,0,.9-.4,1.3-.4h9.1c.4,0,.9-1.4,1.3-2.3s.9-3.1,1.3-3.1,.9,2.6,1.3,2.6h1.3c.4,0,.9-.4,1.3-.4h9.1" pointer-events="none"/></g></svg>