<?xml version="1.0" encoding="UTF-8"?><svg id="_層_1" xmlns="http://www.w3.org/2000/svg" viewBox="0 0 170.08 85.04"><defs><style>.cls-1{fill:#c1c1c1;font-family:Roboto-Regular, Roboto;font-size:4px;isolation:isolate;}.cls-2{stroke:#c1c1c1;stroke-width:.5px;}.cls-2,.cls-3{fill:none;}.cls-3{stroke:#ef5b5b;stroke-width:1.5px;}</style></defs><g id="_層_2"><g><line class="cls-2" x1="168.56" y1="76.79" x2="10.36" y2="76.79"/><line class="cls-2" x1="168.56" y1="42.29" x2="10.36" y2="42.29"/><line class="cls-2" x1="168.56" y1="7.89" x2="10.36" y2="7.89"/><line class="cls-2" x1="10.66" y1="76.79" x2="10.66" y2="75.19"/><line class="cls-2" x1="26.46" y1="76.79" x2="26.46" y2="75.19"/><line class="cls-2" x1="42.26" y1="76.79" x2="42.26" y2="75.19"/><line class="cls-2" x1="58.16" y1="76.79" x2="58.16" y2="75.19"/><line class="cls-2" x1="73.96" y1="76.79" x2="73.96" y2="75.19"/><line class="cls-2" x1="89.76" y1="76.79" x2="89.76" y2="75.19"/><line class="cls-2" x1="105.66" y1="76.79" x2="105.66" y2="75.19"/><line class="cls-2" x1="121.46" y1="76.79" x2="121.46" y2="75.19"/><line class="cls-2" x1="137.26" y1="76.79" x2="137.26" y2="75.19"/><line class="cls-2" x1="153.16" y1="76.79" x2="153.16" y2="75.19"/><line class="cls-2" x1="168.36" y1="76.79" x2="168.36" y2="75.19"/><text class="cls-1" transform="translate(13.94 81.21)"><tspan x="0" y="0">2013</tspan></text><text class="cls-1" transform="translate(1.4 78.04)"><tspan x="0" y="0">-50%</tspan></text><text class="cls-1" transform="translate(4.75 43.71)"><tspan x="0" y="0">0%</tspan></text><text class="cls-1" transform="translate(.23 9.38)"><tspan x="0" y="0">+50%</tspan></text><text class="cls-1" transform="translate(29.81 81.21)"><tspan x="0" y="0">2014</tspan></text><text class="cls-1" transform="translate(45.68 81.21)"><tspan x="0" y="0">2015</tspan></text><text class="cls-1" transform="translate(61.55 81.21)"><tspan x="0" y="0">2016</tspan></text><text class="cls-1" transform="translate(77.42 81.21)"><tspan x="0" y="0">2017</tspan></text><text class="cls-1" transform="translate(93.29 81.21)"><tspan x="0" y="0">2018</tspan></text><text class="cls-1" transform="translate(109.16 81.21)"><tspan x="0" y="0">2019</tspan></text><text class="cls-1" transform="translate(125.03 81.21)"><tspan x="0" y="0">2020</tspan></text><text class="cls-1" transform="translate(140.91 81.21)"><tspan x="0" y="0">2021</tspan></text><text class="cls-1" transform="translate(156.78 81.21)"><tspan x="0" y="0">2022</tspan></text></g></g><g id="_-100"><path class="cls-3" d="M10.86,46.09c.4,0,.9,0,1.3-.1,.4,0,.9-.1,1.3-.1h2.6c.4,0,.9,.1,1.3,.1h1.3c.4,0,.9-.1,1.3-.2s.9-.4,1.3-.4h1.3c.4,0,.9-.3,1.3-.4s.9-.2,1.3-.2h2.6c.4,0,.9-.1,1.3-.1s.9,0,1.3-.1c.4,0,.9-.1,1.3-.1h1.3c.4,0,.9,.2,1.3,.2h7.8c.4,0,.9-.2,1.3-.2h1.3c.4,0,.9-.1,1.3-.2s.9,0,1.3-.1c.4,0,.9-.2,1.3-.2h1.3c.4,0,.9,0,1.3-.1,.4-.1,.9-.5,1.3-.6s.9-.1,1.3-.2c.4-.1,.9-.4,1.3-.5s.9-.2,1.3-.2,.9,.1,1.3,.1h2.6c.4,0,.9-.2,1.3-.2h19.5c.4,0,.9-1.1,1.3-1.9s.9-1.2,1.3-2.8c.4-1.6,.9-4.9,1.3-7s.9-4.1,1.3-5.5,.9-2.3,1.3-3.1,.9-1.6,1.3-1.8c.4-.1,.9-.1,1.3-.2s.9-.1,1.3-.2c.4-.1,.9-.4,1.3-.4h1.3c.4,0,.9-.1,1.3-.1h32.5c.4,0,.9-.1,1.3-.1h2.6c.4,0,.9-.4,1.3-.4h5.2c.4,0,.9-.1,1.3-.1h3.9c.4,0,.9-.1,1.3-.1s.9-.1,1.3-.1h15.6c.4,0,.9-.1,1.3-.1s.9-.1,1.3-.1h1.3" pointer-events="none"/></g></svg>