<?xml version="1.0" encoding="UTF-8"?><svg id="_層_1" xmlns="http://www.w3.org/2000/svg" viewBox="0 0 170.08 85.04"><defs><style>.cls-1{fill:#c1c1c1;font-family:Roboto-Regular, Roboto;font-size:4px;isolation:isolate;}.cls-2{stroke:#c1c1c1;stroke-width:.5px;}.cls-2,.cls-3{fill:none;}.cls-3{stroke:#ef5b5b;stroke-width:1.5px;}</style></defs><g id="_層_2"><g><line class="cls-2" x1="169.64" y1="75.86" x2="11.44" y2="75.86"/><line class="cls-2" x1="169.64" y1="41.46" x2="11.44" y2="41.46"/><line class="cls-2" x1="169.64" y1="6.96" x2="11.44" y2="6.96"/><line class="cls-2" x1="11.64" y1="75.86" x2="11.64" y2="74.36"/><line class="cls-2" x1="27.54" y1="75.86" x2="27.54" y2="74.36"/><line class="cls-2" x1="43.34" y1="75.86" x2="43.34" y2="74.36"/><line class="cls-2" x1="59.14" y1="75.86" x2="59.14" y2="74.36"/><line class="cls-2" x1="75.04" y1="75.86" x2="75.04" y2="74.36"/><line class="cls-2" x1="90.84" y1="75.86" x2="90.84" y2="74.36"/><line class="cls-2" x1="106.64" y1="75.86" x2="106.64" y2="74.36"/><line class="cls-2" x1="122.54" y1="75.86" x2="122.54" y2="74.36"/><line class="cls-2" x1="138.34" y1="75.86" x2="138.34" y2="74.36"/><line class="cls-2" x1="154.14" y1="75.86" x2="154.14" y2="74.36"/><line class="cls-2" x1="169.34" y1="75.86" x2="169.34" y2="74.36"/><text class="cls-1" transform="translate(15 80.33)"><tspan x="0" y="0">2013</tspan></text><text class="cls-1" transform="translate(2.46 77.17)"><tspan x="0" y="0">-50%</tspan></text><text class="cls-1" transform="translate(5.81 42.84)"><tspan x="0" y="0">0%</tspan></text><text class="cls-1" transform="translate(1.3 8.51)"><tspan x="0" y="0">+50%</tspan></text><text class="cls-1" transform="translate(30.87 80.33)"><tspan x="0" y="0">2014</tspan></text><text class="cls-1" transform="translate(46.74 80.33)"><tspan x="0" y="0">2015</tspan></text><text class="cls-1" transform="translate(62.61 80.33)"><tspan x="0" y="0">2016</tspan></text><text class="cls-1" transform="translate(78.48 80.33)"><tspan x="0" y="0">2017</tspan></text><text class="cls-1" transform="translate(94.35 80.33)"><tspan x="0" y="0">2018</tspan></text><text class="cls-1" transform="translate(110.22 80.33)"><tspan x="0" y="0">2019</tspan></text><text class="cls-1" transform="translate(126.09 80.33)"><tspan x="0" y="0">2020</tspan></text><text class="cls-1" transform="translate(141.97 80.33)"><tspan x="0" y="0">2021</tspan></text><text class="cls-1" transform="translate(157.84 80.33)"><tspan x="0" y="0">2022</tspan></text></g></g><g id="_-100"><path class="cls-3" d="M12.14,47.16c.4-2.5,.9-4.9,1.3-4.9s.9,8.3,1.3,8.3,.9-1.6,1.3-1.6,.9,.8,1.3,.8,.9-2.3,1.3-3.7c.4-1.4,.9-4.8,1.3-4.8s.9,2.7,1.3,2.7,.9-.1,1.3-.2c.4-.1,.9-1,1.3-1s.9,2.1,1.3,2.5c.4,.4,.9,.6,1.3,.6s.9-3.8,1.3-3.8,.9,.4,1.3,1.2c.4,.7,.9,3.2,1.3,3.2s.9-.3,1.3-.4c.4-.1,.9-.1,1.3-.4,.4-.3,.9-2.2,1.3-3.1,.4-.9,.9-2.4,1.3-2.4s.9,1.9,1.3,2.6c.4,.7,.9,1.4,1.3,1.4s.9-.6,1.3-.6,.9,.7,1.3,1.1,.9,1.1,1.3,1.1,.9-.1,1.3-.4,.9-5.9,1.3-5.9,.9,3.7,1.3,4.6c.4,.9,.9,.8,1.3,1.3,.4,.5,.9,1.8,1.3,1.8s.9-2.1,1.3-3.1c.4-.9,.9-2.5,1.3-2.5s.9,1,1.3,1.6c.4,.6,.9,1.8,1.3,1.8s.9-1.5,1.3-1.5,.9,2.2,1.3,2.2,.9-.9,1.3-1.6c.4-.7,.9-1.4,1.3-2.7,.4-1.3,.9-5.3,1.3-5.3s.9,8.2,1.3,8.5c.4,.3,.9,.4,1.3,.5,.4,.1,.9,.1,1.3,.1s.9-1.4,1.3-2.3c.4-.8,.9-2.7,1.3-2.7h1.3c.4,0,.9,.3,1.3,.3s.9-.2,1.3-.2,.9,.4,1.3,.4h1.3c.4,0,.9-8.7,1.3-8.7s.9,4.8,1.3,6.2c.4,1.4,.9,2,1.3,2.2,.4,.2,.9,.3,1.3,.3s.9-3.9,1.3-4.4c.4-.5,.9-.8,1.3-.8s.9,1.2,1.3,1.2,.9,.1,1.3,.1,.9-1.6,1.3-1.6,.9,.5,1.3,.5,.9-.3,1.3-.4,.9-.2,1.3-.4c.4-.2,.9-.4,1.3-1.1,.4-.7,.9-9.1,1.3-9.1s.9,8.9,1.3,9.6c.4,.8,.9,1.1,1.3,1.1s.9-.1,1.3-.4,.9-1.5,1.3-2,.9-1.3,1.3-1.3,.9,1.2,1.3,1.6c.4,.4,.9,.7,1.3,.8,.4,.1,.9,.1,1.3,.2s.9,2.4,1.3,2.4,.9-.3,1.3-.9c.4-.6,.9-4.8,1.3-5.8,.4-1,.9-1.5,1.3-1.5s.9,4.2,1.3,4.8c.4,.6,.9,1,1.3,1s.9-2,1.3-2,.9,1.1,1.3,1.1,.9-.4,1.3-.7c.4-.2,.9-.8,1.3-.8s.9,0,1.3,.1c.4,.1,.9,1.1,1.3,1.1s.9,0,1.3-.1c.4,0,.9-.1,1.3-.4s.9-6.7,1.3-6.7,.9,2.3,1.3,3.3c.4,.9,.9,2.3,1.3,2.3s.9-1.7,1.3-1.7,.9,1,1.3,1.4c.4,.4,.9,.6,1.3,.9,.4,.4,.9,1.4,1.3,1.4s.9-2,1.3-2,.9,1.7,1.3,1.7,.9-1.2,1.3-1.2,.9,1.5,1.3,1.5,.9-.2,1.3-.5c.4-.3,.9-.7,1.3-1.1,.4-.4,.9-1.5,1.3-1.5s.9,4,1.3,4,.9-1,1.3-1h1.3c.4,0,.9-.8,1.3-.8s.9,.1,1.3,.2,.9,1,1.3,1,.9-.3,1.3-.3,.9,.8,1.3,1.1,.9,.3,1.3,.3,.9-1,1.3-2c.4-1.1,.9-4,1.3-4.4,.4-.4,.9-.6,1.3-.6s.9,2.9,1.3,2.9,.9-.7,1.3-1.3c.4-.6,.9-2.3,1.3-2.3s.9,.2,1.3,.2,.9-.6,1.3-.8c.4-.2,.9-.5,1.3-.5s.9,.6,1.3,1.1,.9,1.4,1.3,1.8c.4,.5,.9,.9,1.3,.9s.9-1.7,1.3-3.3" pointer-events="none"/></g></svg>