<?xml version="1.0" encoding="UTF-8"?><svg id="_層_1" xmlns="http://www.w3.org/2000/svg" viewBox="0 0 170.08 85.04"><defs><style>.cls-1{fill:#c1c1c1;font-family:Roboto-Regular, Roboto;font-size:4px;isolation:isolate;}.cls-2{stroke:#c1c1c1;stroke-width:.5px;}.cls-2,.cls-3{fill:none;}.cls-3{stroke:#ef5b5b;stroke-width:1.5px;}</style></defs><g id="_層_2"><g><line class="cls-2" x1="168.85" y1="76.9" x2="10.65" y2="76.9"/><line class="cls-2" x1="168.85" y1="42.4" x2="10.65" y2="42.4"/><line class="cls-2" x1="168.85" y1="8" x2="10.65" y2="8"/><line class="cls-2" x1="10.85" y1="76.9" x2="10.85" y2="75.3"/><line class="cls-2" x1="26.75" y1="76.9" x2="26.75" y2="75.3"/><line class="cls-2" x1="42.55" y1="76.9" x2="42.55" y2="75.3"/><line class="cls-2" x1="58.35" y1="76.9" x2="58.35" y2="75.3"/><line class="cls-2" x1="74.25" y1="76.9" x2="74.25" y2="75.3"/><line class="cls-2" x1="90.05" y1="76.9" x2="90.05" y2="75.3"/><line class="cls-2" x1="105.85" y1="76.9" x2="105.85" y2="75.3"/><line class="cls-2" x1="121.75" y1="76.9" x2="121.75" y2="75.3"/><line class="cls-2" x1="137.55" y1="76.9" x2="137.55" y2="75.3"/><line class="cls-2" x1="153.35" y1="76.9" x2="153.35" y2="75.3"/><line class="cls-2" x1="168.55" y1="76.9" x2="168.55" y2="75.3"/><text class="cls-1" transform="translate(14.2 81.32)"><tspan x="0" y="0">2013</tspan></text><text class="cls-1" transform="translate(1.66 78.15)"><tspan x="0" y="0">-50%</tspan></text><text class="cls-1" transform="translate(5.01 43.82)"><tspan x="0" y="0">0%</tspan></text><text class="cls-1" transform="translate(.5 9.49)"><tspan x="0" y="0">+50%</tspan></text><text class="cls-1" transform="translate(30.07 81.32)"><tspan x="0" y="0">2014</tspan></text><text class="cls-1" transform="translate(45.94 81.32)"><tspan x="0" y="0">2015</tspan></text><text class="cls-1" transform="translate(61.82 81.32)"><tspan x="0" y="0">2016</tspan></text><text class="cls-1" transform="translate(77.69 81.32)"><tspan x="0" y="0">2017</tspan></text><text class="cls-1" transform="translate(93.56 81.32)"><tspan x="0" y="0">2018</tspan></text><text class="cls-1" transform="translate(109.43 81.32)"><tspan x="0" y="0">2019</tspan></text><text class="cls-1" transform="translate(125.3 81.32)"><tspan x="0" y="0">2020</tspan></text><text class="cls-1" transform="translate(141.17 81.32)"><tspan x="0" y="0">2021</tspan></text><text class="cls-1" transform="translate(157.04 81.32)"><tspan x="0" y="0">2022</tspan></text></g></g><g id="_-100"><path class="cls-3" d="M11.25,59.3c.4,4.9,.9,9.7,1.3,10.7,.4,1,.9,1.5,1.3,1.5s.9-11.9,1.3-11.9,.9,1,1.3,1.2,.9,.3,1.3,.3,.9-1.2,1.3-1.8c.4-.6,.9-.7,1.3-2,.4-1.3,.9-22.2,1.3-22.2s.9,15.9,1.3,20.7c.4,4.7,.9,7.7,1.3,7.7s.9-1.1,1.3-1.1,.9,4.6,1.3,4.6,.9-2.1,1.3-2.1,.9,.7,1.3,1.2c.4,.5,.9,1.6,1.3,1.6s.9-5.6,1.3-7.7c.4-2.1,.9-4.8,1.3-4.8s.9,3.2,1.3,3.2,.9-8.8,1.3-8.8,.9,7.3,1.3,7.7c.4,.4,.9,.2,1.3,.6,.4,.4,.9,8.4,1.3,8.4s.9-12,1.3-12,.9,4.8,1.3,7c.4,2.2,.9,6,1.3,6s.9-1.2,1.3-2.3c.4-1.1,.9-4.5,1.3-4.5s.9,2,1.3,2,.9-14.1,1.3-14.1,.9,9.9,1.3,9.9,.9-10.2,1.3-15c.4-4.8,.9-13.5,1.3-13.5s.9,8,1.3,11.7c.4,3.7,.9,8.2,1.3,10.6,.4,2.4,.9,3.8,1.3,3.8s.9-.5,1.3-1.6c.4-1.1,.9-28.9,1.3-28.9s.9,10.3,1.3,12.9c.4,2.6,.9,1.6,1.3,3.9,.4,2.3,.9,9.9,1.3,9.9s.9-2,1.3-3.1c.4-1.2,.9-4,1.3-4s.9,4.1,1.3,4.1,.9-3.3,1.3-8.4,.9-22.5,1.3-22.5,.9,17.8,1.3,23.7,.9,8.4,1.3,11.7,.9,8.1,1.3,8.1,.9-3.7,1.3-3.7,.9,1.5,1.3,1.9,.9,.8,1.3,.8,.9-.5,1.3-1.4,.9-20.4,1.3-20.4,.9,7.8,1.3,7.8,.9-1.2,1.3-1.2,.9,4.4,1.3,4.4,.9-6.3,1.3-6.3,.9,2.4,1.3,3.6,.9,2.7,1.3,3.5,.9,1.3,1.3,1.3,.9-1.2,1.3-1.2,.9,10.3,1.3,10.4,.9,.1,1.3,.1,.9-.1,1.3-.2,.9-3.7,1.3-6.3c.4-2.6,.9-9.5,1.3-9.5s.9,5.8,1.3,5.8,.9-13.6,1.3-13.6,.9,16.4,1.3,18.1,.9,2,1.3,2.6,.9,.5,1.3,.8,.9,1,1.3,1,.9-3,1.3-4.6,.9-5.1,1.3-5.1,.9,3.1,1.3,3.1,.9-.2,1.3-.7c.4-.4,.9-2,1.3-3.1s.9-1.9,1.3-3.6,.9-7,1.3-7,.9,.2,1.3,.5,.9,14.1,1.3,14.1,.9-1,1.3-1.8,.9-3,1.3-3,.9,2.9,1.3,2.9,.9-1.3,1.3-1.3,.9,7,1.3,7,.9-3.2,1.3-3.2,.9,.3,1.3,.3,.9-15.4,1.3-15.4,.9,12.4,1.3,12.4,.9-12.9,1.3-12.9,.9,6,1.3,7.9c.4,2,.9,3.8,1.3,3.8s.9-5.4,1.3-5.4,.9,1.1,1.3,1.1,.9-4.9,1.3-4.9,.9,11.3,1.3,12.5,.9,1.7,1.3,1.7,.9-2.3,1.3-2.3,.9,2.2,1.3,2.2,.9-18.8,1.3-19.4,.9-.3,1.3-1c.4-.6,.9-14.1,1.3-14.1s.9,12.8,1.3,15,.9,2.1,1.3,3.3c.4,1.2,.9,2.4,1.3,3.8s.9,3.4,1.3,4.4,.9,1.6,1.3,1.6,.9-9.4,1.3-9.8c.4-.3,.9-.5,1.3-.5s.9,2.3,1.3,3,.9,1.5,1.3,1.5,.9-5.9,1.3-5.9,.9,2.6,1.3,2.6,.9-.1,1.3-.3c.4-.2,.9-5.2,1.3-5.2s.9,9.1,1.3,9.1,.9-.9,1.3-2.7c.4-1.8,.9-6.5,1.3-11.2" pointer-events="none"/></g></svg>