<?xml version="1.0" encoding="UTF-8"?><svg id="_層_1" xmlns="http://www.w3.org/2000/svg" viewBox="0 0 170.08 85.04"><defs><style>.cls-1{fill:#c1c1c1;font-family:Roboto-Regular, Roboto;font-size:4px;isolation:isolate;}.cls-2{stroke:#c1c1c1;stroke-width:.5px;}.cls-2,.cls-3{fill:none;}.cls-3{stroke:#ef5b5b;stroke-width:1.5px;}</style></defs><g id="_層_2"><g><line class="cls-2" x1="169.64" y1="77.14" x2="11.44" y2="77.14"/><line class="cls-2" x1="169.64" y1="42.74" x2="11.44" y2="42.74"/><line class="cls-2" x1="169.64" y1="8.24" x2="11.44" y2="8.24"/><line class="cls-2" x1="11.64" y1="77.14" x2="11.64" y2="75.64"/><line class="cls-2" x1="27.54" y1="77.14" x2="27.54" y2="75.64"/><line class="cls-2" x1="43.34" y1="77.14" x2="43.34" y2="75.64"/><line class="cls-2" x1="59.14" y1="77.14" x2="59.14" y2="75.64"/><line class="cls-2" x1="75.04" y1="77.14" x2="75.04" y2="75.64"/><line class="cls-2" x1="90.84" y1="77.14" x2="90.84" y2="75.64"/><line class="cls-2" x1="106.64" y1="77.14" x2="106.64" y2="75.64"/><line class="cls-2" x1="122.54" y1="77.14" x2="122.54" y2="75.64"/><line class="cls-2" x1="138.34" y1="77.14" x2="138.34" y2="75.64"/><line class="cls-2" x1="154.14" y1="77.14" x2="154.14" y2="75.64"/><line class="cls-2" x1="169.34" y1="77.14" x2="169.34" y2="75.64"/><text class="cls-1" transform="translate(15 81.59)"><tspan x="0" y="0">2013</tspan></text><text class="cls-1" transform="translate(2.46 78.43)"><tspan x="0" y="0">-50%</tspan></text><text class="cls-1" transform="translate(5.81 44.1)"><tspan x="0" y="0">0%</tspan></text><text class="cls-1" transform="translate(1.3 9.77)"><tspan x="0" y="0">+50%</tspan></text><text class="cls-1" transform="translate(30.87 81.59)"><tspan x="0" y="0">2014</tspan></text><text class="cls-1" transform="translate(46.74 81.59)"><tspan x="0" y="0">2015</tspan></text><text class="cls-1" transform="translate(62.61 81.59)"><tspan x="0" y="0">2016</tspan></text><text class="cls-1" transform="translate(78.48 81.59)"><tspan x="0" y="0">2017</tspan></text><text class="cls-1" transform="translate(94.35 81.59)"><tspan x="0" y="0">2018</tspan></text><text class="cls-1" transform="translate(110.22 81.59)"><tspan x="0" y="0">2019</tspan></text><text class="cls-1" transform="translate(126.09 81.59)"><tspan x="0" y="0">2020</tspan></text><text class="cls-1" transform="translate(141.97 81.59)"><tspan x="0" y="0">2021</tspan></text><text class="cls-1" transform="translate(157.84 81.59)"><tspan x="0" y="0">2022</tspan></text></g></g><g id="_-100"><path class="cls-3" d="M12.14,53.84c.4,1.3,.9,2.5,1.3,4.2,.4,1.7,.9,6,1.3,6s.9-5.9,1.3-7.6,.9-2.9,1.3-2.9,.9,6.6,1.3,7c.4,.4,.9,.6,1.3,.6s.9-.6,1.3-1.7c.4-1.2,.9-36.9,1.3-36.9s.9,13.8,1.3,20.5c.4,6.7,.9,19.7,1.3,19.7s.9-2.2,1.3-2.9c.4-.8,.9-1.6,1.3-1.6h1.3c.4,0,.9-6.2,1.3-6.2s.9,3.1,1.3,5.2c.4,2.1,.9,7.6,1.3,7.6s.9-5.4,1.3-5.4,.9,2.7,1.3,2.7,.9-7.7,1.3-7.7,.9,6.3,1.3,6.3,.9-3.9,1.3-3.9,.9,7.5,1.3,7.5,.9-7.2,1.3-9.4c.4-2.1,.9-3.4,1.3-3.4s.9,3.8,1.3,3.8h1.3c.4,0,.9,2.3,1.3,3.8,.4,1.5,.9,5.1,1.3,5.1s.9-13.9,1.3-13.9,.9,13,1.3,13,.9-13.7,1.3-20c.4-6.3,.9-17.9,1.3-17.9s.9,2.9,1.3,7.5,.9,15.9,1.3,19.7,.9,5.7,1.3,5.7,.9-1.6,1.3-4.7c.4-3.1,.9-19.2,1.3-22.9,.4-3.7,.9-5.5,1.3-5.5s.9,2.4,1.3,7.1c.4,4.8,.9,25.2,1.3,29,.4,3.8,.9,5.7,1.3,5.7s.9-8.9,1.3-10,.9-.5,1.3-1.6,.9-2.1,1.3-6.4,.9-42.4,1.3-42.4,.9,11.8,1.3,19.1c.4,7.4,.9,19.1,1.3,25.2,.4,6.1,.9,11.5,1.3,11.5s.9-1.7,1.3-2.2c.4-.5,.9-.6,1.3-.7,.4-.1,.9-.2,1.3-.2s.9,.9,1.3,.9,.9-14.2,1.3-15.5c.4-1.3,.9-2,1.3-2h1.3c.4,0,.9,7.5,1.3,8.5,.4,1,.9,1.5,1.3,1.5s.9-.5,1.3-.9c.4-.4,.9-.6,1.3-1.5,.4-.9,.9-2.1,1.3-3.7,.4-1.5,.9-5.4,1.3-5.4s.9,.5,1.3,1.6c.4,1.1,.9,11.5,1.3,15.2s.9,6.4,1.3,6.9,.9,.8,1.3,.8,.9-18.1,1.3-18.1,.9,5.3,1.3,5.3,.9-17.4,1.3-17.4,.9,12.8,1.3,17.1c.4,4.2,.9,6.4,1.3,8.3,.4,1.9,.9,3.2,1.3,3.2s.9-2,1.3-3.1c.4-1.1,.9-1.8,1.3-3.4,.4-1.7,.9-6.5,1.3-6.5s.9,2.8,1.3,2.8,.9-.2,1.3-.5c.4-.3,.9-1.7,1.3-3.5,.4-1.7,.9-4.7,1.3-6.8,.4-2.1,.9-4.3,1.3-5.9,.4-1.6,.9-3.8,1.3-3.8s.9,16.9,1.3,19.7c.4,2.9,.9,4.3,1.3,4.3s.9-7.1,1.3-7.7c.4-.6,.9-.4,1.3-.9,.4-.5,.9-2,1.3-2s.9,1.7,1.3,3.1c.4,1.5,.9,4.3,1.3,5.7,.4,1.3,.9,2.3,1.3,2.3s.9-13.9,1.3-13.9,.9,12.3,1.3,12.3,.9-5.7,1.3-5.7,.9,.1,1.3,.4c.4,.2,.9,1.3,1.3,1.3s.9-2.8,1.3-3.5,.9-.3,1.3-1,.9-6.8,1.3-6.8,.9,2.6,1.3,3.9c.4,1.3,.9,2.2,1.3,3.6,.4,1.4,.9,3.1,1.3,4.7,.4,1.6,.9,4.8,1.3,4.8s.9-16.7,1.3-16.7,.9,1.9,1.3,1.9,.9-30.3,1.3-30.3,.9,16.1,1.3,21.7c.4,5.7,.9,12.2,1.3,12.2s.9-.3,1.3-.3,.9,1.3,1.3,1.3,.9-.5,1.3-1.6c.4-1,.9-3.6,1.3-5.6,.4-2.1,.9-5,1.3-6.7,.4-1.7,.9-3.5,1.3-3.5s.9,11.7,1.3,11.7,.9-3.8,1.3-3.8,.9,7.2,1.3,7.8c.4,.5,.9,.8,1.3,.8s.9-6.4,1.3-6.4,.9,3.6,1.3,3.8c.4,.3,.9,.4,1.3,.4s.9-5.3,1.3-10.6" pointer-events="none"/></g></svg>