<?xml version="1.0" encoding="UTF-8"?><svg id="_層_1" xmlns="http://www.w3.org/2000/svg" viewBox="0 0 170.08 85.04"><defs><style>.cls-1{fill:#c1c1c1;font-family:Roboto-Regular, Roboto;font-size:4px;isolation:isolate;}.cls-2{stroke:#c1c1c1;stroke-width:.5px;}.cls-2,.cls-3{fill:none;}.cls-3{stroke:#ffba49;stroke-width:1.5px;}</style></defs><g id="_層_2"><g><line class="cls-2" x1="169.15" y1="77.35" x2="10.85" y2="77.35"/><line class="cls-2" x1="169.15" y1="42.85" x2="10.85" y2="42.85"/><line class="cls-2" x1="169.15" y1="8.45" x2="10.85" y2="8.45"/><line class="cls-2" x1="11.15" y1="77.35" x2="11.15" y2="75.75"/><line class="cls-2" x1="26.95" y1="77.35" x2="26.95" y2="75.75"/><line class="cls-2" x1="42.85" y1="77.35" x2="42.85" y2="75.75"/><line class="cls-2" x1="58.65" y1="77.35" x2="58.65" y2="75.75"/><line class="cls-2" x1="74.45" y1="77.35" x2="74.45" y2="75.75"/><line class="cls-2" x1="90.35" y1="77.35" x2="90.35" y2="75.75"/><line class="cls-2" x1="106.15" y1="77.35" x2="106.15" y2="75.75"/><line class="cls-2" x1="121.95" y1="77.35" x2="121.95" y2="75.75"/><line class="cls-2" x1="137.85" y1="77.35" x2="137.85" y2="75.75"/><line class="cls-2" x1="153.65" y1="77.35" x2="153.65" y2="75.75"/><line class="cls-2" x1="168.85" y1="77.35" x2="168.85" y2="75.75"/><text class="cls-1" transform="translate(14.47 81.76)"><tspan x="0" y="0">2013</tspan></text><text class="cls-1" transform="translate(1.93 78.59)"><tspan x="0" y="0">-50%</tspan></text><text class="cls-1" transform="translate(5.28 44.26)"><tspan x="0" y="0">0%</tspan></text><text class="cls-1" transform="translate(.77 9.93)"><tspan x="0" y="0">+50%</tspan></text><text class="cls-1" transform="translate(30.34 81.76)"><tspan x="0" y="0">2014</tspan></text><text class="cls-1" transform="translate(46.21 81.76)"><tspan x="0" y="0">2015</tspan></text><text class="cls-1" transform="translate(62.08 81.76)"><tspan x="0" y="0">2016</tspan></text><text class="cls-1" transform="translate(77.95 81.76)"><tspan x="0" y="0">2017</tspan></text><text class="cls-1" transform="translate(93.82 81.76)"><tspan x="0" y="0">2018</tspan></text><text class="cls-1" transform="translate(109.69 81.76)"><tspan x="0" y="0">2019</tspan></text><text class="cls-1" transform="translate(125.56 81.76)"><tspan x="0" y="0">2020</tspan></text><text class="cls-1" transform="translate(141.44 81.76)"><tspan x="0" y="0">2021</tspan></text><text class="cls-1" transform="translate(157.31 81.76)"><tspan x="0" y="0">2022</tspan></text></g></g><g id="_01-200"><path class="cls-3" d="M11.55,44.45c.4,1.7,.9,3.5,1.3,3.8,.4,.4,.9,.6,1.3,.6s.9-9.8,1.3-9.8,.9,.9,1.3,1.5c.4,.7,.9,1.4,1.3,2.4s.9,2.3,1.3,3.7c.4,1.4,.9,3.6,1.3,4.6,.4,.9,.9,1.4,1.3,1.4s.9-13.1,1.3-13.1,.9,.4,1.3,.9,.9,1.3,1.3,2.1,.9,2,1.3,2.9,.9,1.7,1.3,2.6,.9,2.9,1.3,2.9,.9-13.2,1.3-13.2,.9,.3,1.3,.8c.4,.6,.9,1.9,1.3,2.9s.9,2.1,1.3,3.2,.9,2.7,1.3,3.6,.9,1.9,1.3,1.9,.9-12.4,1.3-12.4,.9,.7,1.3,1.4,.9,1.7,1.3,3.1c.4,1.3,.9,3.6,1.3,4.9s.9,2.1,1.3,2.9c.4,.7,.9,1.6,1.3,1.6s.9-14.1,1.3-14.1,.9,.8,1.3,1.4,.9,1.1,1.3,2.1,.9,2.7,1.3,3.9c.4,1.2,.9,2.4,1.3,3.2,.4,.8,.9,1.8,1.3,1.8s.9-11.8,1.3-11.8,.9,1,1.3,1.7c.4,.6,.9,1.2,1.3,2.2s.9,2.9,1.3,3.8,.9,1.6,1.3,1.7,.9,.2,1.3,.2,.9-12.8,1.3-12.8,.9,1,1.3,2,.9,3.1,1.3,4.2,.9,1.4,1.3,2.3,.9,2.8,1.3,3.2c.4,.4,.9,.6,1.3,.6s.9-9.6,1.3-9.6,.9,1.6,1.3,2.5,.9,2.1,1.3,3c.4,.8,.9,1.2,1.3,2.1s.9,2.3,1.3,3.2c.4,.9,.9,2.1,1.3,2.1s.9-13,1.3-13,.9,1.8,1.3,2.7c.4,.9,.9,2,1.3,2.8s.9,.9,1.3,2,.9,3.5,1.3,4.7,.9,2.3,1.3,2.3,.9-12.9,1.3-12.9,.9,1.1,1.3,1.7,.9,1,1.3,1.9c.4,1,.9,2.7,1.3,3.8,.4,1.1,.9,2.1,1.3,2.8,.4,.7,.9,1.5,1.3,1.5s.9-14.6,1.3-14.6,.9,1.3,1.3,2.3,.9,2.2,1.3,3.3c.4,1.1,.9,2.6,1.3,3.6s.9,1.8,1.3,2.4,.9,1.4,1.3,1.4,.9-9,1.3-9,.9,.3,1.3,.9,.9,2.2,1.3,3.2,.9,2,1.3,2.8,.9,1.3,1.3,1.9,.9,1.4,1.3,1.4,.9-11.5,1.3-11.5,.9,.9,1.3,1.9,.9,2.9,1.3,4.1,.9,2.1,1.3,3,.9,1.6,1.3,2.1c.4,.6,.9,1.3,1.3,1.3s.9-9.4,1.3-9.4,.9,1.6,1.3,2.1,.9,.4,1.3,1.1,.9,2.9,1.3,3.8,.9,1.8,1.3,1.8,.9,0,1.3-.1,.9-13.4,1.3-13.4,.9,1.9,1.3,2.8,.9,1.9,1.3,2.7c.4,.8,.9,1.6,1.3,2.1s.9,.3,1.3,.7,.9,1.5,1.3,1.5,.9-8.8,1.3-8.8,.9,1.2,1.3,1.6,.9,.2,1.3,.5c.4,.4,.9,1.1,1.3,1.7,.4,.6,.9,1.5,1.3,2,.4,.5,.9,1.1,1.3,1.1s.9-11,1.3-11,.9,.5,1.3,1c.4,.6,.9,1.4,1.3,2.3,.4,.9,.9,2.4,1.3,3.2s.9,.9,1.3,1.6c.4,.7,.9,2.4,1.3,2.4s.9-7.5,1.3-7.5,.9,.8,1.3,1.2c.4,.4,.9,.6,1.3,1.2,.4,.6,.9,1.6,1.3,2.3,.4,.7,.9,1.8,1.3,1.8s.9,0,1.3-.1c.4,0,.9-10.7,1.3-10.7s.9,1.4,1.3,2.1c.4,.7,.9,1.5,1.3,2.3,.4,.8,.9,1.6,1.3,2.2,.4,.7,.9,1.2,1.3,1.7,.4,.5,.9,1.1,1.3,1.1s.9-6.5,1.3-6.5,.9,.2,1.3,.5c.4,.3,.9,1.5,1.3,2.6" pointer-events="none"/></g></svg>