<?xml version="1.0" encoding="UTF-8"?><svg id="_層_1" xmlns="http://www.w3.org/2000/svg" viewBox="0 0 170.08 85.04"><defs><style>.cls-1{fill:#c1c1c1;font-family:Roboto-Regular, Roboto;font-size:4px;isolation:isolate;}.cls-2{stroke:#c1c1c1;stroke-width:.5px;}.cls-2,.cls-3{fill:none;}.cls-3{stroke:#ef5b5b;stroke-width:1.5px;}</style></defs><g id="_層_2"><g><line class="cls-2" x1="168.85" y1="77.37" x2="10.65" y2="77.37"/><line class="cls-2" x1="168.85" y1="42.97" x2="10.65" y2="42.97"/><line class="cls-2" x1="168.85" y1="8.47" x2="10.65" y2="8.47"/><line class="cls-2" x1="10.85" y1="77.37" x2="10.85" y2="75.87"/><line class="cls-2" x1="26.75" y1="77.37" x2="26.75" y2="75.87"/><line class="cls-2" x1="42.55" y1="77.37" x2="42.55" y2="75.87"/><line class="cls-2" x1="58.35" y1="77.37" x2="58.35" y2="75.87"/><line class="cls-2" x1="74.25" y1="77.37" x2="74.25" y2="75.87"/><line class="cls-2" x1="90.05" y1="77.37" x2="90.05" y2="75.87"/><line class="cls-2" x1="105.85" y1="77.37" x2="105.85" y2="75.87"/><line class="cls-2" x1="121.75" y1="77.37" x2="121.75" y2="75.87"/><line class="cls-2" x1="137.55" y1="77.37" x2="137.55" y2="75.87"/><line class="cls-2" x1="153.35" y1="77.37" x2="153.35" y2="75.87"/><line class="cls-2" x1="168.55" y1="77.37" x2="168.55" y2="75.87"/><text class="cls-1" transform="translate(14.2 81.83)"><tspan x="0" y="0">2013</tspan></text><text class="cls-1" transform="translate(1.66 78.66)"><tspan x="0" y="0">-50%</tspan></text><text class="cls-1" transform="translate(5.01 44.33)"><tspan x="0" y="0">0%</tspan></text><text class="cls-1" transform="translate(.5 10)"><tspan x="0" y="0">+50%</tspan></text><text class="cls-1" transform="translate(30.07 81.83)"><tspan x="0" y="0">2014</tspan></text><text class="cls-1" transform="translate(45.94 81.83)"><tspan x="0" y="0">2015</tspan></text><text class="cls-1" transform="translate(61.82 81.83)"><tspan x="0" y="0">2016</tspan></text><text class="cls-1" transform="translate(77.69 81.83)"><tspan x="0" y="0">2017</tspan></text><text class="cls-1" transform="translate(93.56 81.83)"><tspan x="0" y="0">2018</tspan></text><text class="cls-1" transform="translate(109.43 81.83)"><tspan x="0" y="0">2019</tspan></text><text class="cls-1" transform="translate(125.3 81.83)"><tspan x="0" y="0">2020</tspan></text><text class="cls-1" transform="translate(141.17 81.83)"><tspan x="0" y="0">2021</tspan></text><text class="cls-1" transform="translate(157.04 81.83)"><tspan x="0" y="0">2022</tspan></text></g></g><g id="_-100"><path class="cls-3" d="M11.25,51.17c.4,.1,.9,.2,1.3,.3,.4,.1,.9,.2,1.3,.2h1.3c.4,0,.9-.1,1.3-.1h1.3c.4,0,.9-.1,1.3-.2h1.3c.4,0,.9,.2,1.3,.2s.9-1.6,1.3-1.8,.9-.1,1.3-.2c.4-.1,.9-.6,1.3-.7,.4-.1,.9-.1,1.3-.1,.4-.1,.9-.2,1.3-.3,.4-.1,.9-.3,1.3-.3s.9,1,1.3,1.3c.4,.3,.9,.5,1.3,.6,.4,.2,.9,.4,1.3,.4h1.3c.4,0,.9-.4,1.3-.6,.4-.2,.9-.4,1.3-.6,.4-.1,.9-.1,1.3-.2,.4-.1,.9-.1,1.3-.2,.4-.1,.9-.2,1.3-.4,.4-.2,.9-.7,1.3-.7s.9,.4,1.3,.4,.9,0,1.3-.1c.4-.1,.9-.9,1.3-1.2,.4-.3,.9-.4,1.3-.5,.4-.2,.9-.3,1.3-.5,.4-.2,.9-.5,1.3-.7,.4-.2,.9-.5,1.3-.5,.4-.1,.9-.1,1.3-.1h1.3c.4,0,.9,0,1.3-.1,.4-.1,.9-.8,1.3-.9,.4-.1,.9-.1,1.3-.2,.4-.1,.9-.9,1.3-.9s.9,.2,1.3,.2,.9-.1,1.3-.2c.4-.1,.9-.2,1.3-.2s.9,0,1.3,.1c.4,.1,.9,.5,1.3,.5h1.3c.4,0,.9,.3,1.3,.3s.9-.1,1.3-.1c.4-.1,.9-.2,1.3-.3,.4-.1,.9-.2,1.3-.3,.4-.1,.9-.2,1.3-.2h1.3c.4,0,.9,.2,1.3,.4,.4,.3,.9,.9,1.3,1.1s.9,.3,1.3,.3,.9-.4,1.3-.4,.9,.2,1.3,.3c.4,.1,.9,.1,1.3,.1,.4,.1,.9,.2,1.3,.2h1.3c.4,0,.9-.7,1.3-.8,.4-.1,.9-.1,1.3-.2s.9-.2,1.3-.3c.4-.1,.9-.2,1.3-.2s.9,.4,1.3,.6,.9,.5,1.3,.6,.9,.2,1.3,.2,.9,0,1.3-.1c.4,0,.9-.1,1.3-.2s.9-.1,1.3-.1,.9,0,1.3-.1,.9-.2,1.3-.3c.4-.1,.9-.3,1.3-.3h1.3c.4,0,.9-.3,1.3-.3s.9-.1,1.3-.1,.9,.1,1.3,.2,.9,.4,1.3,.4h1.3c.4,0,.9,0,1.3,.1s.9,.2,1.3,.2,.9,.2,1.3,.2,.9-.1,1.3-.1,.9-.1,1.3-.1,.9,0,1.3-.1,.9-.1,1.3-.2,.9,0,1.3,0,.9,0,1.3,.1c.4,0,.9,.2,1.3,.3,.4,.1,.9,.1,1.3,.1s.9,0,1.3,.1c.4,0,.9,0,1.3,.1s.9,.3,1.3,.4,.9,.3,1.3,.3,.9-.3,1.3-.3h2.6c.4,0,.9-.1,1.3-.1h1.3c.4,0,.9,0,1.3,.1s.9,.1,1.3,.1c.4,.1,.9,.4,1.3,.4s.9-.7,1.3-.8c.4-.1,.9-.1,1.3-.2,.4,0,.9,0,1.3-.1,.4,0,.9,0,1.3-.1s.9-.4,1.3-.4c.4-.1,.9,0,1.3-.1s.9-.9,1.3-1.2c.4-.3,.9-.5,1.3-.8s.9-.6,1.3-1.1,.9-1.4,1.3-2,.9-1.1,1.3-1.5,.9-.7,1.3-1,.9-1,1.3-1,.9,.2,1.3,.2,.9-.1,1.3-.2,.9,0,1.3-.1c.4,0,.9-.1,1.3-.1,.4-.1,.9-.2,1.3-.2h1.3c.4,0,.9,.1,1.3,.2" pointer-events="none"/></g></svg>