<?xml version="1.0" encoding="UTF-8"?><svg id="_層_1" xmlns="http://www.w3.org/2000/svg" viewBox="0 0 170.08 85.04"><defs><style>.cls-1{fill:#c1c1c1;font-family:Roboto-Regular, Roboto;font-size:4px;isolation:isolate;}.cls-2{stroke:#c1c1c1;stroke-width:.5px;}.cls-2,.cls-3{fill:none;}.cls-3{stroke:#ef5b5b;stroke-width:1.5px;}</style></defs><g id="_層_2"><g><line class="cls-2" x1="169.34" y1="77.58" x2="11.14" y2="77.58"/><line class="cls-2" x1="169.34" y1="43.08" x2="11.14" y2="43.08"/><line class="cls-2" x1="169.34" y1="8.68" x2="11.14" y2="8.68"/><line class="cls-2" x1="11.44" y1="77.58" x2="11.44" y2="75.98"/><line class="cls-2" x1="27.24" y1="77.58" x2="27.24" y2="75.98"/><line class="cls-2" x1="43.04" y1="77.58" x2="43.04" y2="75.98"/><line class="cls-2" x1="58.94" y1="77.58" x2="58.94" y2="75.98"/><line class="cls-2" x1="74.74" y1="77.58" x2="74.74" y2="75.98"/><line class="cls-2" x1="90.54" y1="77.58" x2="90.54" y2="75.98"/><line class="cls-2" x1="106.44" y1="77.58" x2="106.44" y2="75.98"/><line class="cls-2" x1="122.24" y1="77.58" x2="122.24" y2="75.98"/><line class="cls-2" x1="138.04" y1="77.58" x2="138.04" y2="75.98"/><line class="cls-2" x1="153.94" y1="77.58" x2="153.94" y2="75.98"/><line class="cls-2" x1="169.14" y1="77.58" x2="169.14" y2="75.98"/><text class="cls-1" transform="translate(14.73 81.99)"><tspan x="0" y="0">2013</tspan></text><text class="cls-1" transform="translate(2.19 78.83)"><tspan x="0" y="0">-50%</tspan></text><text class="cls-1" transform="translate(5.54 44.5)"><tspan x="0" y="0">0%</tspan></text><text class="cls-1" transform="translate(1.03 10.17)"><tspan x="0" y="0">+50%</tspan></text><text class="cls-1" transform="translate(30.6 81.99)"><tspan x="0" y="0">2014</tspan></text><text class="cls-1" transform="translate(46.47 81.99)"><tspan x="0" y="0">2015</tspan></text><text class="cls-1" transform="translate(62.35 81.99)"><tspan x="0" y="0">2016</tspan></text><text class="cls-1" transform="translate(78.22 81.99)"><tspan x="0" y="0">2017</tspan></text><text class="cls-1" transform="translate(94.09 81.99)"><tspan x="0" y="0">2018</tspan></text><text class="cls-1" transform="translate(109.96 81.99)"><tspan x="0" y="0">2019</tspan></text><text class="cls-1" transform="translate(125.83 81.99)"><tspan x="0" y="0">2020</tspan></text><text class="cls-1" transform="translate(141.7 81.99)"><tspan x="0" y="0">2021</tspan></text><text class="cls-1" transform="translate(157.57 81.99)"><tspan x="0" y="0">2022</tspan></text></g></g><g id="_-100"><path class="cls-3" d="M11.94,46.28c.4-.5,.9-1.1,1.3-1.1s.9,.6,1.3,.6,.9-.1,1.3-.1h9.1c.4,0,.9,.1,1.3,.1h1.3c.4,0,.9,0,1.3-.1,.4,0,.9-.1,1.3-.1,.4-.1,.9-.2,1.3-.2h2.6c.4,0,.9,.3,1.3,.3s.9,0,1.3-.1c.4-.1,.9-.4,1.3-.4,.4-.1,.9-.1,1.3-.1h1.3c.4,0,.9-.2,1.3-.3,.4-.1,.9-.4,1.3-.4h1.3c.4,0,.9,.1,1.3,.1h1.3c.4,0,.9-.2,1.3-.2s.9,.1,1.3,.2h3.9c.4,0,.9-.2,1.3-.2h2.6c.4,0,.9-.1,1.3-.1s.9,.1,1.3,.1,.9,0,1.3-.1,.9-.9,1.3-.9h1.3c.4,0,.9-.3,1.3-.4,.4-.1,.9-.2,1.3-.3,.4-.1,.9-.1,1.3-.1h3.9c.4,0,.9,.1,1.3,.1s.9-.3,1.3-.3,.9-.1,1.3-.1h1.3c.4,0,.9-.1,1.3-.2,.4-.1,.9-.3,1.3-.3h5.2c.4,0,.9-.4,1.3-.4s.9,0,1.3-.1c.4,0,.9-.2,1.3-.2s.9,.1,1.3,.1,.9-1.8,1.3-1.8,.9,1.6,1.3,1.6,.9-.2,1.3-.2h3.9c.4,0,.9-.2,1.3-.2h2.6c.4,0,.9-.6,1.3-.7h1.3c.4,0,.9,.1,1.3,.1s.9-.1,1.3-.1,.9,.1,1.3,.1h3.9c.4,0,.9-.1,1.3-.2,.4-.1,.9-.6,1.3-.6h1.3c.4,0,.9-.1,1.3-.1h2.6c.4,0,.9-.2,1.3-.2s.9,.2,1.3,.2h5.2c.4,0,.9,0,1.3-.1,.4-.1,.9-.5,1.3-.5h2.6c.4,0,.9-.3,1.3-.4,.4-.1,.9-.1,1.3-.1,.4-.1,.9-.1,1.3-.2,.4-.1,.9-.6,1.3-.6s.9,.3,1.3,.3h2.6c.4,0,.9-.1,1.3-.1h5.2c.4,0,.9-.5,1.3-.6,.4-.1,.9,0,1.3-.1,.4-.1,.9-1.5,1.3-1.6s.9,0,1.3-.1,.9-.1,1.3-.3c.4-.2,.9-1.3,1.3-1.5,.4-.2,.9-.3,1.3-.3,.4-.1,.9-.1,1.3-.1h2.6c.4,0,.9-.3,1.3-.4,.4-.1,.9-.1,1.3-.1s.9-.1,1.3-.1h1.3" pointer-events="none"/></g></svg>