<?xml version="1.0" encoding="UTF-8"?><svg id="_層_1" xmlns="http://www.w3.org/2000/svg" viewBox="0 0 170.08 85.04"><defs><style>.cls-1{fill:#c1c1c1;font-family:Roboto-Regular, Roboto;font-size:4px;isolation:isolate;}.cls-2{stroke:#c1c1c1;stroke-width:.5px;}.cls-2,.cls-3{fill:none;}.cls-3{stroke:#ef5b5b;stroke-width:1.5px;}</style></defs><g id="_層_2"><g><line class="cls-2" x1="168.56" y1="75.86" x2="10.36" y2="75.86"/><line class="cls-2" x1="168.56" y1="41.46" x2="10.36" y2="41.46"/><line class="cls-2" x1="168.56" y1="6.96" x2="10.36" y2="6.96"/><line class="cls-2" x1="10.66" y1="75.86" x2="10.66" y2="74.36"/><line class="cls-2" x1="26.46" y1="75.86" x2="26.46" y2="74.36"/><line class="cls-2" x1="42.26" y1="75.86" x2="42.26" y2="74.36"/><line class="cls-2" x1="58.16" y1="75.86" x2="58.16" y2="74.36"/><line class="cls-2" x1="73.96" y1="75.86" x2="73.96" y2="74.36"/><line class="cls-2" x1="89.76" y1="75.86" x2="89.76" y2="74.36"/><line class="cls-2" x1="105.66" y1="75.86" x2="105.66" y2="74.36"/><line class="cls-2" x1="121.46" y1="75.86" x2="121.46" y2="74.36"/><line class="cls-2" x1="137.26" y1="75.86" x2="137.26" y2="74.36"/><line class="cls-2" x1="153.16" y1="75.86" x2="153.16" y2="74.36"/><line class="cls-2" x1="168.36" y1="75.86" x2="168.36" y2="74.36"/><text class="cls-1" transform="translate(13.94 80.33)"><tspan x="0" y="0">2013</tspan></text><text class="cls-1" transform="translate(1.4 77.17)"><tspan x="0" y="0">-50%</tspan></text><text class="cls-1" transform="translate(4.75 42.84)"><tspan x="0" y="0">0%</tspan></text><text class="cls-1" transform="translate(.23 8.51)"><tspan x="0" y="0">+50%</tspan></text><text class="cls-1" transform="translate(29.81 80.33)"><tspan x="0" y="0">2014</tspan></text><text class="cls-1" transform="translate(45.68 80.33)"><tspan x="0" y="0">2015</tspan></text><text class="cls-1" transform="translate(61.55 80.33)"><tspan x="0" y="0">2016</tspan></text><text class="cls-1" transform="translate(77.42 80.33)"><tspan x="0" y="0">2017</tspan></text><text class="cls-1" transform="translate(93.29 80.33)"><tspan x="0" y="0">2018</tspan></text><text class="cls-1" transform="translate(109.16 80.33)"><tspan x="0" y="0">2019</tspan></text><text class="cls-1" transform="translate(125.03 80.33)"><tspan x="0" y="0">2020</tspan></text><text class="cls-1" transform="translate(140.91 80.33)"><tspan x="0" y="0">2021</tspan></text><text class="cls-1" transform="translate(156.78 80.33)"><tspan x="0" y="0">2022</tspan></text></g></g><g id="_-100"><path class="cls-3" d="M12.16,46.16c.4,1.1,.9,2.3,1.3,3.2,.4,.9,.9,2,1.3,2s.9-.1,1.3-.3c.4-.2,.9-.7,1.3-.7s.9,.9,1.3,.9,.9-.6,1.3-1.1,.9-1.9,1.3-1.9,.9,.7,1.3,.7c1.8,0,3.5-1,5.3-2.9,.4-.5,.9-2.6,1.3-3.3,.4-.8,.9-1.1,1.3-1.2,.4-.1,.9-.1,1.3-.2s.9-.7,1.3-.7,.9,3.4,1.3,3.7c.4,.4,.9,.5,1.3,.5s.9-2,1.3-2,.9,.4,1.3,.5c1.8,.4,3.5,.2,5.3,.6,.4,.1,.9,1.7,1.3,1.7s.9-.5,1.3-.5,.9,.5,1.3,.5,.9-1.7,1.3-1.7,.9,3.7,1.3,3.7,.9-.4,1.3-1.2c.4-.8,.9-3,1.3-3.6s.9-.6,1.3-.9c1.8-1.1,3.5-1.5,5.3-2.1,.4-.1,.9-.4,1.3-.4s.9,1.4,1.3,1.4,.9-.6,1.3-.6,.9,.7,1.3,1.2,.9,1.9,1.3,1.9,.9-.5,1.3-.7,.9-.3,1.3-.5c.4-.1,.9-.2,1.3-.4,1.8-.6,3.5-2.7,5.3-2.7,.4,0,.9,1.7,1.3,2.3s.9,1.6,1.3,1.6,.9-.7,1.3-.9,.9-.5,1.3-.5h1.3c.4,0,.9-1.5,1.3-1.5s.9,1,1.3,1,.9-.7,1.3-1c1.8-1.2,3.5-1.6,5.3-2.7,.4-.3,.9-.8,1.3-.8s.9,3.1,1.3,3.1,.9-.1,1.3-.1h1.3c.4,0,.9,.6,1.3,.6s.9-1.7,1.3-1.7,.9,.5,1.3,.6c.4,.1,.9,.2,1.3,.2,1.8,0,3.5-3.7,5.3-3.7,.4,0,.9,2.4,1.3,2.4s.9-.7,1.3-1.1c.4-.4,.9-.4,1.3-1.1,.4-.7,.9-5.3,1.3-5.3s.9,1.9,1.3,1.9,.9-3,1.3-3,.9,.7,1.3,.7,.9-.2,1.3-.3c1.8-.5,3.5-3.3,5.3-3.3,.4,0,.9,3.2,1.3,4.2s.9,1.7,1.3,1.7h1.3c.4,0,.9,.4,1.3,.8s.9,1.5,1.3,1.5,.9-2.3,1.3-2.3h1.3c2.2,0,4.4-3.3,6.6-3.3,.4,0,.9,5.1,1.3,6.3,.4,1.3,.9,1.4,1.3,1.9,.4,.4,.9,.8,1.3,.8s.9-.1,1.3-.1,.9,.3,1.3,.3,.9-5.9,1.3-5.9,.9,2.7,1.3,2.7c2.2,0,4.4-7,6.6-7,.4,0,.9,7.9,1.3,8.5,.4,.6,.9,.9,1.3,.9s.9-.5,1.3-.7c.4-.3,.9-.3,1.3-.9,.4-.6,.9-6.5,1.3-6.5s.9,.3,1.3,.5c.4,.2,.9,.4,1.3,.6" pointer-events="none"/></g></svg>