<?xml version="1.0" encoding="UTF-8"?><svg id="_層_1" xmlns="http://www.w3.org/2000/svg" viewBox="0 0 170.08 85.04"><defs><style>.cls-1{fill:#c1c1c1;font-family:Roboto-Regular, Roboto;font-size:4px;isolation:isolate;}.cls-2{stroke:#c1c1c1;stroke-width:.5px;}.cls-2,.cls-3{fill:none;}.cls-3{stroke:#ef5b5b;stroke-width:1.5px;}</style></defs><g id="_層_2"><g><line class="cls-2" x1="169.15" y1="76.67" x2="10.85" y2="76.67"/><line class="cls-2" x1="169.15" y1="42.17" x2="10.85" y2="42.17"/><line class="cls-2" x1="169.15" y1="7.77" x2="10.85" y2="7.77"/><line class="cls-2" x1="11.15" y1="76.67" x2="11.15" y2="75.07"/><line class="cls-2" x1="26.95" y1="76.67" x2="26.95" y2="75.07"/><line class="cls-2" x1="42.85" y1="76.67" x2="42.85" y2="75.07"/><line class="cls-2" x1="58.65" y1="76.67" x2="58.65" y2="75.07"/><line class="cls-2" x1="74.45" y1="76.67" x2="74.45" y2="75.07"/><line class="cls-2" x1="90.35" y1="76.67" x2="90.35" y2="75.07"/><line class="cls-2" x1="106.15" y1="76.67" x2="106.15" y2="75.07"/><line class="cls-2" x1="121.95" y1="76.67" x2="121.95" y2="75.07"/><line class="cls-2" x1="137.85" y1="76.67" x2="137.85" y2="75.07"/><line class="cls-2" x1="153.65" y1="76.67" x2="153.65" y2="75.07"/><line class="cls-2" x1="168.85" y1="76.67" x2="168.85" y2="75.07"/><text class="cls-1" transform="translate(14.47 81.08)"><tspan x="0" y="0">2013</tspan></text><text class="cls-1" transform="translate(1.93 77.92)"><tspan x="0" y="0">-50%</tspan></text><text class="cls-1" transform="translate(5.28 43.59)"><tspan x="0" y="0">0%</tspan></text><text class="cls-1" transform="translate(.77 9.26)"><tspan x="0" y="0">+50%</tspan></text><text class="cls-1" transform="translate(30.34 81.08)"><tspan x="0" y="0">2014</tspan></text><text class="cls-1" transform="translate(46.21 81.08)"><tspan x="0" y="0">2015</tspan></text><text class="cls-1" transform="translate(62.08 81.08)"><tspan x="0" y="0">2016</tspan></text><text class="cls-1" transform="translate(77.95 81.08)"><tspan x="0" y="0">2017</tspan></text><text class="cls-1" transform="translate(93.82 81.08)"><tspan x="0" y="0">2018</tspan></text><text class="cls-1" transform="translate(109.69 81.08)"><tspan x="0" y="0">2019</tspan></text><text class="cls-1" transform="translate(125.56 81.08)"><tspan x="0" y="0">2020</tspan></text><text class="cls-1" transform="translate(141.44 81.08)"><tspan x="0" y="0">2021</tspan></text><text class="cls-1" transform="translate(157.31 81.08)"><tspan x="0" y="0">2022</tspan></text></g></g><g id="_-100"><path class="cls-3" d="M12.15,55.57c.4,.2,.9,.4,1.3,1.1,.4,.8,.9,6.5,1.3,6.5s.9,0,1.3-.1,.9-1.6,1.3-2.3c.4-.6,.9-1,1.3-1.5s.9-.8,1.3-1.7,.9-1.1,1.3-3.2,.9-13.3,1.3-13.5,.9-.3,1.3-.3,.9,12.5,1.3,12.8,.9,.2,1.3,.5,.9,1.1,1.3,1.1,.9-1.3,1.3-1.3,.9,3.2,1.3,4.3c.4,1.1,.9,1.7,1.3,2.3,.4,.6,.9,1.1,1.3,1.1s.9-2.6,1.3-3.6,.9-1.7,1.3-2.6,.9-2.9,1.3-2.9h1.3c.4,0,.9-8.9,1.3-8.9s.9,11.6,1.3,11.6,.9-2.7,1.3-2.7,.9,1.2,1.3,1.2,.9-1.2,1.3-1.2,.9,4.9,1.3,5.7,.9,1.1,1.3,1.2,.9,.2,1.3,.2,.9-5.8,1.3-6.6c.4-.8,.9-.4,1.3-1.3,.4-.8,.9-6.5,1.3-9.5s.9-7.2,1.3-8.5,.9-1.9,1.3-1.9,.9,11.4,1.3,14.4c.4,3.1,.9,4.6,1.3,4.6s.9-.8,1.3-2.3c.4-1.6,.9-14.8,1.3-14.8s.9,2,1.3,3.9,.9,5.2,1.3,7.6,.9,5.6,1.3,7c.4,1.3,.9,2,1.3,2s.9-3,1.3-4.2c.4-1.1,.9-1.9,1.3-2.6s.9-.5,1.3-1.5,.9-26.6,1.3-26.6,.9,4.4,1.3,8.5,.9,15.6,1.3,16,.9,.2,1.3,.7c.4,.4,.9,4,1.3,5.1,.4,1.2,.9,1,1.3,1.8s.9,2.5,1.3,3.1,.9,.9,1.3,.9,.9-5.2,1.3-7.1,.9-3.1,1.3-4.2,.9-2.6,1.3-2.6,.9,3.4,1.3,3.4,.9-4.9,1.3-4.9,.9,2.6,1.3,2.6,.9-4.3,1.3-4.3,.9,6.1,1.3,6.1,.9-5,1.3-5,.9,7.1,1.3,9.3c.4,2.2,.9,2.9,1.3,3.8,.4,.8,.9,1.3,1.3,1.3s.9-.5,1.3-1.5,.9-3.6,1.3-4.9,.9-1.8,1.3-3.1c.4-1.3,.9-4.7,1.3-4.7s.9,.4,1.3,1.3,.9,3.5,1.3,4.6,.9,1.3,1.3,1.8c.4,.6,.9,1.5,1.3,1.5s.9-.2,1.3-.2,.9,0,1.3,.1,.9,1.5,1.3,1.5,.9-.1,1.3-.3c.4-.2,.9-.4,1.3-1.1s.9-3.4,1.3-4.8c.4-1.5,.9-3.6,1.3-4s.9-.6,1.3-.6,.9,.3,1.3,.9,.9,4.5,1.3,4.5,.9-3.7,1.3-3.7,.9,.5,1.3,.5,.9-1.6,1.3-1.6,.9,5.2,1.3,6.8c.4,1.6,.9,2.2,1.3,2.9s.9,1.3,1.3,1.3,.9-8.2,1.3-8.2,.9,1.8,1.3,1.8,.9-1.4,1.3-2.2c.4-.7,.9-1.7,1.3-2.2s.9-.9,1.3-.9,.9,.4,1.3,.4,.9-.2,1.3-.7c.4-.5,.9-1.9,1.3-2.2,.4-.3,.9-.4,1.3-.4s.9,4.8,1.3,6.4,.9,2,1.3,2.9,.9,2.3,1.3,2.3,.9-5.9,1.3-7.7c.4-1.7,.9-.9,1.3-2.8,.4-1.9,.9-14.4,1.3-14.4s.9,5.5,1.3,5.6c.4,.1,.9,.1,1.3,.2,.4,.1,.9,2,1.3,2.7,.4,.8,.9,1.9,1.3,1.9s.9-.8,1.3-1.1,.9-.4,1.3-.4,.9,2.5,1.3,3.2c.4,.7,.9,.4,1.3,1.1,.4,.7,.9,3.1,1.3,3.1s.9-.4,1.3-.8c.4-.5,.9-1.2,1.3-1.9,.4-.7,.9-1.7,1.3-2.3,.4-.6,.9-.9,1.3-1.5,.4-.6,.9-1.9,1.3-1.9s.9,1.2,1.3,1.2,.9-3.5,1.3-7" pointer-events="none"/></g></svg>