<?xml version="1.0" encoding="UTF-8"?><svg id="_層_1" xmlns="http://www.w3.org/2000/svg" viewBox="0 0 170.08 85.04"><defs><style>.cls-1{fill:#c1c1c1;font-family:Roboto-Regular, Roboto;font-size:4px;isolation:isolate;}.cls-2{stroke:#c1c1c1;stroke-width:.5px;}.cls-2,.cls-3{fill:none;}.cls-3{stroke:#ef5b5b;stroke-width:1.5px;}</style></defs><g id="_層_2"><g><line class="cls-2" x1="169.15" y1="77.14" x2="10.85" y2="77.14"/><line class="cls-2" x1="169.15" y1="42.74" x2="10.85" y2="42.74"/><line class="cls-2" x1="169.15" y1="8.24" x2="10.85" y2="8.24"/><line class="cls-2" x1="11.15" y1="77.14" x2="11.15" y2="75.64"/><line class="cls-2" x1="26.95" y1="77.14" x2="26.95" y2="75.64"/><line class="cls-2" x1="42.85" y1="77.14" x2="42.85" y2="75.64"/><line class="cls-2" x1="58.65" y1="77.14" x2="58.65" y2="75.64"/><line class="cls-2" x1="74.45" y1="77.14" x2="74.45" y2="75.64"/><line class="cls-2" x1="90.35" y1="77.14" x2="90.35" y2="75.64"/><line class="cls-2" x1="106.15" y1="77.14" x2="106.15" y2="75.64"/><line class="cls-2" x1="121.95" y1="77.14" x2="121.95" y2="75.64"/><line class="cls-2" x1="137.85" y1="77.14" x2="137.85" y2="75.64"/><line class="cls-2" x1="153.65" y1="77.14" x2="153.65" y2="75.64"/><line class="cls-2" x1="168.85" y1="77.14" x2="168.85" y2="75.64"/><text class="cls-1" transform="translate(14.47 81.59)"><tspan x="0" y="0">2013</tspan></text><text class="cls-1" transform="translate(1.93 78.43)"><tspan x="0" y="0">-50%</tspan></text><text class="cls-1" transform="translate(5.28 44.1)"><tspan x="0" y="0">0%</tspan></text><text class="cls-1" transform="translate(.77 9.77)"><tspan x="0" y="0">+50%</tspan></text><text class="cls-1" transform="translate(30.34 81.59)"><tspan x="0" y="0">2014</tspan></text><text class="cls-1" transform="translate(46.21 81.59)"><tspan x="0" y="0">2015</tspan></text><text class="cls-1" transform="translate(62.08 81.59)"><tspan x="0" y="0">2016</tspan></text><text class="cls-1" transform="translate(77.95 81.59)"><tspan x="0" y="0">2017</tspan></text><text class="cls-1" transform="translate(93.82 81.59)"><tspan x="0" y="0">2018</tspan></text><text class="cls-1" transform="translate(109.69 81.59)"><tspan x="0" y="0">2019</tspan></text><text class="cls-1" transform="translate(125.56 81.59)"><tspan x="0" y="0">2020</tspan></text><text class="cls-1" transform="translate(141.44 81.59)"><tspan x="0" y="0">2021</tspan></text><text class="cls-1" transform="translate(157.31 81.59)"><tspan x="0" y="0">2022</tspan></text></g></g><g id="_-100"><path class="cls-3" d="M12.15,46.74h5.2c.4,0,.9-.1,1.3-.1s.9-.1,1.3-.1h2.6c.4,0,.9-.1,1.3-.1s.9-.1,1.3-.1h1.3c.4,0,.9-.4,1.3-.5s.9-.2,1.3-.3c.4-.1,.9-.2,1.3-.4,.4-.2,.9-.7,1.3-.8,.4-.1,.9-.1,1.3-.2s.9-.1,1.3-.2c.4,0,.9-.1,1.3-.1h2.6c.4,0,.9-.1,1.3-.2s.9-.1,1.3-.1h3.9c.4,0,.9-.3,1.3-.3h1.3c.4,0,.9-.2,1.3-.2h9.1c.4,0,.9-.1,1.3-.1h1.3c.4,0,.9-.2,1.3-.2h1.3c.4,0,.9-.1,1.3-.1h9.1c.4,0,.9-.3,1.3-.4s.9-.3,1.3-.3h2.6c.4,0,.9-.2,1.3-.3s.9-.2,1.3-.2h2.6c.4,0,.9-.2,1.3-.2s.9-.1,1.3-.1h3.9c.4,0,.9-.2,1.3-.2,.4-.1,.9-.1,1.3-.1s.9-.1,1.3-.1h6.5c.4,0,.9-.2,1.3-.2h1.3c.4,0,.9-.1,1.3-.1h1.3c.4,0,.9-.1,1.3-.1s.9-.1,1.3-.2,.9-.1,1.3-.2,.9-.2,1.3-.3c.4-.1,.9-.1,1.3-.1s.9,0,1.3-.1,.9-.4,1.3-.4,.9-.1,1.3-.1h3.9c.4,0,.9-.3,1.3-.3h1.3c.4,0,.9-.2,1.3-.2h2.6c.4,0,.9,0,1.3-.1,.4,0,.9-.2,1.3-.2h10.4c.4,0,.9-.8,1.3-.8h1.3c.4,0,.9-.2,1.3-.3,.4-.1,.9-.2,1.3-.2h1.3c.4,0,.9-.1,1.3-.2,.4-.1,.9-.2,1.3-.3,.4-.1,.9-.1,1.3-.3s.9-.2,1.3-.7,.9-2,1.3-2.6,.9-.6,1.3-.9c.4-.2,.9-.4,1.3-.6,.4-.2,.9-.4,1.3-.7,.4-.2,.9-.5,1.3-.7,.4-.2,.9-.1,1.3-.3s.9-.6,1.3-.7c.4-.1,.9-.1,1.3-.2,.4-.1,.9-.1,1.3-.2,.4,0,.9,0,1.3-.1s.9,0,1.3-.1,.9-.1,1.3-.2" pointer-events="none"/></g></svg>