<?xml version="1.0" encoding="UTF-8"?><svg id="_層_1" xmlns="http://www.w3.org/2000/svg" viewBox="0 0 170.08 85.04"><defs><style>.cls-1{fill:#c1c1c1;font-family:Roboto-Regular, Roboto;font-size:4px;isolation:isolate;}.cls-2{stroke:#c1c1c1;stroke-width:.5px;}.cls-2,.cls-3{fill:none;}.cls-3{stroke:#ef5b5b;stroke-width:1.5px;}</style></defs><g id="_層_2"><g><line class="cls-2" x1="169.34" y1="76.45" x2="11.14" y2="76.45"/><line class="cls-2" x1="169.34" y1="42.05" x2="11.14" y2="42.05"/><line class="cls-2" x1="169.34" y1="7.55" x2="11.14" y2="7.55"/><line class="cls-2" x1="11.44" y1="76.45" x2="11.44" y2="74.95"/><line class="cls-2" x1="27.24" y1="76.45" x2="27.24" y2="74.95"/><line class="cls-2" x1="43.04" y1="76.45" x2="43.04" y2="74.95"/><line class="cls-2" x1="58.94" y1="76.45" x2="58.94" y2="74.95"/><line class="cls-2" x1="74.74" y1="76.45" x2="74.74" y2="74.95"/><line class="cls-2" x1="90.54" y1="76.45" x2="90.54" y2="74.95"/><line class="cls-2" x1="106.44" y1="76.45" x2="106.44" y2="74.95"/><line class="cls-2" x1="122.24" y1="76.45" x2="122.24" y2="74.95"/><line class="cls-2" x1="138.04" y1="76.45" x2="138.04" y2="74.95"/><line class="cls-2" x1="153.94" y1="76.45" x2="153.94" y2="74.95"/><line class="cls-2" x1="169.14" y1="76.45" x2="169.14" y2="74.95"/><text class="cls-1" transform="translate(14.73 80.94)"><tspan x="0" y="0">2013</tspan></text><text class="cls-1" transform="translate(2.19 77.78)"><tspan x="0" y="0">-50%</tspan></text><text class="cls-1" transform="translate(5.54 43.45)"><tspan x="0" y="0">0%</tspan></text><text class="cls-1" transform="translate(1.03 9.12)"><tspan x="0" y="0">+50%</tspan></text><text class="cls-1" transform="translate(30.6 80.94)"><tspan x="0" y="0">2014</tspan></text><text class="cls-1" transform="translate(46.47 80.94)"><tspan x="0" y="0">2015</tspan></text><text class="cls-1" transform="translate(62.35 80.94)"><tspan x="0" y="0">2016</tspan></text><text class="cls-1" transform="translate(78.22 80.94)"><tspan x="0" y="0">2017</tspan></text><text class="cls-1" transform="translate(94.09 80.94)"><tspan x="0" y="0">2018</tspan></text><text class="cls-1" transform="translate(109.96 80.94)"><tspan x="0" y="0">2019</tspan></text><text class="cls-1" transform="translate(125.83 80.94)"><tspan x="0" y="0">2020</tspan></text><text class="cls-1" transform="translate(141.7 80.94)"><tspan x="0" y="0">2021</tspan></text><text class="cls-1" transform="translate(157.57 80.94)"><tspan x="0" y="0">2022</tspan></text></g></g><g id="_-100"><path class="cls-3" d="M11.94,55.45c.4,3.8,.9,7.6,1.3,10.1,.4,2.5,.9,5.2,1.3,5.2s.9-7,1.3-7,.9,.2,1.3,.4c.4,.2,.9,1.1,1.3,1.1s.9-1.3,1.3-1.9c.4-.6,.9-.6,1.3-1.7,.4-1.1,.9-28.9,1.3-28.9s.9,16.2,1.3,21.3c.4,5.1,.9,9.3,1.3,9.3s.9-2,1.3-2.2c.4-.2,.9-.3,1.3-.3s.9,1.3,1.3,1.3,.9-.1,1.3-.1,.9,4.7,1.3,4.7,.9-.6,1.3-1.9c.4-1.3,.9-5.9,1.3-5.9s.9,1.6,1.3,1.6,.9-6.1,1.3-6.1,.9,3.4,1.3,3.4,.9-1.9,1.3-1.9,.9,8.2,1.3,8.2,.9-4.1,1.3-5.3c.4-1.2,.9-2.1,1.3-2.1s.9,5.7,1.3,6.1c.4,.4,.9,.6,1.3,.6s.9-.3,1.3-.3,.9,.4,1.3,.4,.9-9.9,1.3-9.9,.9,6.2,1.3,6.2,.9-11.3,1.3-15.5c.4-4.2,.9-9.7,1.3-9.7s.9,1.7,1.3,4.4c.4,2.7,.9,9.1,1.3,12,.4,2.9,.9,5.2,1.3,5.2s.9-1.5,1.3-4.4c.4-2.9,.9-41.2,1.3-41.2s.9,21.4,1.3,27c.4,5.6,.9,5.1,1.3,8.4,.4,3.3,.9,11.5,1.3,11.5s.9-1.7,1.3-3.2c.4-1.5,.9-5.7,1.3-5.7s.9,5.7,1.3,5.7,.9-2.9,1.3-8.8c.4-5.8,.9-38,1.3-38s.9,21.5,1.3,29.1,.9,12.2,1.3,16.2,.9,7.8,1.3,7.8,.9-.8,1.3-.8,.9,.5,1.3,1c.4,.6,.9,2.3,1.3,2.3s.9-.5,1.3-1.5c.4-1,.9-14.5,1.3-14.5s.9,5.1,1.3,5.1,.9-3.2,1.3-3.2,.9,4,1.3,4,.9-5.8,1.3-5.8,.9,.1,1.3,.3,.9,5.9,1.3,5.9,.9-2.7,1.3-3.1c.4-.4,.9-.6,1.3-.6s.9,6.3,1.3,8.3c.4,2,.9,2.8,1.3,3.7,.4,.9,.9,1.8,1.3,1.8s.9-1.4,1.3-3.5c.4-2.1,.9-9,1.3-9s.9,2.7,1.3,2.7,.9-16,1.3-16,.9,11.1,1.3,14.5,.9,5.2,1.3,6.1c.4,.9,.9,1,1.3,1.3,.4,.3,.9,.4,1.3,.4s.9-.7,1.3-1.5c.4-.7,.9-2.6,1.3-2.9,.4-.4,.9-.3,1.3-.6,.4-.2,.9-.4,1.3-.9,.4-.5,.9-1,1.3-2s.9-2.5,1.3-4c.4-1.5,.9-3.3,1.3-4.8s.9-4.4,1.3-4.4,.9,11,1.3,13.3c.4,2.3,.9,3.4,1.3,3.4s.9-1.7,1.3-1.7,.9,1,1.3,1,.9-2.2,1.3-2.2,.9,3.5,1.3,4.1c.4,.6,.9,.7,1.3,.9,.4,.2,.9,.2,1.3,.2s.9-10.1,1.3-10.1,.9,7.2,1.3,7.2,.9-4.8,1.3-4.8,.9-.1,1.3-.1,.9,1.5,1.3,1.5,.9-1.5,1.3-1.5,.9,.3,1.3,.3,.9-11.3,1.3-11.3,.9,5.1,1.3,7.6c.4,2.5,.9,6.4,1.3,7.5s.9,1.6,1.3,1.6,.9-.1,1.3-.2c.4-.1,.9-13.1,1.3-13.1s.9,1.8,1.3,1.8,.9-21.3,1.3-21.3,.9,13.2,1.3,16.2c.4,3.1,.9,4.6,1.3,4.6s.9-1.3,1.3-1.3,.9,4.1,1.3,5.5c.4,1.4,.9,3,1.3,3s.9-6.3,1.3-7.4,.9-1.6,1.3-1.6,.9,3.1,1.3,4c.4,.9,.9,1.5,1.3,1.5s.9-4.4,1.3-4.4,.9,3.8,1.3,4.4c.4,.6,.9,.9,1.3,.9s.9-7.1,1.3-7.1,.9,3.2,1.3,4.1c.4,.9,.9,1.4,1.3,1.4s.9-4.7,1.3-9.5" pointer-events="none"/></g></svg>