<?xml version="1.0" encoding="UTF-8"?><svg id="_層_1" xmlns="http://www.w3.org/2000/svg" viewBox="0 0 170.08 85.04"><defs><style>.cls-1{fill:#c1c1c1;font-family:Roboto-Regular, Roboto;font-size:4px;isolation:isolate;}.cls-2{stroke:#c1c1c1;stroke-width:.5px;}.cls-2,.cls-3{fill:none;}.cls-3{stroke:#ffba49;stroke-width:1.5px;}</style></defs><g id="_層_2"><g><line class="cls-2" x1="169.34" y1="75.7" x2="11.14" y2="75.7"/><line class="cls-2" x1="169.34" y1="41.2" x2="11.14" y2="41.2"/><line class="cls-2" x1="169.34" y1="6.8" x2="11.14" y2="6.8"/><line class="cls-2" x1="11.44" y1="75.7" x2="11.44" y2="74.2"/><line class="cls-2" x1="27.24" y1="75.7" x2="27.24" y2="74.2"/><line class="cls-2" x1="43.04" y1="75.7" x2="43.04" y2="74.2"/><line class="cls-2" x1="58.94" y1="75.7" x2="58.94" y2="74.2"/><line class="cls-2" x1="74.74" y1="75.7" x2="74.74" y2="74.2"/><line class="cls-2" x1="90.54" y1="75.7" x2="90.54" y2="74.2"/><line class="cls-2" x1="106.44" y1="75.7" x2="106.44" y2="74.2"/><line class="cls-2" x1="122.24" y1="75.7" x2="122.24" y2="74.2"/><line class="cls-2" x1="138.04" y1="75.7" x2="138.04" y2="74.2"/><line class="cls-2" x1="153.94" y1="75.7" x2="153.94" y2="74.2"/><line class="cls-2" x1="169.14" y1="75.7" x2="169.14" y2="74.2"/><text class="cls-1" transform="translate(14.73 80.13)"><tspan x="0" y="0">2013</tspan></text><text class="cls-1" transform="translate(2.19 76.97)"><tspan x="0" y="0">-50%</tspan></text><text class="cls-1" transform="translate(5.54 42.64)"><tspan x="0" y="0">0%</tspan></text><text class="cls-1" transform="translate(1.03 8.31)"><tspan x="0" y="0">+50%</tspan></text><text class="cls-1" transform="translate(30.6 80.13)"><tspan x="0" y="0">2014</tspan></text><text class="cls-1" transform="translate(46.47 80.13)"><tspan x="0" y="0">2015</tspan></text><text class="cls-1" transform="translate(62.35 80.13)"><tspan x="0" y="0">2016</tspan></text><text class="cls-1" transform="translate(78.22 80.13)"><tspan x="0" y="0">2017</tspan></text><text class="cls-1" transform="translate(94.09 80.13)"><tspan x="0" y="0">2018</tspan></text><text class="cls-1" transform="translate(109.96 80.13)"><tspan x="0" y="0">2019</tspan></text><text class="cls-1" transform="translate(125.83 80.13)"><tspan x="0" y="0">2020</tspan></text><text class="cls-1" transform="translate(141.7 80.13)"><tspan x="0" y="0">2021</tspan></text><text class="cls-1" transform="translate(157.57 80.13)"><tspan x="0" y="0">2022</tspan></text></g></g><g id="_01-200"><path class="cls-3" d="M11.84,43.6h31.2c.4,0,.9,.1,1.3,.1h1.3c.4,0,.9,2.3,1.3,2.3s.9-1.5,1.3-1.6c.4-.1,.9,0,1.3-.1,.4-.1,.9-1.6,1.3-1.6s.9,.6,1.3,.6,.9-1,1.3-1,.9,.1,1.3,.1h5.2c.4,0,.9-1.3,1.3-1.3h11.7c.4,0,.9-.1,1.3-.1h29.9c.4,0,.9-.3,1.3-.3h14.3c.4,0,.9-.1,1.3-.1h14.3c.4,0,.9,1.5,1.3,1.5s.9-3.5,1.3-4.1c.4-.6,.9-.8,1.3-.8h11.7c.4,0,.9-.1,1.3-.1h14.3" pointer-events="none"/></g></svg>