<?xml version="1.0" encoding="UTF-8"?><svg id="_層_1" xmlns="http://www.w3.org/2000/svg" viewBox="0 0 170.08 85.04"><defs><style>.cls-1{fill:#c1c1c1;font-family:Roboto-Regular, Roboto;font-size:4px;isolation:isolate;}.cls-2{stroke:#c1c1c1;stroke-width:.5px;}.cls-2,.cls-3,.cls-4{fill:none;}.cls-3{stroke:#20a39e;}.cls-3,.cls-4{stroke-width:1.5px;}.cls-4{stroke:#124e78;}</style></defs><g id="_層_2"><g><line class="cls-2" x1="168.85" y1="76.45" x2="10.65" y2="76.45"/><line class="cls-2" x1="168.85" y1="42.05" x2="10.65" y2="42.05"/><line class="cls-2" x1="168.85" y1="7.55" x2="10.65" y2="7.55"/><line class="cls-2" x1="10.85" y1="76.45" x2="10.85" y2="74.95"/><line class="cls-2" x1="26.75" y1="76.45" x2="26.75" y2="74.95"/><line class="cls-2" x1="42.55" y1="76.45" x2="42.55" y2="74.95"/><line class="cls-2" x1="58.35" y1="76.45" x2="58.35" y2="74.95"/><line class="cls-2" x1="74.25" y1="76.45" x2="74.25" y2="74.95"/><line class="cls-2" x1="90.05" y1="76.45" x2="90.05" y2="74.95"/><line class="cls-2" x1="105.85" y1="76.45" x2="105.85" y2="74.95"/><line class="cls-2" x1="121.75" y1="76.45" x2="121.75" y2="74.95"/><line class="cls-2" x1="137.55" y1="76.45" x2="137.55" y2="74.95"/><line class="cls-2" x1="153.35" y1="76.45" x2="153.35" y2="74.95"/><line class="cls-2" x1="168.55" y1="76.45" x2="168.55" y2="74.95"/><text class="cls-1" transform="translate(14.2 80.94)"><tspan x="0" y="0">2013</tspan></text><text class="cls-1" transform="translate(1.66 77.78)"><tspan x="0" y="0">-50%</tspan></text><text class="cls-1" transform="translate(5.01 43.45)"><tspan x="0" y="0">0%</tspan></text><text class="cls-1" transform="translate(.5 9.12)"><tspan x="0" y="0">+50%</tspan></text><text class="cls-1" transform="translate(30.07 80.94)"><tspan x="0" y="0">2014</tspan></text><text class="cls-1" transform="translate(45.94 80.94)"><tspan x="0" y="0">2015</tspan></text><text class="cls-1" transform="translate(61.82 80.94)"><tspan x="0" y="0">2016</tspan></text><text class="cls-1" transform="translate(77.69 80.94)"><tspan x="0" y="0">2017</tspan></text><text class="cls-1" transform="translate(93.56 80.94)"><tspan x="0" y="0">2018</tspan></text><text class="cls-1" transform="translate(109.43 80.94)"><tspan x="0" y="0">2019</tspan></text><text class="cls-1" transform="translate(125.3 80.94)"><tspan x="0" y="0">2020</tspan></text><text class="cls-1" transform="translate(141.17 80.94)"><tspan x="0" y="0">2021</tspan></text><text class="cls-1" transform="translate(157.04 80.94)"><tspan x="0" y="0">2022</tspan></text></g></g><g id="_層_5"><path class="cls-3" d="M11.15,.25h1.3c.4,0,.9-1.8,1.3-1.8s.9-.1,1.3-.1h1.3c.4,0,.9,2.6,1.3,2.7,.4,.1,.9,.1,1.3,.1h3.9c.4,0,.9-2.2,1.3-2.2s.9,1.7,1.3,1.7,.9,.1,1.3,.1,.9-.8,1.3-1.4c.4-.6,.9-2.2,1.3-2.2s.9,.8,1.3,1.1c.4,.3,.9,.5,1.3,.8,.4,.2,.9,.6,1.3,.6s.9-.8,1.3-.8h1.3c.4,0,.9,.6,1.3,1,.4,.4,.9,.9,1.3,1.2,.4,.4,.9,.4,1.3,1.1,.4,.8,.9,3.7,1.3,6.2s.9,6.4,1.3,8.7c.4,2.3,.9,5.1,1.3,5.2,.4,.1,.9,.2,1.3,.2h1.3c.4,0,.9,3.1,1.3,4.3,.4,1.3,.9,3.1,1.3,3.2,.4,.1,.9,0,1.3,.1,.4,.1,.9,.7,1.3,1.3,.4,.6,.9,2.5,1.3,2.5,.4,.1,.9,0,1.3,.1s.9,2,1.3,2.1c.4,0,.9,.1,1.3,.1h1.3c.4,0,.9,3.5,1.3,4.3,.4,.8,.9,.8,1.3,1.2,.4,.3,.9,.4,1.3,.8,.4,.4,.9,1.6,1.3,1.6s.9-.6,1.3-1c.4-.3,.9-1.1,1.3-1.1h2.6c.4,0,.9,.9,1.3,1h1.3c.4,0,.9-.7,1.3-1,.4-.4,.9-1.1,1.3-1.1h1.3c.4,0,.9-.7,1.3-1.1s.9-1.2,1.3-1.2h1.3c.4,0,.9-.8,1.3-1.2,.4-.4,.9-1.2,1.3-1.2h2.6c.4,0,.9-.8,1.3-1.3,.4-.4,.9-1.3,1.3-1.3h1.3c.4,0,.9,1.1,1.3,1.1h3.9c.4,0,.9-.8,1.3-1.3,.4-.4,.9-1.3,1.3-1.3h1.3c.4,0,.9-1.3,1.3-1.3h1.3c.4,0,.9-1.3,1.3-1.3h2.6c.4,0,.9-1.4,1.3-1.4s.9,0,1.3-.1c.4,0,.9-1.4,1.3-1.4h3.9c.4,0,.9,.8,1.3,1.3,.4,.4,.9,.8,1.3,1.4s.9,1.7,1.3,2.4,.9,1.1,1.3,1.7,.9,1.5,1.3,2,.9,1.1,1.3,1.1h3.9c.4,0,.9,1,1.3,1.9,.4,1,.9,2.6,1.3,3.8,.4,1.2,.9,2.6,1.3,3.5s.9,1.4,1.3,1.9,.9,.9,1.3,.9h2.6c.4,0,.9-.4,1.3-.6s.9-.8,1.3-.8,.9,1.7,1.3,1.7h2.6c.4,0,.9-1.3,1.3-1.7s.9-.9,1.3-.9h24.7" pointer-events="none"/><path class="cls-4" d="M11.15,174.95c.4-.8,.9-1.6,1.3-2.7,.4-1,.9-1.9,1.3-3.6,.4-1.8,.9-6.2,1.3-7,.4-.8,.9-1.2,1.3-1.2s.9,13.3,1.3,14.5c.4,1.2,.9,1.9,1.3,1.9s.9-2.7,1.3-2.7,.9,2.9,1.3,3.8c.4,.9,.9,1.8,1.3,1.8s.9,0,1.3-.1c.4,0,.9-4.8,1.3-7.4,.4-2.6,.9-5.7,1.3-8.1,.4-2.4,.9-4.3,1.3-6.1,.4-1.8,.9-3.1,1.3-4.6,.4-1.5,.9-1.9,1.3-4.2,.4-2.3,.9-9.8,1.3-9.8s.9,10.9,1.3,16.3c.4,5.4,.9,16,1.3,16s.9-3,1.3-3,.9,2.9,1.3,4.2c.4,1.3,.9,3.4,1.3,3.8,.4,.5,.9,.7,1.3,.7s.9-2.6,1.3-5.6,.9-8.7,1.3-12.2c.4-3.5,.9-5.8,1.3-8.7,.4-2.9,.9-6.4,1.3-8.4,.4-2,.9-1.1,1.3-3.4,.4-2.3,.9-14.9,1.3-14.9s.9,6.1,1.3,13.3c.4,7.2,.9,30,1.3,30s.9-.1,1.3-.1,.9,6.5,1.3,7.4c.4,1,.9,.8,1.3,1.4,.4,.6,.9,2.1,1.3,2.1s.9-.6,1.3-1.9c.4-1.3,.9-3,1.3-6.5,.4-3.5,.9-12.2,1.3-14.5,.4-2.3,.9-1.2,1.3-3.4,.4-2.2,.9-5.3,1.3-10,.4-4.7,.9-18.2,1.3-18.2s.9,10.5,1.3,13.8c.4,3.4,.9,3.3,1.3,6.3,.4,3,.9,11.6,1.3,11.6s.9-.5,1.3-.5,.9,2.4,1.3,3.9,.9,5,1.3,5,.9-1.3,1.3-3.9c.4-2.6,.9-7.9,1.3-13s.9-11.5,1.3-17.8,.9-12.8,1.3-20.3c.4-7.5,.9-22.1,1.3-24.5s.9-3.6,1.3-3.6,.9,53.6,1.3,61.9c.4,8.3,.9,8.2,1.3,12.5s.9,11.3,1.3,13.2,.9,2,1.3,2.8,.9,1.5,1.3,2,.9,.8,1.3,.8,.9-1.1,1.3-3.3,.9-8,1.3-11.2,.9-5.8,1.3-7.9c.4-2.1,.9-3.2,1.3-4.7,.4-1.6,.9-1.6,1.3-4.7s.9-13.2,1.3-14.6,.9-2.1,1.3-2.1,.9,13.1,1.3,18.2c.4,5.1,.9,8.2,1.3,12.4,.4,4.2,.9,11.7,1.3,12.8s.9,1.4,1.3,1.8,.9,.6,1.3,.6,.9-.6,1.3-1.8,.9-7.4,1.3-11.2,.9-10.4,1.3-11.7,.9-1,1.3-1.9c.4-.9,.9-3.7,1.3-3.7s.9,1.7,1.3,5.1c.4,3.4,.9,14.7,1.3,17.8,.4,3.2,.9,3.6,1.3,4.7,.4,1.1,.9,2,1.3,2s.9-2,1.3-2,.9,.3,1.3,.3,.9-.3,1.3-.9c.4-.6,.9-5.1,1.3-8.7,.4-3.6,.9-10.5,1.3-12.8s.9-2.6,1.3-3.4,.9-1.2,1.3-1.2,.9,.1,1.3,.3c.4,.2,.9,.8,1.3,2.1,.4,1.3,.9,3,1.3,5.6s.9,8.8,1.3,10,.9,1.8,1.3,1.8,.9-.7,1.3-.7,.9,4.3,1.3,4.3,.9-.1,1.3-.3,.9-1.5,1.3-4.6,.9-11.4,1.3-15.8c.4-4.4,.9-10.6,1.3-10.6s.9,2.6,1.3,2.6,.9-5,1.3-7.6,.9-8.2,1.3-8.2,.9,29.6,1.3,29.6,.9-.1,1.3-.1,.9,.7,1.3,2.2,.9,7.7,1.3,9.3c.4,1.7,.9,2.5,1.3,2.5s.9-.9,1.3-2.7,.9-7.7,1.3-12.1,.9-10.4,1.3-14.1c.4-3.6,.9-6.3,1.3-7.8,.4-1.4,.9-1.6,1.3-2.2,.4-.6,.9-1.4,1.3-1.4s.9,.9,1.3,2.8,.9,23.5,1.3,25.7,.9,3.4,1.3,3.4,.9-6.8,1.3-6.8,.9,4.1,1.3,5.4,.9,1.5,1.3,2.6,.9,3.9,1.3,3.9,.9-2.7,1.3-5.3" pointer-events="none"/></g></svg>