<?xml version="1.0" encoding="UTF-8"?><svg id="_層_1" xmlns="http://www.w3.org/2000/svg" viewBox="0 0 170.08 85.04"><defs><style>.cls-1{fill:#c1c1c1;font-family:Roboto-Regular, Roboto;font-size:4px;isolation:isolate;}.cls-2{stroke:#c1c1c1;stroke-width:.5px;}.cls-2,.cls-3{fill:none;}.cls-3{stroke:#ef5b5b;stroke-width:1.5px;}</style></defs><g id="_層_2"><g><line class="cls-2" x1="169.15" y1="76.22" x2="10.85" y2="76.22"/><line class="cls-2" x1="169.15" y1="41.82" x2="10.85" y2="41.82"/><line class="cls-2" x1="169.15" y1="7.32" x2="10.85" y2="7.32"/><line class="cls-2" x1="11.15" y1="76.22" x2="11.15" y2="74.72"/><line class="cls-2" x1="26.95" y1="76.22" x2="26.95" y2="74.72"/><line class="cls-2" x1="42.85" y1="76.22" x2="42.85" y2="74.72"/><line class="cls-2" x1="58.65" y1="76.22" x2="58.65" y2="74.72"/><line class="cls-2" x1="74.45" y1="76.22" x2="74.45" y2="74.72"/><line class="cls-2" x1="90.35" y1="76.22" x2="90.35" y2="74.72"/><line class="cls-2" x1="106.15" y1="76.22" x2="106.15" y2="74.72"/><line class="cls-2" x1="121.95" y1="76.22" x2="121.95" y2="74.72"/><line class="cls-2" x1="137.85" y1="76.22" x2="137.85" y2="74.72"/><line class="cls-2" x1="153.65" y1="76.22" x2="153.65" y2="74.72"/><line class="cls-2" x1="168.85" y1="76.22" x2="168.85" y2="74.72"/><text class="cls-1" transform="translate(14.47 80.71)"><tspan x="0" y="0">2013</tspan></text><text class="cls-1" transform="translate(1.93 77.54)"><tspan x="0" y="0">-50%</tspan></text><text class="cls-1" transform="translate(5.28 43.21)"><tspan x="0" y="0">0%</tspan></text><text class="cls-1" transform="translate(.77 8.88)"><tspan x="0" y="0">+50%</tspan></text><text class="cls-1" transform="translate(30.34 80.71)"><tspan x="0" y="0">2014</tspan></text><text class="cls-1" transform="translate(46.21 80.71)"><tspan x="0" y="0">2015</tspan></text><text class="cls-1" transform="translate(62.08 80.71)"><tspan x="0" y="0">2016</tspan></text><text class="cls-1" transform="translate(77.95 80.71)"><tspan x="0" y="0">2017</tspan></text><text class="cls-1" transform="translate(93.82 80.71)"><tspan x="0" y="0">2018</tspan></text><text class="cls-1" transform="translate(109.69 80.71)"><tspan x="0" y="0">2019</tspan></text><text class="cls-1" transform="translate(125.56 80.71)"><tspan x="0" y="0">2020</tspan></text><text class="cls-1" transform="translate(141.44 80.71)"><tspan x="0" y="0">2021</tspan></text><text class="cls-1" transform="translate(157.31 80.71)"><tspan x="0" y="0">2022</tspan></text></g></g><g id="_-100"><path class="cls-3" d="M12.15,59.92c.4,1.3,.9,2.6,1.3,4,.4,1.5,.9,4.7,1.3,4.7s.9-.3,1.3-.8,.9-4.1,1.3-4.1,.9,2,1.3,2.7,.9,1.3,1.3,1.3,.9-.9,1.3-2.6c.4-1.7,.9-24.8,1.3-24.8s.9,.8,1.3,2.4,.9,6,1.3,9.4,.9,10.1,1.3,10.8,.9,.7,1.3,1c.4,.2,.9,.5,1.3,.5s.9-4.6,1.3-4.6,.9,4,1.3,4,.9-.3,1.3-.5,.9-.1,1.3-.4,.9-3.3,1.3-6.3c.4-3.1,.9-12.1,1.3-12.1s.9,16.5,1.3,16.5,.9-2.1,1.3-2.1,.9,6.4,1.3,6.4,.9-2.3,1.3-3.6,.9-4.2,1.3-4.2,.9,.1,1.3,.4c.4,.2,.9,5,1.3,5.3s.9,.3,1.3,.5,.9,.4,1.3,.4,.9-1.1,1.3-1.5,.9-.4,1.3-1.1c.4-.7,.9-6.2,1.3-11.5,.4-5.3,.9-20,1.3-20s.9,.6,1.3,1.7,.9,9.4,1.3,12.5c.4,3.2,.9,4.5,1.3,6.4s.9,5,1.3,5,.9-14.1,1.3-16.9,.9-2.9,1.3-4.2,.9-3.3,1.3-3.3,.9,11.8,1.3,16c.4,4.2,.9,9.4,1.3,9.4s.9-1.3,1.3-2.7,.9-5.2,1.3-5.2,.9,2.4,1.3,2.4,.9-13.7,1.3-20.1,.9-18.3,1.3-18.3,.9,16.2,1.3,24.5,.9,24.9,1.3,25,.9,.2,1.3,.2,.9-11,1.3-11,.9,1.6,1.3,2.7c.4,1.1,.9,3.9,1.3,3.9s.9-2.6,1.3-4.5,.9-3.9,1.3-6.6c.4-2.6,.9-9.2,1.3-9.2s.9,8,1.3,9.6c.4,1.7,.9,2.5,1.3,2.5s.9-13.4,1.3-13.4,.9,8.6,1.3,8.6,.9-7.4,1.3-7.4,.9,3.7,1.3,6,.9,5.5,1.3,7.9c.4,2.3,.9,4.4,1.3,6.1,.4,1.7,.9,4,1.3,4.1s.9,.2,1.3,.2,.9-10.5,1.3-13.8c.4-3.3,.9-4,1.3-6.1s.9-6.9,1.3-6.9,.9,6.5,1.3,8.8,.9,2.2,1.3,4.7c.4,2.5,.9,10.5,1.3,10.5s.9-3.2,1.3-4.8,.9-4.8,1.3-4.8,.9,.5,1.3,.5,.9-.4,1.3-.4,.9,4.6,1.3,5.2c.4,.6,.9,.8,1.3,.8s.9-3.9,1.3-5.6,.9-3.3,1.3-4.8,.9-2.9,1.3-4,.9-2.5,1.3-2.5,.9,7.3,1.3,9.8c.4,2.5,.9,5.3,1.3,5.3s.9-.2,1.3-.7,.9-8.1,1.3-8.1,.9,2.2,1.3,3.2c.4,1,.9,1.4,1.3,2.9s.9,6,1.3,6,.9-3.5,1.3-5.3,.9-5.2,1.3-5.2,.9,.3,1.3,.9,.9,5.1,1.3,5.1,.9-1.8,1.3-2.6,.9-2.2,1.3-2.2,.9,.2,1.3,.2,.9-11,1.3-11,.9,6.5,1.3,9c.4,2.6,.9,4.7,1.3,6.4,.4,1.7,.9,3.5,1.3,3.8s.9,.5,1.3,.5,.9-2.9,1.3-5.8c.4-2.8,.9-4,1.3-11.3,.4-7.3,.9-32.7,1.3-32.7s.9,20.9,1.3,27.6c.4,6.7,.9,12.4,1.3,12.4s.9-5.4,1.3-5.4,.9,1.2,1.3,1.8,.9,1.8,1.3,1.8,.9-1.3,1.3-1.7c.4-.4,.9-.7,1.3-.7s.9,2.7,1.3,3.6c.4,.9,.9,1.7,1.3,1.7s.9-1.7,1.3-1.7,.9,2,1.3,2,.9-3,1.3-4c.4-.9,.9-1.3,1.3-1.6,.4-.3,.9-.3,1.3-.5s.9-.6,1.3-.6,.9,.4,1.3,.8" pointer-events="none"/></g></svg>