<?xml version="1.0" encoding="UTF-8"?><svg id="_層_1" xmlns="http://www.w3.org/2000/svg" viewBox="0 0 170.08 85.04"><defs><style>.cls-1{fill:#c1c1c1;font-family:Roboto-Regular, Roboto;font-size:4px;isolation:isolate;}.cls-2{stroke:#c1c1c1;stroke-width:.5px;}.cls-2,.cls-3{fill:none;}.cls-3{stroke:#ffba49;stroke-width:1.5px;}</style></defs><g id="_層_2"><g><line class="cls-2" x1="169.34" y1="76.22" x2="11.14" y2="76.22"/><line class="cls-2" x1="169.34" y1="41.82" x2="11.14" y2="41.82"/><line class="cls-2" x1="169.34" y1="7.32" x2="11.14" y2="7.32"/><line class="cls-2" x1="11.44" y1="76.22" x2="11.44" y2="74.72"/><line class="cls-2" x1="27.24" y1="76.22" x2="27.24" y2="74.72"/><line class="cls-2" x1="43.04" y1="76.22" x2="43.04" y2="74.72"/><line class="cls-2" x1="58.94" y1="76.22" x2="58.94" y2="74.72"/><line class="cls-2" x1="74.74" y1="76.22" x2="74.74" y2="74.72"/><line class="cls-2" x1="90.54" y1="76.22" x2="90.54" y2="74.72"/><line class="cls-2" x1="106.44" y1="76.22" x2="106.44" y2="74.72"/><line class="cls-2" x1="122.24" y1="76.22" x2="122.24" y2="74.72"/><line class="cls-2" x1="138.04" y1="76.22" x2="138.04" y2="74.72"/><line class="cls-2" x1="153.94" y1="76.22" x2="153.94" y2="74.72"/><line class="cls-2" x1="169.14" y1="76.22" x2="169.14" y2="74.72"/><text class="cls-1" transform="translate(14.73 80.69)"><tspan x="0" y="0">2013</tspan></text><text class="cls-1" transform="translate(2.19 77.53)"><tspan x="0" y="0">-50%</tspan></text><text class="cls-1" transform="translate(5.54 43.2)"><tspan x="0" y="0">0%</tspan></text><text class="cls-1" transform="translate(1.03 8.87)"><tspan x="0" y="0">+50%</tspan></text><text class="cls-1" transform="translate(30.6 80.69)"><tspan x="0" y="0">2014</tspan></text><text class="cls-1" transform="translate(46.47 80.69)"><tspan x="0" y="0">2015</tspan></text><text class="cls-1" transform="translate(62.35 80.69)"><tspan x="0" y="0">2016</tspan></text><text class="cls-1" transform="translate(78.22 80.69)"><tspan x="0" y="0">2017</tspan></text><text class="cls-1" transform="translate(94.09 80.69)"><tspan x="0" y="0">2018</tspan></text><text class="cls-1" transform="translate(109.96 80.69)"><tspan x="0" y="0">2019</tspan></text><text class="cls-1" transform="translate(125.83 80.69)"><tspan x="0" y="0">2020</tspan></text><text class="cls-1" transform="translate(141.7 80.69)"><tspan x="0" y="0">2021</tspan></text><text class="cls-1" transform="translate(157.57 80.69)"><tspan x="0" y="0">2022</tspan></text></g></g><g id="_01-200"><path class="cls-3" d="M11.84,44.42h1.3c.4,0,.9-1.5,1.3-1.5s.9,.8,1.3,.8,.9-.2,1.3-.4c.4-.2,.9-.7,1.3-1,.4-.3,.9-.6,1.3-.6s.9,4.5,1.3,4.5,.9-3.1,1.3-3.4,.9-.3,1.3-.5,.9-.2,1.3-.2,.9,.1,1.3,.3c.4,.2,.9,1.3,1.3,1.3s.9-.7,1.3-1.1c.4-.4,.9-1,1.3-1.2,.4-.2,.9-.3,1.3-.3s.9,.1,1.3,.2,.9,.9,1.3,1.4c.4,.5,.9,1.1,1.3,1.5,.4,.4,.9,.7,1.3,.7s.9-.6,1.3-1.1,.9-1.6,1.3-1.6,.9,1,1.3,1.4,.9,1,1.3,1,.9-.1,1.3-.1,.9,.8,1.3,.8,.9-.9,1.3-.9h1.3c.4,0,.9-1.3,1.3-1.8,.4-.5,.9-1.1,1.3-1.1s.9,.2,1.3,.6c.4,.4,.9,2.4,1.3,2.4s.9-3,1.3-3,.9,.3,1.3,.3,.9-1.1,1.3-1.1,.9,.2,1.3,.5c.4,.3,.9,1.5,1.3,1.5h1.3c.4,0,.9-1.1,1.3-1.4,.4-.3,.9-.4,1.3-.4s.9,.7,1.3,.7,.9-.5,1.3-.5,.9,1.1,1.3,1.6,.9,1.6,1.3,1.6,.9-4.1,1.3-4.1,.9,0,1.3,.1,.9,.2,1.3,.4c.4,.2,.9,.4,1.3,.7,.4,.3,.9,1.1,1.3,1.1s.9-1.7,1.3-1.7,.9,.2,1.3,.2,.9-.7,1.3-.7h1.3c.4,0,.9-.4,1.3-.7,.4-.3,.9-.9,1.3-.9s.9,1,1.3,1.6,.9,1.8,1.3,1.8,.9-2.5,1.3-2.5,.9,.5,1.3,.5,.9-.2,1.3-.2,.9,.6,1.3,.7c.4,.2,.9,.3,1.3,.3s.9-.8,1.3-1c.4-.2,.9-.2,1.3-.2s.9,.1,1.3,.1,.9,0,1.3-.1c.4,0,.9-.5,1.3-.5s.9,1.2,1.3,1.2,.9-1.4,1.3-1.6c.4-.1,.9-.2,1.3-.2s.9,0,1.3-.1c.4-.1,.9-.2,1.3-.2s.9,.9,1.3,.9h1.3c.4,0,.9-.7,1.3-.8,.4-.1,.9,0,1.3-.1,.4-.1,.9-.6,1.3-.6s.9,0,1.3,.1,.9,.7,1.3,.9,.9,.8,1.3,.8,.9-2.1,1.3-2.1h1.3c.4,0,.9,.4,1.3,.4s.9-.1,1.3-.1,.9,1.6,1.3,1.6,.9-1.5,1.3-1.5c.4-.1,.9-.1,1.3-.1s.9,.4,1.3,.4,.9-.1,1.3-.2,.9-.3,1.3-.3,.9,.5,1.3,.9,.9,1.3,1.3,1.3,.9-.7,1.3-1.1c.4-.4,.9-1.2,1.3-1.2s.9,.1,1.3,.1,.9-.1,1.3-.1,.9,.5,1.3,.6c.4,.1,.9,.2,1.3,.2s.9-.4,1.3-.4,.9,.1,1.3,.2,.9,.2,1.3,.2,.9-.7,1.3-.7,.9,.1,1.3,.4c.4,.2,.9,1.4,1.3,1.4s.9-1.1,1.3-1.4c.4-.3,.9-.5,1.3-.5s.9,.2,1.3,.2,.9-.2,1.3-.2,.9,.5,1.3,.5,.9-.1,1.3-.2,.9-1.3,1.3-1.8c.4-.5,.9-1,1.3-1s.9,.1,1.3,.1,.9-1.1,1.3-1.5c.4-.3,.9-.6,1.3-.6s.9,.7,1.3,.7,.9-.5,1.3-.8c.4-.3,.9-1,1.3-1s.9,.3,1.3,.4,.9,.2,1.3,.2" pointer-events="none"/></g></svg>